<?xml version="1.0" encoding="utf-8"?>
<!-- Generator: Adobe Illustrator 19.0.0, SVG Export Plug-In . SVG Version: 6.00 Build 0)  -->
<svg version="1.0" id="tagline" xmlns="http://www.w3.org/2000/svg" xmlns:xlink="http://www.w3.org/1999/xlink" x="0px" y="0px"
	 viewBox="0 0 300 96.7" style="enable-background:new 0 0 300 96.7;" xml:space="preserve">
<style type="text/css">
	.st0{fill:#6679BA;}
</style>
<path id="XMLID_178_" class="st0" d="M85.4,58.9c0-0.7-0.6-1.3-1.3-1.3h-1.5l1.5-6.4c0-0.1,0-0.2,0-0.3c0-2.6-2.1-4.8-4.8-4.8
	c-2.6,0-4.8,2.1-4.8,4.8c0,0.1,0,0.2,0,0.3l1.5,6.4H74c-0.2-2.7-1-5.2-2.2-7.5c1.1-3.3,2.4-7.4,3.1-10.2c0.3-1.4-0.2-2.8-1.2-3.7
	c-1.1-0.9-2.5-1-3.9-0.3c-2.2,1.1-4.2,2.6-6.2,3.9c-0.8,0.6-1.7,1.2-2.6,1.8c-0.8-0.2-1.6-0.4-2.4-0.5l-0.4-0.1c0-0.5,0-1.1,0-1.7
	c0-1.8,0.1-3.8-0.8-5.5c-0.9-1.6-2.9-2.2-5.2-2.4v-6.4c0-4.8-3.9-8.7-8.7-8.7h-3c-2.1,0-3.8,1.7-3.8,3.8c0,2.1,1.7,3.8,3.8,3.8h3
	c0.6,0,1.1,0.5,1.1,1.1V32c-3.9,0.8-6.5,2.9-8.2,6.7c-2.5,0-3.1,0.1-3.3,0.1c-4.6,0.7-8.9,3-12,6.6c-3.1,3.6-4.9,8.2-4.9,13
	c0,10.4,8.2,19.1,18.6,19.7c0.2,0,0.5,0,0.8,0c0.4,0,0.8,0,1.3,0l20.8-1.5c1.7-0.1,3.3-0.5,4.8-1c0.2,0.3,0.4,0.6,0.7,0.9
	c0.7,1,1.6,1.8,2.5,2.4c1.3,0.9,2.8,1.4,4.3,1.4c1,0,2-0.2,3.1-0.6c1.1-0.4,2-1.3,2.4-2.3c0.5-1.1,0.5-2.3,0-3.4
	c-0.5-1.2-1.5-3.4-2.3-5.4c-0.3-0.7-0.6-1.4-0.8-1.9c0.9-1.9,1.5-4.1,1.7-6.3h2.1l-1.5,6.4c0,0.1,0,0.2,0,0.3c0,2.6,2.1,4.8,4.8,4.8
	c2.6,0,4.8-2.1,4.8-4.8c0-0.1,0-0.2,0-0.3l-1.5-6.4h1.5C84.8,60.2,85.4,59.6,85.4,58.9z M37.3,52.8c-0.7,8.8-4.8,15-12.4,18.3
	c0,0-0.1,0-0.1,0.1c-3.6-3.1-5.9-7.8-5.9-12.9c0-4.1,1.5-8.1,4.2-11.2c2.7-3.1,6.4-5.1,10.4-5.7c0.1,0,0.7-0.1,2.8-0.1
	C36.7,43.1,37.7,47.7,37.3,52.8z M59.9,65.3c-3.9,1.3-7.8,2-10.6,2c-2.3,0-3.9-0.5-4.9-1.6c-1.3-1.4-1.1-3.1-1.1-4.2
	c0-0.2,0-0.4,0-0.5c0-4,5.8-4,8.3-4c2.9,0,6.5,0.3,9.2,0.8c4.1,0.7,5.7,1.7,5.7,3.2C66.6,61.6,66.6,63.1,59.9,65.3z M79.4,69.1
	c-1.1,0-2.1-0.9-2.1-2l1.5-6.3H80l1.5,6.3C81.4,68.2,80.5,69.1,79.4,69.1z M80,57.1h-1.4l-1.5-6.3c0.1-1.1,1-2,2.1-2
	c1.1,0,2.1,0.9,2.1,2L80,57.1z"/>
<g id="XMLID_184_">
	<g id="XMLID_125_">
		<path id="XMLID_126_" class="st0" d="M105.5,73.3c0.4,0,0.8,0.1,1.1,0.2c0.3,0.1,0.5,0.3,0.7,0.4c0.2,0.2,0.3,0.4,0.4,0.6
			c0.1,0.2,0.1,0.5,0.1,0.7c0,0.2,0,0.4,0,0.5c0,0.1,0,0.3,0,0.4H95.9V58h11.3c0,0.2,0.1,0.4,0.1,0.5c0,0.1,0,0.3,0,0.5
			c0,0.6-0.2,1.1-0.5,1.4c-0.3,0.3-0.9,0.5-1.8,0.5h-5.4v4.5h5.8v2.9h-5.8v5H105.5z"/>
		<path id="XMLID_128_" class="st0" d="M120.6,73c0,1.4,0.2,2.5,0.6,3.1c-0.3,0.1-0.6,0.2-0.9,0.3s-0.6,0.1-0.9,0.1
			c-0.7,0-1.1-0.1-1.5-0.4c-0.3-0.3-0.5-0.6-0.6-1.1c-0.4,0.4-0.9,0.8-1.6,1.1c-0.7,0.3-1.5,0.4-2.4,0.4c-0.5,0-1-0.1-1.5-0.2
			c-0.5-0.1-0.9-0.4-1.3-0.7c-0.4-0.3-0.7-0.7-1-1.2c-0.3-0.5-0.4-1.1-0.4-1.9c0-0.9,0.2-1.7,0.7-2.3c0.4-0.6,1-1,1.7-1.4
			c0.7-0.3,1.4-0.6,2.2-0.7c0.8-0.1,1.5-0.2,2.1-0.2c0.2,0,0.4,0,0.6,0s0.4,0,0.6,0v-0.5c0-0.7-0.2-1.2-0.6-1.5
			c-0.4-0.3-1-0.4-1.8-0.4c-0.8,0-1.5,0.1-2.1,0.4c-0.6,0.3-1.2,0.5-1.8,0.9c-0.3-0.3-0.5-0.6-0.6-1c-0.2-0.4-0.2-0.6-0.2-0.8
			c0-0.3,0.1-0.5,0.4-0.7c0.3-0.2,0.7-0.4,1.2-0.6c0.5-0.2,1.1-0.3,1.7-0.5c0.6-0.1,1.3-0.2,2-0.2c1,0,1.8,0.1,2.5,0.3
			c0.7,0.2,1.2,0.5,1.7,0.9c0.4,0.4,0.7,0.9,0.9,1.6c0.2,0.6,0.3,1.4,0.3,2.2V73z M117.2,69.9c-0.1,0-0.3,0-0.4,0
			c-0.1,0-0.3,0-0.4,0c-0.5,0-0.9,0.1-1.3,0.2c-0.4,0.1-0.8,0.2-1.2,0.4c-0.3,0.2-0.6,0.4-0.8,0.7c-0.2,0.3-0.3,0.7-0.3,1.1
			c0,0.5,0.1,0.9,0.4,1.3c0.3,0.4,0.8,0.5,1.5,0.5c0.3,0,0.7,0,1-0.1c0.3-0.1,0.6-0.2,0.8-0.4c0.2-0.1,0.4-0.3,0.6-0.5
			c0.1-0.2,0.2-0.3,0.2-0.5V69.9z"/>
		<path id="XMLID_131_" class="st0" d="M124.3,74.2c-0.1-0.4-0.2-0.7-0.2-1.1c0-0.4-0.1-0.8-0.1-1.2V59.3c0.1,0,0.3,0,0.4-0.1
			c0.1,0,0.3,0,0.4,0c0.1,0,0.3,0,0.4,0c0.3,0,0.6,0,0.9,0.1c0.3,0.1,0.6,0.2,0.8,0.3c0.2,0.2,0.4,0.4,0.6,0.7
			c0.1,0.3,0.2,0.6,0.2,1.1v1.9h3.8V66h-3.8v5.8c0,1.3,0.5,1.9,1.6,1.9c0.3,0,0.5,0,0.7-0.1c0.2-0.1,0.4-0.2,0.6-0.3
			c0.2-0.1,0.3-0.2,0.5-0.3c0.1-0.1,0.2-0.2,0.3-0.2c0.3,0.4,0.5,0.7,0.6,1c0.1,0.3,0.2,0.6,0.2,0.8c0,0.2-0.1,0.5-0.3,0.7
			c-0.2,0.2-0.5,0.4-0.8,0.6c-0.3,0.2-0.8,0.3-1.3,0.5c-0.5,0.1-1,0.2-1.6,0.2c-1.1,0-2-0.2-2.6-0.7C125,75.5,124.6,74.9,124.3,74.2
			z"/>
		<path id="XMLID_133_" class="st0" d="M152.9,69.7c0,0.9-0.1,1.8-0.3,2.6c-0.2,0.8-0.6,1.6-1.1,2.2c-0.5,0.6-1.2,1.1-2,1.5
			c-0.8,0.4-1.8,0.6-3,0.6c-1.2,0-2.1-0.2-3-0.6c-0.8-0.4-1.5-0.9-2-1.5c-0.5-0.6-0.9-1.4-1.1-2.2c-0.2-0.8-0.4-1.7-0.4-2.6
			c0-0.9,0.1-1.8,0.4-2.6c0.3-0.8,0.7-1.6,1.2-2.2c0.5-0.6,1.2-1.1,2-1.5c0.8-0.4,1.8-0.5,2.9-0.5c1.1,0,2.1,0.2,2.9,0.5
			c0.8,0.4,1.5,0.9,2,1.5c0.5,0.6,0.9,1.3,1.1,2.1C152.8,67.9,152.9,68.8,152.9,69.7z M149.2,69.7c0-0.5,0-1-0.1-1.5
			c-0.1-0.5-0.2-0.9-0.4-1.3c-0.2-0.4-0.5-0.7-0.8-0.9c-0.3-0.2-0.8-0.3-1.3-0.3s-1,0.1-1.3,0.4c-0.4,0.2-0.6,0.5-0.8,0.9
			c-0.2,0.4-0.4,0.8-0.5,1.3c-0.1,0.5-0.1,1-0.1,1.4s0,1,0.1,1.5c0.1,0.5,0.2,0.9,0.4,1.3c0.2,0.4,0.5,0.7,0.8,0.9
			c0.4,0.2,0.8,0.4,1.3,0.4c0.5,0,1-0.1,1.4-0.4c0.4-0.2,0.6-0.5,0.8-0.9c0.2-0.4,0.3-0.8,0.4-1.3C149.1,70.7,149.2,70.2,149.2,69.7
			z"/>
		<path id="XMLID_136_" class="st0" d="M163.9,63.3c0,0,0.2,0,0.4,0c0.3,0,0.5,0,0.8,0c0.3,0,0.6,0,0.9,0.1c0.3,0.1,0.6,0.2,0.8,0.4
			c0.2,0.2,0.4,0.4,0.6,0.7s0.2,0.6,0.2,1.1v10.8h-2.5c-0.5,0-0.7-0.1-0.9-0.4c-0.1-0.2-0.2-0.6-0.2-1.1c-0.3,0.4-0.8,0.8-1.4,1.2
			c-0.6,0.4-1.5,0.5-2.6,0.5c-1.3,0-2.2-0.3-2.9-0.8c-0.6-0.5-1-1.2-1.2-2c-0.1-0.4-0.1-0.9-0.2-1.4c0-0.5,0-1,0-1.4v-7.6
			c0.1,0,0.3,0,0.4,0c0.1,0,0.3,0,0.4,0c0.1,0,0.3,0,0.4,0c0.7,0,1.3,0.2,1.8,0.5c0.5,0.3,0.7,0.9,0.7,1.7v5.4c0,0.4,0,0.8,0,1.1
			c0,0.3,0.1,0.6,0.2,0.9c0.1,0.2,0.3,0.4,0.6,0.6c0.3,0.1,0.6,0.2,1.1,0.2c0.7,0,1.2-0.1,1.7-0.4c0.5-0.3,0.7-0.6,0.7-1V63.3z"/>
		<path id="XMLID_138_" class="st0" d="M171.2,74.2c-0.1-0.4-0.2-0.7-0.2-1.1c0-0.4-0.1-0.8-0.1-1.2V59.3c0.1,0,0.3,0,0.4-0.1
			c0.1,0,0.3,0,0.4,0c0.1,0,0.3,0,0.4,0c0.3,0,0.6,0,0.9,0.1c0.3,0.1,0.6,0.2,0.8,0.3c0.2,0.2,0.4,0.4,0.6,0.7
			c0.1,0.3,0.2,0.6,0.2,1.1v1.9h3.8V66h-3.8v5.8c0,1.3,0.5,1.9,1.6,1.9c0.3,0,0.5,0,0.7-0.1c0.2-0.1,0.4-0.2,0.6-0.3
			c0.2-0.1,0.3-0.2,0.5-0.3c0.1-0.1,0.2-0.2,0.3-0.2c0.3,0.4,0.5,0.7,0.6,1c0.1,0.3,0.2,0.6,0.2,0.8c0,0.2-0.1,0.5-0.3,0.7
			c-0.2,0.2-0.5,0.4-0.8,0.6c-0.3,0.2-0.8,0.3-1.3,0.5c-0.5,0.1-1,0.2-1.6,0.2c-1.1,0-2-0.2-2.6-0.7
			C171.9,75.5,171.5,74.9,171.2,74.2z"/>
		<path id="XMLID_140_" class="st0" d="M182.8,72.6c0.7,0,1.2,0.2,1.6,0.7c0.3,0.5,0.5,1.1,0.5,1.8c0,0.5-0.1,1-0.2,1.6
			c-0.2,0.5-0.4,1-0.7,1.5s-0.6,0.8-1,1.1c-0.4,0.3-0.8,0.4-1.2,0.4c-0.3,0-0.6-0.1-0.8-0.2c-0.2-0.2-0.4-0.4-0.5-0.7
			c0.4-0.2,0.7-0.4,1.1-0.8c0.4-0.4,0.6-0.8,0.6-1.4c-0.3-0.2-0.5-0.5-0.8-0.8c-0.3-0.3-0.4-0.8-0.4-1.4c0-0.4,0.2-0.8,0.5-1.2
			C181.7,72.8,182.2,72.6,182.8,72.6z"/>
		<path id="XMLID_142_" class="st0" d="M203,64.8c0,0.3-0.1,0.6-0.3,1c-0.2,0.4-0.4,0.7-0.6,1c-0.2-0.1-0.4-0.3-0.7-0.4
			s-0.6-0.3-0.9-0.4c-0.3-0.1-0.7-0.2-1-0.3c-0.4-0.1-0.7-0.1-1.1-0.1c-0.2,0-0.4,0-0.6,0c-0.2,0-0.4,0.1-0.6,0.2
			c-0.2,0.1-0.3,0.2-0.4,0.4c-0.1,0.2-0.2,0.4-0.2,0.6c0,0.6,0.7,1.1,2,1.4c0.5,0.1,1.1,0.2,1.6,0.4c0.5,0.2,1,0.4,1.4,0.7
			c0.4,0.3,0.8,0.7,1,1.2c0.3,0.5,0.4,1.1,0.4,1.8c0,0.7-0.1,1.4-0.4,1.9c-0.3,0.6-0.7,1-1.2,1.4c-0.5,0.4-1.1,0.7-1.7,0.9
			c-0.7,0.2-1.4,0.3-2.2,0.3c-0.8,0-1.5-0.1-2-0.2c-0.6-0.1-1-0.3-1.4-0.4c-0.3-0.1-0.5-0.3-0.8-0.5c-0.3-0.2-0.4-0.5-0.4-0.9
			c0-0.3,0.1-0.6,0.3-1c0.2-0.3,0.4-0.7,0.6-1c0.2,0.1,0.4,0.3,0.6,0.4c0.2,0.2,0.5,0.3,0.8,0.4c0.3,0.1,0.7,0.2,1,0.3
			c0.4,0.1,0.7,0.1,1.1,0.1c0.2,0,0.5,0,0.7-0.1c0.3,0,0.5-0.1,0.7-0.2c0.2-0.1,0.3-0.3,0.5-0.4c0.1-0.2,0.2-0.4,0.2-0.7
			c0-0.5-0.2-0.9-0.6-1.1c-0.4-0.2-1-0.4-1.8-0.6c-0.5-0.1-1-0.3-1.5-0.4c-0.5-0.2-0.9-0.4-1.3-0.7c-0.4-0.3-0.7-0.7-0.9-1.1
			c-0.2-0.5-0.3-1-0.3-1.7c0-0.7,0.1-1.2,0.4-1.7c0.3-0.5,0.7-0.9,1.2-1.3c0.5-0.3,1-0.6,1.7-0.8c0.6-0.2,1.3-0.3,2-0.3
			c0.7,0,1.4,0.1,1.9,0.2c0.6,0.1,1.1,0.3,1.5,0.4C202.6,63.9,203,64.3,203,64.8z"/>
		<path id="XMLID_144_" class="st0" d="M216.4,73c0,1.4,0.2,2.5,0.6,3.1c-0.3,0.1-0.6,0.2-0.9,0.3c-0.3,0.1-0.6,0.1-0.9,0.1
			c-0.7,0-1.1-0.1-1.5-0.4c-0.3-0.3-0.5-0.6-0.6-1.1c-0.4,0.4-0.9,0.8-1.6,1.1c-0.7,0.3-1.5,0.4-2.4,0.4c-0.5,0-1-0.1-1.5-0.2
			c-0.5-0.1-0.9-0.4-1.3-0.7c-0.4-0.3-0.7-0.7-1-1.2c-0.3-0.5-0.4-1.1-0.4-1.9c0-0.9,0.2-1.7,0.7-2.3c0.4-0.6,1-1,1.7-1.4
			s1.4-0.6,2.2-0.7c0.8-0.1,1.5-0.2,2.1-0.2c0.2,0,0.4,0,0.6,0s0.4,0,0.6,0v-0.5c0-0.7-0.2-1.2-0.6-1.5c-0.4-0.3-1-0.4-1.8-0.4
			c-0.8,0-1.5,0.1-2.1,0.4c-0.6,0.3-1.2,0.5-1.8,0.9c-0.3-0.3-0.5-0.6-0.6-1c-0.2-0.4-0.2-0.6-0.2-0.8c0-0.3,0.1-0.5,0.4-0.7
			c0.3-0.2,0.7-0.4,1.2-0.6c0.5-0.2,1.1-0.3,1.7-0.5c0.6-0.1,1.3-0.2,2-0.2c1,0,1.8,0.1,2.5,0.3s1.2,0.5,1.7,0.9
			c0.4,0.4,0.7,0.9,0.9,1.6c0.2,0.6,0.3,1.4,0.3,2.2V73z M212.9,69.9c-0.1,0-0.3,0-0.4,0c-0.1,0-0.3,0-0.4,0c-0.5,0-0.9,0.1-1.3,0.2
			c-0.4,0.1-0.8,0.2-1.2,0.4c-0.3,0.2-0.6,0.4-0.8,0.7c-0.2,0.3-0.3,0.7-0.3,1.1c0,0.5,0.1,0.9,0.4,1.3c0.3,0.4,0.8,0.5,1.5,0.5
			c0.3,0,0.7,0,1-0.1s0.6-0.2,0.8-0.4c0.2-0.1,0.4-0.3,0.6-0.5c0.1-0.2,0.2-0.3,0.2-0.5V69.9z"/>
		<path id="XMLID_147_" class="st0" d="M226.2,76.3h-3.9l-4.5-12.8c0.6-0.2,1.3-0.4,2-0.4c0.4,0,0.8,0.1,1.1,0.2
			c0.3,0.1,0.5,0.3,0.7,0.5c0.2,0.2,0.3,0.5,0.5,0.8c0.1,0.3,0.2,0.7,0.3,1l2,7l2.1-7.1c0.1-0.4,0.2-0.7,0.4-1
			c0.1-0.3,0.3-0.6,0.5-0.8c0.2-0.2,0.4-0.4,0.7-0.5c0.3-0.1,0.6-0.2,1-0.2c0.4,0,0.7,0,1,0.1c0.3,0.1,0.6,0.2,0.8,0.2L226.2,76.3z"
			/>
		<path id="XMLID_149_" class="st0" d="M238.8,73.9c0.5,0,0.9-0.1,1.2-0.1c0.3-0.1,0.7-0.2,0.9-0.4c0.3-0.1,0.5-0.3,0.7-0.5
			c0.2-0.2,0.4-0.3,0.5-0.5c0.2,0.3,0.4,0.6,0.7,1c0.2,0.4,0.4,0.8,0.4,1c0,0.4-0.2,0.8-0.7,1.1c-0.4,0.3-0.9,0.5-1.6,0.7
			c-0.7,0.2-1.5,0.3-2.5,0.3c-0.9,0-1.7-0.1-2.5-0.3c-0.8-0.2-1.6-0.6-2.2-1.1c-0.6-0.5-1.2-1.3-1.6-2.2c-0.4-0.9-0.6-2.1-0.6-3.5
			c0-1.1,0.2-2.1,0.5-3c0.4-0.8,0.8-1.5,1.4-2.1c0.6-0.5,1.3-0.9,2-1.2c0.7-0.3,1.5-0.4,2.3-0.4c1,0,1.9,0.2,2.6,0.5
			c0.7,0.3,1.3,0.7,1.7,1.3c0.4,0.5,0.8,1.1,1,1.8c0.2,0.7,0.3,1.4,0.3,2.2c0,0.1,0,0.2,0,0.4c0,0.1,0,0.3,0,0.5c0,0.2,0,0.3,0,0.5
			c0,0.2,0,0.3,0,0.4h-8c0.1,1,0.4,1.8,0.9,2.5C236.7,73.6,237.6,73.9,238.8,73.9z M240,68.4c0-0.9-0.2-1.6-0.5-2.1
			s-0.9-0.8-1.8-0.8c-0.7,0-1.3,0.3-1.8,0.8c-0.4,0.5-0.7,1.2-0.7,2.2H240z"/>
		<path id="XMLID_152_" class="st0" d="M260.4,63.3c0,0,0.2,0,0.4,0c0.3,0,0.5,0,0.8,0c0.3,0,0.6,0,0.9,0.1c0.3,0.1,0.6,0.2,0.8,0.4
			c0.2,0.2,0.4,0.4,0.6,0.7s0.2,0.6,0.2,1.1v10.8h-2.5c-0.5,0-0.7-0.1-0.9-0.4c-0.1-0.2-0.2-0.6-0.2-1.1c-0.3,0.4-0.8,0.8-1.4,1.2
			s-1.5,0.5-2.6,0.5c-1.3,0-2.2-0.3-2.9-0.8c-0.6-0.5-1-1.2-1.2-2c-0.1-0.4-0.1-0.9-0.2-1.4s0-1,0-1.4v-7.6c0.1,0,0.3,0,0.4,0
			c0.1,0,0.3,0,0.4,0c0.1,0,0.3,0,0.4,0c0.7,0,1.3,0.2,1.8,0.5c0.5,0.3,0.7,0.9,0.7,1.7v5.4c0,0.4,0,0.8,0,1.1
			c0,0.3,0.1,0.6,0.2,0.9c0.1,0.2,0.3,0.4,0.6,0.6c0.3,0.1,0.6,0.2,1.1,0.2c0.7,0,1.2-0.1,1.7-0.4c0.5-0.3,0.7-0.6,0.7-1V63.3z"/>
		<path id="XMLID_154_" class="st0" d="M271.1,64.5c0.3-0.3,0.7-0.7,1.4-1c0.6-0.4,1.4-0.5,2.3-0.5c0.7,0,1.3,0.1,1.9,0.3
			c0.6,0.2,1.1,0.6,1.6,1.1c0.5,0.5,0.8,1.2,1.1,2c0.3,0.8,0.4,1.9,0.4,3.1c0,1.4-0.2,2.6-0.5,3.5c-0.3,0.9-0.7,1.6-1.3,2.2
			c-0.5,0.5-1.1,0.9-1.7,1.1c-0.6,0.2-1.3,0.3-1.9,0.3c-0.5,0-1-0.1-1.4-0.2c-0.4-0.1-0.7-0.2-1-0.4c-0.3-0.1-0.5-0.3-0.6-0.4
			c-0.1-0.1-0.2-0.2-0.3-0.3v6.8h-3.7V63.3c0.1,0,0.2,0,0.3-0.1c0.1,0,0.2,0,0.4,0c0.1,0,0.3,0,0.5,0c0.6,0,1.1,0.1,1.5,0.3
			C270.8,63.7,271,64.1,271.1,64.5z M276,69.6c0-0.5,0-1.1-0.1-1.5c-0.1-0.5-0.2-0.9-0.4-1.2c-0.2-0.3-0.5-0.6-0.8-0.8
			s-0.8-0.3-1.3-0.3c-0.8,0-1.3,0.1-1.6,0.4c-0.3,0.3-0.4,0.6-0.4,1v5.8c0.1,0.1,0.4,0.3,0.8,0.5c0.4,0.2,0.8,0.3,1.3,0.3
			c0.9,0,1.6-0.4,2-1.1C275.8,71.9,276,70.9,276,69.6z"/>
		<path id="XMLID_157_" class="st0" d="M286.5,74.6c0,0.6-0.2,1.1-0.5,1.5c-0.4,0.4-0.9,0.6-1.5,0.6c-0.6,0-1.1-0.2-1.5-0.6
			c-0.4-0.4-0.6-0.9-0.6-1.5s0.2-1.1,0.6-1.4c0.4-0.4,0.9-0.6,1.4-0.6s1.1,0.2,1.4,0.6C286.3,73.5,286.5,74,286.5,74.6z"/>
	</g>
	<g id="XMLID_75_">
		<path id="XMLID_176_" class="st0" d="M96.2,37.4c0.4,0.3,0.8,0.6,1.3,1c0.5,0.3,1,0.6,1.6,0.9c0.6,0.3,1.2,0.5,1.9,0.7
			c0.7,0.2,1.4,0.3,2.2,0.3c0.6,0,1.2-0.1,1.8-0.2c0.6-0.1,1.1-0.4,1.5-0.7c0.4-0.3,0.8-0.7,1.1-1.2c0.3-0.5,0.4-1.1,0.4-1.8
			c0-0.7-0.2-1.4-0.5-1.9c-0.3-0.5-0.7-1-1.3-1.3c-0.5-0.4-1.1-0.7-1.8-0.9c-0.7-0.3-1.4-0.5-2.1-0.8c-0.9-0.3-1.8-0.7-2.8-1
			c-0.9-0.4-1.8-0.9-2.5-1.5c-0.7-0.6-1.4-1.4-1.8-2.3c-0.5-0.9-0.7-2.1-0.7-3.6c0-1.4,0.3-2.6,0.8-3.7c0.5-1.1,1.3-1.9,2.2-2.7
			c0.9-0.7,2-1.2,3.3-1.6s2.5-0.5,3.9-0.5c0.9,0,1.8,0.1,2.7,0.2c0.8,0.1,1.6,0.3,2.2,0.5c0.6,0.2,1.2,0.4,1.6,0.6s0.8,0.4,1,0.6
			c0.8,0.5,1.2,1.1,1.2,1.9c0,0.3-0.2,0.8-0.5,1.4c-0.3,0.6-0.7,1.2-1.3,1.7c-0.7-0.6-1.7-1.1-2.8-1.6c-1.2-0.5-2.4-0.8-3.6-0.8
			c-0.5,0-1.1,0.1-1.6,0.2c-0.5,0.1-1,0.3-1.5,0.5c-0.4,0.2-0.8,0.6-1.1,1c-0.3,0.4-0.4,1-0.4,1.6c0,0.6,0.1,1.1,0.4,1.6
			c0.3,0.4,0.7,0.8,1.2,1.2c0.5,0.3,1.1,0.6,1.7,0.9c0.6,0.3,1.3,0.5,2,0.8c0.9,0.3,1.9,0.7,2.8,1.1c0.9,0.4,1.8,0.9,2.6,1.5
			c0.8,0.6,1.4,1.4,1.9,2.3c0.5,0.9,0.7,2.1,0.7,3.5c0,1.5-0.3,2.9-0.8,4c-0.5,1.2-1.3,2.1-2.2,3c-0.9,0.8-2.1,1.4-3.4,1.8
			c-1.3,0.4-2.8,0.6-4.4,0.6c-2,0-3.7-0.2-5-0.6c-1.3-0.4-2.2-0.8-2.8-1.1c-0.3-0.2-0.6-0.5-0.9-0.8c-0.2-0.3-0.3-0.7-0.3-1.1
			c0-0.5,0.2-1.1,0.6-1.8C95.3,38.6,95.7,38,96.2,37.4z"/>
		<path id="XMLID_174_" class="st0" d="M124.3,32.8c0,1,0.1,2,0.2,2.8c0.1,0.8,0.4,1.5,0.8,2.1c0.4,0.6,0.9,1,1.6,1.4
			c0.7,0.3,1.6,0.5,2.7,0.5c2,0,3.3-0.6,4.1-1.7c0.8-1.1,1.2-2.7,1.2-4.8V15.2c0.3,0,0.5-0.1,0.8-0.1c0.2,0,0.4-0.1,0.7-0.1
			c0.2,0,0.4,0,0.6,0c0.4,0,0.8,0,1.3,0.1c0.4,0.1,0.9,0.3,1.2,0.5c0.4,0.2,0.7,0.6,0.9,1c0.2,0.4,0.4,1,0.4,1.7v14.1
			c0,0.6,0,1.2,0,1.7c0,0.6-0.1,1.2-0.1,1.8c-0.1,1.2-0.4,2.4-0.9,3.4c-0.5,1.1-1.2,2-2.1,2.8c-0.9,0.8-2,1.4-3.4,1.9
			c-1.4,0.5-2.9,0.7-4.8,0.7c-1.9,0-3.5-0.2-4.7-0.6c-1.3-0.4-2.4-1-3.2-1.7c-0.9-0.8-1.5-1.7-2-2.8c-0.5-1.1-0.8-2.4-0.9-3.8
			c-0.1-0.5-0.1-1-0.1-1.6c0-0.5,0-1.1,0-1.7V15.2c0.2,0,0.5-0.1,0.7-0.1c0.2,0,0.4-0.1,0.7-0.1c0.2,0,0.4,0,0.6,0
			c0.4,0,0.9,0,1.3,0.1c0.4,0.1,0.9,0.3,1.2,0.5c0.4,0.2,0.7,0.6,0.9,1c0.2,0.4,0.4,1,0.4,1.7V32.8z"/>
		<path id="XMLID_170_" class="st0" d="M167.2,35.6c0,1.7-0.3,3-0.8,4.1c-0.6,1.1-1.4,1.9-2.4,2.6c-1,0.6-2.3,1.1-3.8,1.4
			c-1.5,0.3-3.1,0.4-4.9,0.4h-8.7V15.4c1.5-0.1,2.9-0.3,4.2-0.3c1.3-0.1,2.6-0.1,3.8-0.1c2.2,0,4,0.2,5.4,0.5
			c1.5,0.3,2.6,0.8,3.5,1.4c0.9,0.6,1.5,1.4,1.9,2.3c0.4,0.9,0.6,2,0.6,3.1c0,0.9-0.1,1.8-0.4,2.5c-0.3,0.7-0.6,1.4-1.1,1.9
			c-0.4,0.5-0.9,1-1.4,1.3c-0.5,0.3-1,0.6-1.5,0.8c0.5,0.1,1.1,0.4,1.8,0.6c0.7,0.3,1.3,0.7,1.9,1.2c0.6,0.5,1.1,1.2,1.5,2
			C167,33.4,167.2,34.4,167.2,35.6z M159.8,22.6c0-1.4-0.5-2.3-1.4-2.8c-0.9-0.5-2.2-0.8-3.8-0.8c-0.6,0-1,0-1.3,0
			c-0.3,0-0.6,0.1-0.9,0.1v8h2.9c1.4,0,2.5-0.4,3.3-1.3C159.4,25.1,159.8,24,159.8,22.6z M154.8,39.8c1,0,1.9-0.1,2.6-0.2
			c0.8-0.1,1.4-0.3,2-0.7c0.5-0.3,1-0.8,1.3-1.3c0.3-0.6,0.4-1.3,0.4-2.2c0-1.6-0.5-2.7-1.6-3.3c-1-0.6-2.4-1-4-1h-3.2v8.7H154.8z"
			/>
		<path id="XMLID_168_" class="st0" d="M177.3,20h-9v0c-0.1-0.3-0.1-0.6-0.1-0.9c0-0.2,0-0.5,0-0.8c0-0.8,0.3-1.5,0.8-2.1
			c0.6-0.6,1.5-1,2.8-1h20.3c0.1,0.6,0.1,1.2,0.1,1.9c0,0.4-0.1,0.7-0.2,1.1c-0.1,0.4-0.3,0.7-0.6,0.9c-0.3,0.3-0.7,0.5-1.1,0.7
			c-0.4,0.2-1,0.3-1.7,0.3h-5.4V44h-6V20z"/>
		<path id="XMLID_165_" class="st0" d="M218.1,29.5c0,2.1-0.2,4-0.7,5.9c-0.5,1.9-1.3,3.5-2.3,4.9c-1.1,1.4-2.4,2.5-4.1,3.3
			c-1.7,0.8-3.7,1.2-6,1.2c-2.3,0-4.3-0.4-6-1.2c-1.6-0.8-3-1.9-4-3.3c-1-1.4-1.8-3-2.3-4.9c-0.5-1.8-0.7-3.8-0.7-5.8
			c0-2,0.3-3.9,0.8-5.7c0.5-1.8,1.3-3.4,2.4-4.8c1.1-1.4,2.5-2.4,4.1-3.3c1.7-0.8,3.7-1.2,6-1.2c2.3,0,4.2,0.4,5.8,1.2
			c1.6,0.8,3,1.8,4,3.2c1,1.3,1.8,2.9,2.3,4.7C217.9,25.5,218.1,27.4,218.1,29.5z M212.1,29.5c0-1.4-0.1-2.7-0.3-3.9
			c-0.2-1.2-0.6-2.3-1.2-3.3c-0.5-0.9-1.3-1.7-2.1-2.2c-0.9-0.5-1.9-0.8-3.2-0.8c-1.3,0-2.4,0.3-3.3,0.8c-0.9,0.5-1.6,1.3-2.2,2.2
			c-0.6,0.9-1,2-1.2,3.3c-0.2,1.2-0.4,2.5-0.4,3.9c0,1.4,0.1,2.7,0.4,4c0.2,1.3,0.6,2.4,1.2,3.4c0.5,1,1.3,1.8,2.2,2.3
			c0.9,0.6,2,0.9,3.3,0.9c1.3,0,2.4-0.3,3.3-0.9c0.9-0.6,1.6-1.3,2.1-2.3c0.5-1,0.9-2.1,1.2-3.4C211.9,32.3,212.1,30.9,212.1,29.5z"
			/>
		<path id="XMLID_163_" class="st0" d="M227.9,20h-9v0c-0.1-0.3-0.1-0.6-0.1-0.9c0-0.2,0-0.5,0-0.8c0-0.8,0.3-1.5,0.8-2.1
			c0.6-0.6,1.5-1,2.8-1h20.3c0.1,0.6,0.1,1.2,0.1,1.9c0,0.4-0.1,0.7-0.2,1.1c-0.1,0.4-0.3,0.7-0.6,0.9c-0.3,0.3-0.7,0.5-1.1,0.7
			c-0.4,0.2-1,0.3-1.7,0.3h-5.4V44h-6V20z"/>
		<path id="XMLID_160_" class="st0" d="M259.3,44l-2.5-7.1h-10l-2.4,7.1h-5.9l10-28.5c0.3-0.1,0.8-0.3,1.4-0.4
			c0.6-0.1,1.3-0.2,2-0.2c0.3,0,0.7,0,1.1,0.1s0.8,0.2,1.1,0.4c0.4,0.2,0.7,0.5,1.1,0.8c0.3,0.3,0.6,0.8,0.8,1.4l9.3,26.4H259.3z
			 M251.9,20.4L248,32.7h7.7L251.9,20.4z"/>
		<path id="XMLID_124_" class="st0" d="M268.6,15.2c0.3,0,0.5-0.1,0.8-0.1c0.2,0,0.5-0.1,0.7-0.1c0.2,0,0.4,0,0.6,0
			c0.4,0,0.8,0,1.3,0.1c0.4,0.1,0.9,0.2,1.3,0.5c0.4,0.2,0.7,0.6,1,1c0.3,0.4,0.4,1,0.4,1.7v20.9h8.4c0.7,0,1.3,0.1,1.7,0.3
			c0.5,0.2,0.8,0.4,1.1,0.7c0.3,0.3,0.4,0.6,0.5,1c0.1,0.4,0.2,0.7,0.2,1.1c0,0.3,0,0.6,0,1.1c0,0.4,0,0.6-0.1,0.6h-17.8V15.2z"/>
	</g>
</g>
</svg>
