<?xml version="1.0" encoding="utf-8"?>
<!-- Generator: Adobe Illustrator 19.0.0, SVG Export Plug-In . SVG Version: 6.00 Build 0)  -->
<svg version="1.1" id="hello" xmlns="http://www.w3.org/2000/svg" xmlns:xlink="http://www.w3.org/1999/xlink" x="0px" y="0px"
	 viewBox="0 0 334.3 334.3" style="enable-background:new 0 0 334.3 334.3;" xml:space="preserve">
<g id="XMLID_21_">
	<path id="XMLID_22_" d="M21.7,157.7c4.4-8.2,10.9-12.2,19.4-12.2c8.5,0,14.8,2.6,18.8,7.8c4,5.2,6,12.1,6,20.7v37.7H50.3V174
		c0-4.8-1.2-8.4-3.5-10.8c-2.3-2.4-5.5-3.7-9.7-3.7c-4.2,0-7.7,1.9-10.7,5.6c-3,3.7-4.5,9.3-4.7,16.7v29.9H6v-91.2h15.7V157.7z"/>
	<path id="XMLID_24_" d="M138.9,164.7c1.1,3.7,1.7,7.1,1.7,10.2c0,3.1-0.2,5.9-0.5,8.4H98.3c0.2,5.2,1.5,9.5,3.9,12.8
		c2.4,3.3,6,4.9,10.9,4.9c6.5,0,10.3-2.8,11.6-8.5h15.8c-1.1,6.5-4,11.6-8.9,15.3c-5.1,3.9-11.2,5.8-18.5,5.8
		c-8.5,0-15.6-3.1-21.4-9.3c-5.9-6.5-8.9-14.8-8.9-24.9c0-10.4,3-18.7,8.9-25c5.7-6,12.8-9,21.4-9c8.9,0,15.9,3.1,20.9,9.4
		C136.1,157.7,137.8,161,138.9,164.7z M113.2,158c-4.4,0-7.9,1.4-10.4,4.3c-2.5,2.9-3.9,6.6-4.4,11.1h27.5c0-7-2.2-11.7-6.6-14.1
		C117.6,158.4,115.6,158,113.2,158z"/>
	<path id="XMLID_27_" d="M159.3,120.6H175v91.2h-15.7V120.6z"/>
	<path id="XMLID_88_" d="M199.7,120.6h15.7v91.2h-15.7V120.6z"/>
	<path id="XMLID_90_" d="M265.5,145.5c4.3,0,8.4,0.7,12.2,2.1c3.8,1.4,7.1,3.5,9.8,6.3c6.1,6.2,9.2,14.8,9.2,25.8
		c0,10.8-3.1,19.3-9.2,25.5c-5.5,5.7-12.9,8.5-22.1,8.5c-9.2,0-16.7-2.8-22.3-8.5c-6.1-6.1-9.2-14.6-9.2-25.5
		c0-11.1,3.1-19.7,9.2-25.8C248.7,148.3,256.2,145.5,265.5,145.5z M281,179.5c0-6.8-1.3-11.9-4-15.4c-2.7-3.4-6.4-5.1-11.1-5.1
		s-8.6,1.7-11.6,5.1c-3,3.4-4.5,8.5-4.5,15.4c0,6.8,1.3,11.9,4.1,15.4c2.7,3.4,6.4,5.1,11.1,5.1c4.7,0,8.6-1.7,11.6-5.1
		C279.5,191.4,281,186.3,281,179.5z"/>
	<path id="XMLID_93_" d="M309.2,210.1c-2-1.9-3.1-4.4-3.1-7.4c0-3,1-5.5,3.1-7.6c2-2,4.7-3.1,7.8-3.1c3.2,0,5.8,1,8,3.1
		c2.1,2,3.2,4.6,3.2,7.6c0,3-1.1,5.5-3.2,7.4c-2.1,1.9-4.8,2.9-8,2.9C313.9,213,311.3,212,309.2,210.1z"/>
</g>
</svg>
