<?xml version="1.0" encoding="utf-8"?>
<!-- Generator: Adobe Illustrator 19.0.0, SVG Export Plug-In . SVG Version: 6.00 Build 0)  -->
  <svg id="Logo-Defs" version="1.2" baseProfile="tiny" xmlns="http://www.w3.org/2000/svg" x="0px" y="0px" xmlns:xlink="http://www.w3.org/1999/xlink"> 
    <defs>
    <g id="hello">
      <path id="XMLID_22_" d="M112.4,163.6c1.7-3.1,4.1-4.6,7.3-4.6c3.2,0,5.6,1,7.1,3c1.5,2,2.3,4.6,2.3,7.8v14.2h-5.9v-14.2
        c0-1.8-0.4-3.2-1.3-4.1c-0.9-0.9-2.1-1.4-3.6-1.4c-1.6,0-2.9,0.7-4,2.1c-1.1,1.4-1.7,3.5-1.8,6.3v11.2h-5.9v-34.3h5.9V163.6z"/>
      <path id="XMLID_24_" d="M156.5,166.2c0.4,1.4,0.6,2.7,0.6,3.9c0,1.2-0.1,2.2-0.2,3.1h-15.7c0.1,2,0.5,3.6,1.4,4.8
        c0.9,1.2,2.3,1.9,4.1,1.9c2.4,0,3.9-1.1,4.4-3.2h5.9c-0.4,2.4-1.5,4.4-3.3,5.8c-1.9,1.5-4.2,2.2-7,2.2c-3.2,0-5.9-1.2-8-3.5
        c-2.2-2.4-3.4-5.6-3.4-9.4c0-3.9,1.1-7,3.4-9.4c2.1-2.3,4.8-3.4,8-3.4c3.4,0,6,1.2,7.9,3.6C155.5,163.6,156.1,164.8,156.5,166.2z
         M146.8,163.7c-1.7,0-3,0.5-3.9,1.6c-0.9,1.1-1.5,2.5-1.6,4.2h10.4c0-2.6-0.8-4.4-2.5-5.3C148.5,163.9,147.7,163.7,146.8,163.7z"
        />
      <path id="XMLID_27_" d="M164.2,149.6h5.9v34.3h-5.9V149.6z"/>
      <path id="XMLID_88_" d="M179.4,149.6h5.9v34.3h-5.9V149.6z"/>
      <path id="XMLID_90_" d="M204.1,159c1.6,0,3.2,0.3,4.6,0.8c1.4,0.5,2.7,1.3,3.7,2.4c2.3,2.3,3.5,5.6,3.5,9.7c0,4.1-1.2,7.3-3.5,9.6
        c-2.1,2.1-4.8,3.2-8.3,3.2c-3.5,0-6.3-1.1-8.4-3.2c-2.3-2.3-3.5-5.5-3.5-9.6c0-4.2,1.2-7.4,3.5-9.7C197.8,160,200.6,159,204.1,159
        z M210,171.8c0-2.6-0.5-4.5-1.5-5.8s-2.4-1.9-4.2-1.9s-3.2,0.6-4.4,1.9c-1.1,1.3-1.7,3.2-1.7,5.8c0,2.6,0.5,4.5,1.5,5.8
        c1,1.3,2.4,1.9,4.2,1.9c1.8,0,3.2-0.6,4.3-1.9C209.4,176.3,210,174.4,210,171.8z"/>
      <path id="XMLID_93_" d="M220.6,183.3c-0.8-0.7-1.1-1.7-1.1-2.8c0-1.1,0.4-2.1,1.1-2.8c0.8-0.8,1.8-1.2,3-1.2s2.2,0.4,3,1.2
        c0.8,0.8,1.2,1.7,1.2,2.8c0,1.1-0.4,2.1-1.2,2.8s-1.8,1.1-3,1.1S221.4,184,220.6,183.3z"/>
      </g>
    </defs>
    </svg>
    <svg id="Logo" class="Animate-Path" width="100%" height="100%" viewBox="0 0 612 792" xml:space="preserve">
      <use id="Draw-Hello" class="Animate-Draw" xlink:href="#hello" />
      <!--<use class="Animate-Fill" xlink:href="#Logo-Group" /> -->
    </svg> 
