<?xml version="1.0" encoding="utf-8"?>
<!-- Generator: Adobe Illustrator 19.0.0, SVG Export Plug-In . SVG Version: 6.00 Build 0)  -->
<svg version="1.1" xmlns="http://www.w3.org/2000/svg" xmlns:xlink="http://www.w3.org/1999/xlink" x="0px" y="0px"
	 viewBox="0 0 515 225" style="enable-background:new 0 0 515 225;" xml:space="preserve">
<g id="portfolio">
	<g id="XMLID_4_">
		<path id="XMLID_80_" d="M9.5,171.1c0.6-1.1,1.6-1.6,2.9-1.6c1.2,0,2.3,0.5,3.2,1.4c0.9,1,1.4,2.3,1.4,3.9c0,1.6-0.5,2.9-1.4,3.9
			c-0.9,0.9-1.9,1.4-3.2,1.4c-1.2,0-2.1-0.4-2.7-1.1v5.7H7.3v-15h2L9.5,171.1z M12,177.9c0.3,0,0.6-0.1,0.9-0.2
			c0.3-0.1,0.6-0.3,0.8-0.6c0.6-0.6,0.8-1.4,0.8-2.3c0-1-0.2-1.7-0.7-2.3c-0.5-0.6-1.1-0.8-1.7-0.8s-1.2,0.2-1.7,0.6
			c-0.4,0.4-0.7,1-0.7,1.7v1.8c0,0.7,0.2,1.2,0.7,1.6C10.8,177.7,11.3,177.9,12,177.9z"/>
		<path id="XMLID_83_" d="M23.9,169.5c0.7,0,1.3,0.1,1.9,0.3c0.6,0.2,1.1,0.5,1.5,1c1,1,1.4,2.3,1.4,4c0,1.7-0.5,3-1.4,4
			c-0.9,0.9-2,1.3-3.4,1.3c-1.4,0-2.6-0.4-3.5-1.3c-1-1-1.4-2.3-1.4-4c0-1.7,0.5-3.1,1.4-4C21.3,169.9,22.4,169.5,23.9,169.5z
			 M26.3,174.8c0-1.1-0.2-1.9-0.6-2.4c-0.4-0.5-1-0.8-1.7-0.8c-0.7,0-1.3,0.3-1.8,0.8c-0.5,0.5-0.7,1.3-0.7,2.4
			c0,1.1,0.2,1.9,0.6,2.4c0.4,0.5,1,0.8,1.7,0.8c0.7,0,1.3-0.3,1.8-0.8C26.1,176.6,26.3,175.8,26.3,174.8z"/>
		<path id="XMLID_86_" d="M34.1,171.7c0.6-1.5,1.5-2.2,2.7-2.2c0.2,0,0.5,0,0.9,0.1l0,2.4c-0.4-0.1-0.8-0.1-1.1-0.1
			c-1.6,0-2.4,1.1-2.4,3.4v4.4h-2.4v-10.1h2.4V171.7z"/>
		<path id="XMLID_88_" d="M46,179.6c-0.9,0.4-1.6,0.5-2.2,0.5c-0.5,0-1-0.1-1.4-0.2c-0.4-0.1-0.7-0.3-1-0.6c-0.6-0.6-1-1.3-1-2.3
			v-5.6H39v-1.6h1.4v-2.7h2.4v2.7h2.7v1.6h-2.7v5.6c0,0.8,0.4,1.2,1.2,1.2c0.4,0,0.9-0.1,1.6-0.3L46,179.6z"/>
		<path id="XMLID_90_" d="M47.4,169.7h1.5v-1.2c0-1,0.3-1.8,0.9-2.4c0.6-0.5,1.3-0.7,2.2-0.7c0.6,0,1.3,0.1,2.1,0.2l-0.5,1.9
			c-0.4-0.1-0.7-0.2-1-0.2c-0.3,0-0.6,0.1-0.8,0.3c-0.2,0.2-0.4,0.5-0.4,1v1.2h1.8v1.6h-1.8v8.4h-2.5v-8.4h-1.5V169.7z"/>
		<path id="XMLID_92_" d="M60,169.5c0.7,0,1.3,0.1,1.9,0.3c0.6,0.2,1.1,0.5,1.5,1c1,1,1.4,2.3,1.4,4c0,1.7-0.5,3-1.4,4
			c-0.9,0.9-2,1.3-3.4,1.3c-1.4,0-2.6-0.4-3.5-1.3c-1-1-1.4-2.3-1.4-4c0-1.7,0.5-3.1,1.4-4C57.4,169.9,58.6,169.5,60,169.5z
			 M62.5,174.8c0-1.1-0.2-1.9-0.6-2.4c-0.4-0.5-1-0.8-1.7-0.8s-1.3,0.3-1.8,0.8c-0.5,0.5-0.7,1.3-0.7,2.4c0,1.1,0.2,1.9,0.6,2.4
			c0.4,0.5,1,0.8,1.7,0.8c0.7,0,1.3-0.3,1.8-0.8C62.2,176.6,62.5,175.8,62.5,174.8z"/>
		<path id="XMLID_95_" d="M67.8,165.6h2.4v14.2h-2.4V165.6z"/>
		<path id="XMLID_97_" d="M74,166.5c0-0.4,0.1-0.8,0.4-1c0.3-0.3,0.6-0.4,1.1-0.4c0.5,0,0.8,0.1,1.1,0.4c0.3,0.3,0.4,0.6,0.4,1
			c0,0.4-0.1,0.8-0.4,1c-0.3,0.3-0.6,0.4-1.1,0.4c-0.5,0-0.9-0.1-1.1-0.4C74.2,167.3,74,166.9,74,166.5z M74.3,169.7h2.4v10.1h-2.4
			V169.7z"/>
		<path id="XMLID_100_" d="M84.9,169.5c0.7,0,1.3,0.1,1.9,0.3c0.6,0.2,1.1,0.5,1.5,1c1,1,1.4,2.3,1.4,4c0,1.7-0.5,3-1.4,4
			c-0.9,0.9-2,1.3-3.4,1.3c-1.4,0-2.6-0.4-3.5-1.3c-1-1-1.4-2.3-1.4-4c0-1.7,0.5-3.1,1.4-4C82.3,169.9,83.4,169.5,84.9,169.5z
			 M87.3,174.8c0-1.1-0.2-1.9-0.6-2.4c-0.4-0.5-1-0.8-1.7-0.8c-0.7,0-1.3,0.3-1.8,0.8c-0.5,0.5-0.7,1.3-0.7,2.4
			c0,1.1,0.2,1.9,0.6,2.4c0.4,0.5,1,0.8,1.7,0.8s1.3-0.3,1.8-0.8C87.1,176.6,87.3,175.8,87.3,174.8z"/>
	</g>
</g>
<g id="selena">
	<path id="XMLID_176_" d="M16.6,123.7c0.1,4.1,3.1,6.1,9,6.1c2.3,0,4.1-0.5,5.6-1.5c1.5-1,2.2-2.1,2.2-3.4c0-1.3-0.4-2.3-1.3-3
		c-0.9-0.7-2.3-1.4-4.2-2l-9.4-3.4c-7-2.4-10.5-6.4-10.5-11.9c0-3.7,1.6-6.6,4.9-8.8c3.3-2.2,7.7-3.3,13.2-3.3
		c5.5,0,9.8,1.2,12.8,3.6c3,2.4,4.5,5.5,4.7,9.2h-9.9c-0.1-1.4-0.8-2.5-2-3.4c-1.2-0.8-3-1.2-5.3-1.2s-4.1,0.5-5.4,1.4
		c-1.3,0.9-1.9,2-1.9,3.2c0,2.1,1.7,3.6,5.2,4.6l10.2,3.8c3.4,1.1,6,2.6,7.8,4.3c1.8,1.7,2.7,4,2.7,6.8c0,3.6-1.7,6.6-5.1,9.2
		c-3.5,2.7-8.1,4.1-13.9,4.1c-5.8,0-10.4-1.3-13.9-3.8c-3.5-2.5-5.3-6.1-5.3-10.6H16.6z"/>
	<path id="XMLID_173_" d="M91,105.4c0.7,2.5,1.1,4.8,1.1,6.8c0,2.1-0.1,3.9-0.4,5.6H63.9c0.1,3.5,1,6.3,2.6,8.5
		c1.6,2.2,4,3.3,7.3,3.3c4.3,0,6.9-1.9,7.7-5.7h10.6c-0.7,4.3-2.7,7.7-6,10.2c-3.4,2.6-7.5,3.9-12.4,3.9c-5.7,0-10.5-2.1-14.3-6.2
		c-4-4.3-6-9.9-6-16.6c0-6.9,2-12.5,6-16.7c3.8-4,8.6-6,14.3-6c6,0,10.6,2.1,14,6.3C89.2,100.8,90.3,102.9,91,105.4z M73.8,100.9
		c-3,0-5.3,1-6.9,2.9c-1.7,1.9-2.6,4.4-2.9,7.4h18.4c0-4.7-1.5-7.8-4.4-9.4C76.8,101.2,75.4,100.9,73.8,100.9z"/>
	<path id="XMLID_171_" d="M104.7,77.2h10.5v61h-10.5V77.2z"/>
	<path id="XMLID_168_" d="M165.2,105.4c0.7,2.5,1.1,4.8,1.1,6.8c0,2.1-0.1,3.9-0.4,5.6H138c0.1,3.5,1,6.3,2.6,8.5
		c1.6,2.2,4,3.3,7.3,3.3c4.3,0,6.9-1.9,7.7-5.7h10.6c-0.7,4.3-2.7,7.7-6,10.2c-3.4,2.6-7.5,3.9-12.4,3.9c-5.7,0-10.5-2.1-14.3-6.2
		c-4-4.3-6-9.9-6-16.6c0-6.9,2-12.5,6-16.7c3.8-4,8.6-6,14.3-6c6,0,10.6,2.1,14,6.3C163.3,100.8,164.4,102.9,165.2,105.4z
		 M148,100.9c-3,0-5.3,1-6.9,2.9c-1.7,1.9-2.6,4.4-2.9,7.4h18.4c0-4.7-1.5-7.8-4.4-9.4C150.9,101.2,149.6,100.9,148,100.9z"/>
	<path id="XMLID_166_" d="M189.1,102.4c2.8-5.7,7.4-8.6,13.7-8.6c5.3,0,9.4,1.7,12,5.2c2.7,3.5,4,8.1,4,13.9v25.3h-10.5v-25.3
		c0-3.2-0.8-5.6-2.3-7.2c-1.5-1.6-3.7-2.4-6.5-2.4c-2.8,0-5.2,1.2-7.2,3.7c-2,2.5-3,6.2-3.2,11.2v20h-10.5V94.9h9.2L189.1,102.4z"/>
	<path id="XMLID_148_" d="M248.5,111.7c3.4,0,7.4,0.6,11.9,1.7v-4.3c0-3-0.6-5.3-1.8-6.7c-1.2-1.5-3.2-2.2-6-2.2
		c-2.8,0-4.9,0.5-6.4,1.6c-1.5,1.1-2.2,2.7-2.2,4.7h-11.5c0-4.9,1.7-8.5,5.2-10.7c3.5-2.2,8.3-3.3,14.5-3.3c8.9,0,14.6,3.1,17.3,9.3
		c0.9,2.1,1.3,4.7,1.3,7.6v27.5h-9.2l-0.8-5.8c-2.8,4.7-7.1,7-12.8,7c-5.6,0-9.9-1.4-13-4.1c-2.8-2.6-4.3-5.9-4.3-9.9
		c0-4,1.6-7.1,4.7-9.2C238.7,112.7,243,111.7,248.5,111.7z M260.4,120c-3.5-0.9-6.8-1.4-9.8-1.4c-5.7,0-8.5,1.9-8.5,5.7
		c0,1.6,0.7,3,2,4.1c1.3,1.2,3.4,1.7,6.3,1.7c2.9,0,5.2-1,7.1-2.9C259.3,125.3,260.2,122.9,260.4,120z"/>
</g>
<g id="zhen">
	<path id="XMLID_13_" d="M318.4,129.6l22.4-26.1h-22.4v-8.5h34v8.5l-21.7,26.1h21.7v8.5h-34V129.6z"/>
	<path id="XMLID_11_" d="M376.1,102c3-5.5,7.3-8.2,13-8.2s9.9,1.7,12.6,5.2c2.7,3.5,4,8.1,4,13.9v25.3h-10.5v-25.3
		c0-3.2-0.8-5.6-2.3-7.2c-1.5-1.6-3.7-2.4-6.5-2.4c-2.8,0-5.2,1.2-7.2,3.7c-2,2.5-3,6.2-3.2,11.2v20h-10.5v-61h10.5V102z"/>
	<path id="XMLID_8_" d="M454.5,105.4c0.7,2.5,1.1,4.8,1.1,6.8c0,2.1-0.1,3.9-0.4,5.6h-27.9c0.1,3.5,1,6.3,2.6,8.5
		c1.6,2.2,4,3.3,7.3,3.3c4.3,0,6.9-1.9,7.7-5.7h10.6c-0.7,4.3-2.7,7.7-6,10.2c-3.4,2.6-7.5,3.9-12.4,3.9c-5.7,0-10.5-2.1-14.3-6.2
		c-4-4.3-6-9.9-6-16.6c0-6.9,2-12.5,6-16.7c3.8-4,8.6-6,14.3-6c6,0,10.6,2.1,14,6.3C452.6,100.8,453.7,102.9,454.5,105.4z
		 M437.3,100.9c-3,0-5.3,1-6.9,2.9c-1.7,1.9-2.6,4.4-2.9,7.4h18.4c0-4.7-1.5-7.8-4.4-9.4C440.2,101.2,438.9,100.9,437.3,100.9z"/>
	<path id="XMLID_6_" d="M478.4,102.4c2.8-5.7,7.4-8.6,13.7-8.6c5.3,0,9.4,1.7,12,5.2c2.7,3.5,4,8.1,4,13.9v25.3h-10.5v-25.3
		c0-3.2-0.8-5.6-2.3-7.2c-1.5-1.6-3.7-2.4-6.5-2.4c-2.8,0-5.2,1.2-7.2,3.7c-2,2.5-3,6.2-3.2,11.2v20h-10.5V94.9h9.2L478.4,102.4z"/>
</g>
</svg>
