<?xml version="1.0" encoding="utf-8"?>
<!-- Generator: Adobe Illustrator 19.0.0, SVG Export Plug-In . SVG Version: 6.00 Build 0)  -->
<svg version="1.1" xmlns="http://www.w3.org/2000/svg" xmlns:xlink="http://www.w3.org/1999/xlink" x="0px" y="0px"
	 viewBox="0 0 334.3 334.3" style="enable-background:new 0 0 334.3 334.3;" xml:space="preserve">
<g id="selena">
	<g id="XMLID_4_">
		<path id="XMLID_5_" d="M35.3,176.5c0.1,2.3,1.8,3.4,5,3.4c1.3,0,2.3-0.3,3.1-0.8c0.8-0.6,1.2-1.2,1.2-1.9c0-0.7-0.2-1.3-0.8-1.7
			s-1.3-0.8-2.4-1.1l-5.3-1.9c-3.9-1.4-5.9-3.6-5.9-6.7c0-2.1,0.9-3.7,2.8-5c1.8-1.2,4.3-1.9,7.4-1.9c3.1,0,5.5,0.7,7.2,2.1
			c1.7,1.4,2.6,3.1,2.6,5.1h-5.6c-0.1-0.8-0.4-1.4-1.1-1.9c-0.7-0.5-1.7-0.7-3-0.7c-1.3,0-2.3,0.3-3,0.8c-0.7,0.5-1.1,1.1-1.1,1.8
			c0,1.2,1,2,3,2.6l5.8,2.2c1.9,0.6,3.4,1.4,4.4,2.4c1,1,1.5,2.3,1.5,3.8c0,2-0.9,3.7-2.9,5.2c-2,1.5-4.6,2.3-7.8,2.3
			c-3.2,0-5.8-0.7-7.8-2.1c-2-1.4-3-3.4-3-6H35.3z"/>
		<path id="XMLID_7_" d="M77.2,166.2c0.4,1.4,0.6,2.7,0.6,3.9c0,1.2-0.1,2.2-0.2,3.1H61.9c0.1,2,0.5,3.6,1.4,4.8
			c0.9,1.2,2.3,1.9,4.1,1.9c2.4,0,3.9-1.1,4.4-3.2h5.9c-0.4,2.4-1.5,4.4-3.3,5.8c-1.9,1.5-4.2,2.2-7,2.2c-3.2,0-5.9-1.2-8-3.5
			c-2.2-2.4-3.4-5.6-3.4-9.4c0-3.9,1.1-7,3.4-9.4c2.1-2.3,4.8-3.4,8-3.4c3.4,0,6,1.2,7.9,3.6C76.1,163.6,76.7,164.8,77.2,166.2z
			 M67.5,163.7c-1.7,0-3,0.5-3.9,1.6c-0.9,1.1-1.5,2.5-1.6,4.2h10.4c0-2.6-0.8-4.4-2.5-5.3C69.2,163.9,68.4,163.7,67.5,163.7z"/>
		<path id="XMLID_10_" d="M84.8,149.6h5.9v34.3h-5.9V149.6z"/>
		<path id="XMLID_12_" d="M118.9,166.2c0.4,1.4,0.6,2.7,0.6,3.9c0,1.2-0.1,2.2-0.2,3.1h-15.7c0.1,2,0.5,3.6,1.4,4.8
			c0.9,1.2,2.3,1.9,4.1,1.9c2.4,0,3.9-1.1,4.4-3.2h5.9c-0.4,2.4-1.5,4.4-3.3,5.8c-1.9,1.5-4.2,2.2-7,2.2c-3.2,0-5.9-1.2-8-3.5
			c-2.2-2.4-3.4-5.6-3.4-9.4c0-3.9,1.1-7,3.4-9.4c2.1-2.3,4.8-3.4,8-3.4c3.4,0,6,1.2,7.9,3.6C117.8,163.6,118.4,164.8,118.9,166.2z
			 M109.2,163.7c-1.7,0-3,0.5-3.9,1.6c-0.9,1.1-1.5,2.5-1.6,4.2H114c0-2.6-0.8-4.4-2.5-5.3C110.9,163.9,110.1,163.7,109.2,163.7z"/>
		<path id="XMLID_15_" d="M132.3,163.8c1.6-3.2,4.2-4.9,7.7-4.9c3,0,5.3,1,6.8,3c1.5,2,2.3,4.6,2.3,7.8v14.2h-5.9v-14.2
			c0-1.8-0.4-3.2-1.3-4.1c-0.9-0.9-2.1-1.4-3.6-1.4c-1.6,0-2.9,0.7-4,2.1c-1.1,1.4-1.7,3.5-1.8,6.3v11.2h-5.9v-24.3h5.1L132.3,163.8
			z"/>
		<path id="XMLID_17_" d="M165.7,169.7c1.9,0,4.2,0.3,6.7,1v-2.4c0-1.7-0.3-3-1-3.8c-0.7-0.8-1.8-1.2-3.4-1.2
			c-1.5,0-2.7,0.3-3.6,0.9c-0.8,0.6-1.3,1.5-1.3,2.6h-6.4c0-2.8,1-4.8,2.9-6c2-1.2,4.7-1.9,8.2-1.9c5,0,8.2,1.8,9.7,5.2
			c0.5,1.2,0.8,2.6,0.8,4.2v15.5h-5.2l-0.4-3.2c-1.6,2.6-4,4-7.2,4c-3.1,0-5.6-0.8-7.3-2.3c-1.6-1.5-2.4-3.3-2.4-5.6s0.9-4,2.6-5.2
			C160.2,170.3,162.6,169.7,165.7,169.7z M172.4,174.4c-2-0.5-3.8-0.8-5.5-0.8c-3.2,0-4.8,1.1-4.8,3.2c0,0.9,0.4,1.7,1.1,2.3
			c0.7,0.6,1.9,1,3.5,1c1.6,0,3-0.5,4-1.6C171.8,177.4,172.3,176.1,172.4,174.4z"/>
	</g>
</g>
<g id="zhen">
	<path id="XMLID_20_" d="M197.7,179.1l12.6-14.7h-12.6v-4.8h19.1v4.8l-12.2,14.7h12.2v4.8h-19.1V179.1z"/>
	<path id="XMLID_22_" d="M230.2,163.6c1.7-3.1,4.1-4.6,7.3-4.6c3.2,0,5.6,1,7.1,3c1.5,2,2.3,4.6,2.3,7.8v14.2h-5.9v-14.2
		c0-1.8-0.4-3.2-1.3-4.1c-0.9-0.9-2.1-1.4-3.7-1.4s-2.9,0.7-4,2.1c-1.1,1.4-1.7,3.5-1.8,6.3v11.2h-5.9v-34.3h5.9V163.6z"/>
	<path id="XMLID_24_" d="M274.3,166.2c0.4,1.4,0.6,2.7,0.6,3.9c0,1.2-0.1,2.2-0.2,3.1H259c0.1,2,0.5,3.6,1.5,4.8
		c0.9,1.2,2.3,1.9,4.1,1.9c2.4,0,3.9-1.1,4.3-3.2h6c-0.4,2.4-1.5,4.4-3.3,5.8c-1.9,1.5-4.2,2.2-7,2.2c-3.2,0-5.9-1.2-8-3.5
		c-2.2-2.4-3.4-5.6-3.4-9.4c0-3.9,1.1-7,3.4-9.4c2.1-2.3,4.8-3.4,8-3.4c3.4,0,6,1.2,7.8,3.6C273.2,163.6,273.8,164.8,274.3,166.2z
		 M264.6,163.7c-1.7,0-3,0.5-3.9,1.6c-0.9,1.1-1.5,2.5-1.7,4.2h10.3c0-2.6-0.8-4.4-2.5-5.3C266.3,163.9,265.5,163.7,264.6,163.7z"/>
	<path id="XMLID_27_" d="M287.7,163.8c1.6-3.2,4.2-4.9,7.7-4.9c3,0,5.3,1,6.8,3c1.5,2,2.3,4.6,2.3,7.8v14.2h-5.9v-14.2
		c0-1.8-0.4-3.2-1.3-4.1c-0.9-0.9-2.1-1.4-3.7-1.4s-2.9,0.7-4,2.1c-1.1,1.4-1.7,3.5-1.8,6.3v11.2h-5.9v-24.3h5.1L287.7,163.8z"/>
</g>
</svg>
<svg id="Logo" class="Animate-Path" width="100%" height="100%" viewBox="0 0 612 792" xml:space="preserve">
  <use id="Draw-Zhen" class="Animate-Draw" xlink:href="#zhen" />
  <use id="Draw-Selena" class="Animate-Draw" xlink:href="#selena" />
  <!--<use class="Animate-Fill" xlink:href="#Logo-Group" /> -->
</svg> 
