<?xml version="1.0" encoding="utf-8"?>
<!-- Generator: Adobe Illustrator 19.0.0, SVG Export Plug-In . SVG Version: 6.00 Build 0)  -->
<svg version="1.0" xmlns="http://www.w3.org/2000/svg" xmlns:xlink="http://www.w3.org/1999/xlink" x="0px" y="0px"
	 viewBox="0 0 645.8 395.6" style="enable-background:new 0 0 645.8 395.6;" xml:space="preserve">
<style type="text/css">
	.st0{opacity:0.75;fill:#3A3A3A;}
	.st1{fill:#3A3A3A;}
</style>
<g id="mountains">
	<path id="XMLID_476_" class="st0" d="M607.6,337.4c-30.3-1.7-47.3,3.8-52.8,3c-8.1-1.2-16.6-2.3-16.6-2.3c-4.9,0.8-5.9,3-10.4,3.6
		c-5.7,0.9-6.2-2.2-12-2.1c-8.9,0.2-11.2,2.8-17.1,2.8c-2.5,0-2-0.4-4.7-2.3c-3.4-2.3-6.4-0.8-12.5-1c-1.1,0-7.2-0.3-13.5-3.1
		c-6.3-2.8-7-5.5-12.5-6.8c-3.2-0.7-4.2-0.1-8.8,0c-10.1,0.2-11.8-2.5-25-3.6c-6.4-0.5-6.1,0.1-12-0.5c-8.4-0.9-13.3-2.7-17.2-3.6
		c-21.5-5.3-41.3,0.1-51,0c-3.2,0-10.6-7-13.6-8.4c-9.7-4.7-9.7,1.8-17.2-0.9c-4.2-1.5-4-2.6-7.3-4.2c-5.5-2.6-13.9-4-33.8,2.6
		c-25.4,8.5-35.5,10.2-50.5,15.6c-1.3,0.5-3-0.7-6.2-1.6c-12.6-3.3-19.1-6.1-26-8.3c-4.9-1.5-15.4-4.9-26.5-5.2
		c-11.4-0.3-18.2,2.7-30.7,6.8c-19.2,6.2-35.2,16.9-53.1,12.5c-5.6-1.4-33-3.7-46.8,4.2c-6,3.4-29.8,8-29.8,8c0,1.8,0,3.7,0,5.7
		c0.1,3.2,0,4,0,4.2c-0.1,1.2,0,5.9,0,5.9c52.8,5.6,612-1.8,646-0.5c0,0,0.1-12.8,0-14.6C645.6,339.5,611,337.6,607.6,337.4z"/>
</g>
<g id="bridge">
	<g id="Q1HkEY.tif_2_">
		<g id="XMLID_199_">
			<path id="XMLID_200_" class="st1" d="M-0.9,129.9c4.6-0.9,9.1-1.7,13.7-2.6c19.7-3.6,39.2-8.4,58.4-14
				c28.6-8.3,56.5-18.7,83.5-31.2c20.8-9.6,41-20.5,60.4-32.8c1-0.7,1.8-1.2,1.5-2.7c-0.2-0.9,0.6-1.7,1.6-1.6c1,0,1.5,0.7,1.5,1.7
				c0,0.6-0.1,1.1-0.2,1.7c-0.5,3.1,0.8,4,3.8,4.8c3.9,1,7.4-0.1,11.4-0.4c-0.5-0.7-0.9-1-1.2-1.5c-0.6-1.2-0.4-2.2,0.7-3
				c1-0.7,2-0.5,2.9,0.3c0.2,0.1,0.2,0.4,0.4,0.5c0.9,0.9,1,2.8,2.3,2.9c2,0,4.2-0.1,6.1-1.2c2.5-1.4,4.8-3.1,7.1-4.9
				c1-0.8,1.1-1.6,0.6-2.7c-0.5-1-0.4-1.9,0.5-2.6c0.6-0.5,1.5-0.6,2.2-0.1c1,0.7,1.1,1.6,0.7,2.7c-0.6,1.5-0.3,3,0.6,4.3
				c1.6,2.3,2.2,4.8,2.1,7.5c0,1.9,0.4,3.7,1.1,5.5c11.5,31.5,23.9,62.6,37.3,93.3c5.1,11.7,10.2,23.3,15.6,34.8
				c13.9,29.9,28.5,59.5,46.3,87.4c5.7,9,11.9,17.6,19.7,25c0.8,0.8,1.6,1.4,2.8,1.1c0.8-0.2,1.7,0.2,1.7,1.2c0,1.7,1.2,2.1,2.7,2.7
				c-0.5-1-0.5-1.9,0.7-1.7c1.3,0.2,2-0.5,2.7-1.3c4.5-4.7,7.8-10.3,10.9-16c4.4-8,8-16.4,11.3-24.9c0.5-1.4,0.1-3,1.4-4.3
				c0.9,0.9,0.3,2.7,2.1,3c1.2,0.2,2.4-0.1,3.6-0.1c0.8,0,1.5,0,2.3,0c2-0.2,3.9-0.4,4.4-2.7c0.1-0.3,0.2-0.6,0.5-0.5
				c0.2,0.1,0.6,0.3,0.6,0.5c0,1.6,1.3,2.9,1.2,4.6c-0.4,9.7,2.2,19.1,3.9,28.5c2.6,14.4,5.3,28.8,8.6,43.1c0.2,0.7,0.8,1.7-0.6,2.2
				c-0.3,0.1-0.1,0.6,0,0.9c0.2,0.4,0.6,0.7,0.6,1.1c2,1.2,4,3,4.8,4.3c0.8,1.2,1.8,0.9,1.2,2.2c-0.2,0.3-8.3-3.7-9-4.1
				c-2-1.1-4-2.2-6.1-3.3c-1.1-0.6-1.8-0.5-1.7,1c0.2,6.2-0.4,12.5,1,18.7c0.4,1.8,1.1,3.5,0.9,5.4c-0.1,1,0.9,1.2,1.7,1.2
				c1.8,0,3.6,0,5.4,0.1c0.8,0,1.7,0,1.7,1.2c0,1.1-1,1.1-1.8,1.1c-6.2,0-12.4,0.1-18.6,0c-6,0-11.9-0.2-17.9-0.3
				c-0.7,0-1.8,0.4-1.9-0.8c-0.1-1.3,1-1.1,1.9-1.2c2.2,0,4.3,0,6.5,0c0.8,0,1.9-0.1,1.8-1.1c-0.3-2,1-3.6,1.3-5.5
				c1.2-6.7,0.3-13.5,0.7-20.2c0.1-1.6-1-2.8-2.6-3.6c-17.6-8.4-35.8-15.4-54.2-21.7c-29.6-10-59.8-17.6-90.5-23.1
				c-2.4-0.4-2.7-0.2-2.7,2.1c0,16.5,0,32.9,0,49.4c0,0.6-0.1,1.5,0.3,1.9c2,1.8,1.7,4.1,1.9,6.4c0.1,1.5,0.3,2.5,1.8,3.5
				c1.5,0.9,1.1,3.3,1.1,5c0.1,2.6-0.1,6.5-0.4,9c0.3,2.5,0,1.6,1.9,1.7c3,0,6.7,0,9.7,0.1c7.3,0.2,14.5,0.3,21.8,0.5
				c1,0,2.5-0.4,2.9,0.8c0.6,1.5,0.4,3.3,0,4.9c-0.3,1-1.4,0.6-2.1,0.6c-8,0-16,0-23.9,0c-10.4,0-20.7,0.1-31.1-0.1
				c-23.9-0.5-47.7-0.1-71.6-0.4c-2.2,0-2.7-0.8-2.7-2.8c-0.1-2.1,0.5-3,2.7-3c9.1,0.1,18.3-0.1,27.4,0c1.8,0,2.7-0.1,2.7-0.8
				c0.2-2.6,0.3-7,0.4-9.6c0.1-1.5,0.5-2.7,2.3-2.8c1.1-0.1,1.5-0.8,1.5-2c-0.1-1.6,0-3.2-0.2-4.7c-0.2-2-0.4-3.8,1.4-5.3
				c0.8-0.7,0.5-1.9,0.6-2.9c0.5-9.5,0.1-19,0.5-28.5c0.4-10.2-0.1-20.4,0.6-30.6c0.1-1.3,0.3-2.6-1.4-3.2c-0.2-0.1-0.5-0.6-0.5-0.9
				c-0.1-1.6-1.3-1.9-2.5-2.2c-8.3-1.8-16.6-3.6-24.8-5.5c-22.7-5.1-45.4-10.1-68.1-15.2c-36.8-8.2-73.6-16.4-110.4-24.6
				c-1.9-0.4-3.7-1-5.6-1.4c0-16.7,0-33.4,0-50.1c0.8,0.2,1.7,0.4,2.5,0.7c1.6,0.6,2.2,0.3,2.2-1.5c0-1.9,0.4-3.9,0.3-5.8
				c-0.1-2.5,1-5.2-0.9-7.4c-0.3-0.4-0.1-0.9,0.3-1.1c1.2-0.6,1-1.7,1.1-2.8c0.2-6,0.4-12,0.6-18.1c0-0.7,0.6-1.9-0.4-2
				c-1.1-0.1-2.8-0.3-3.2,1.1c-0.5,1.9-1.4,3.6-1.7,5.5c-0.4,2.5,0.2,5.2-0.8,7.6c0-5.2,0-10.4,0-15.5c1.2-0.2,2.4-0.4,3.6-0.7
				c2.8-0.5,3.3-1.4,2.5-4.2c-0.5-2-1.4-2.9-3.6-2.3c-0.8,0.2-1.7,0.5-2.5,0.3C-0.9,130.7-0.9,130.8-0.9,129.9z M78,199.5
				c-0.8-0.8-0.5-1.7-0.5-2.5c0.6-7.2,0.3-14.5,0.7-21.8c0.4-8.5,0.4-17,0.6-25.4c0-1.2,0.2-2.4,0.2-3.7c0.2-7,0.3-13.9,0.5-20.9
				c0-1.4-0.5-1.8-1.8-1.3c-1.7,0.5-3.5,0.9-5.2,1.4c-3,0.8-4.7,2.9-4.8,6.1c-0.3,8.5-0.6,16.9-0.8,25.4
				c-0.3,12.6-0.6,25.1-0.9,37.7c-0.1,5.1-0.5,3.8,4.1,5.5c1.4,0.5,1.7-0.1,1.7-1.4c-0.1-2.7-0.1-5.5,0-8.2c0.1-2.1,0.1-3.8-2.7-3.4
				c-0.5,0.1-1-0.2-1.2-0.8c-0.1-0.5,0.2-0.8,0.6-1c2.4-1.3,5.1,0.1,5.2,2.9c0,3.8,0,7.6,0,11.4c0,1.1,0.2,1.7,1.4,2
				c2.3,0.6,4.6,1.3,6.8,2.1c1.4,0.5,1.6-0.1,1.7-1.3c0.3-8.5,0.6-17.1,0.8-25.6c0.2-8.8,0.2-17.5,0.7-26.3c0.3-6.1,0-12.2,0.6-18.3
				c0.2-2.3,0.2-4.8,0-7.1c-0.1-1-0.2-2.7-1.9-2.6c-1.6,0.2-3,0.5-3,2.8c-0.3,11.9-0.8,23.8-1.1,35.8c-0.3,8.8-0.3,17.7-0.6,26.5
				c-0.1,3.4-0.3,6.7-0.3,10.1C78.6,198.2,78.7,198.9,78,199.5z M146.1,129.2c0-8.3,0-16.5,0-24.8c0-1.7-0.5-2.2-2.1-1.5
				c-2.1,0.9-4.2,1.6-6.3,2.3c-1.4,0.4-1.9,1.3-1.9,2.7c0.1,7.8-0.2,15.7-0.2,23.5c-0.1,27.2-0.1,54.5-0.1,81.7c0,2.4-1,5.3,0.5,7.1
				c1.4,1.8,4.5,1.6,6.7,2.5c1.7,0.7,2.1,0.2,2.1-1.5c-0.1-14.9,0.6-29.7,0.8-44.6C145.7,160.8,146.4,145,146.1,129.2z M146.8,186.7
				C146.8,186.7,146.8,186.7,146.8,186.7c0,10.2-0.1,20.4,0,30.6c0,2.2-0.9,4.9,0.4,6.5c1.3,1.6,4.1,1.5,6.1,2.3
				c1.5,0.6,1.8,0.2,1.9-1.3c0.2-15.4,0.5-30.9,0.7-46.3c0.2-10.9,0.2-21.8,0.4-32.8c0.2-14.1,0.4-28.3,0.5-42.5
				c0.1-5.1,0-5.1-4.7-3.3c-3.2,1.2-4.4,2.9-4.5,6.2c-0.3,16.8-0.6,33.6-0.8,50.4C146.7,166.6,146.8,176.6,146.8,186.7z
				 M202.9,186.6C202.9,186.6,202.9,186.6,202.9,186.6c0,16.7-0.1,33.5,0,50.2c0,5.8-0.9,4.3,4.6,6.2c0.2,0.1,0.4,0.1,0.6,0.2
				c1.1,0.4,1.4-0.1,1.4-1.1c0-0.5,0-1,0-1.5c0.1-44.9,0.1-89.8,0.3-134.7c0-9,0.2-18,0.2-26.9c0-0.9,0-1.9,0-2.8
				c0-0.5-0.1-1.2-0.8-0.8c-1.8,0.9-3.7,1.6-5.3,2.8c-1.1,0.8-0.5,2.4-0.5,3.7c-0.2,17.9,0,35.8-0.3,53.7
				C202.6,152.5,202.9,169.6,202.9,186.6z M123.7,210C123.8,210,123.8,210,123.7,210c0,0.1,0,0.3,0,0.4c0,6.5,0,6.4,6.2,8.4
				c1.7,0.5,1.9,0,1.9-1.5c0.2-14.4,0.6-28.7,0.8-43.1c0.2-15.1,0.3-30.2,0.5-45.3c0-3.4,0.2-6.7,0.3-10.1c0.1-2.9,0.1-5.9,0-8.8
				c-0.1-2.5-0.8-2.9-3.1-2.2c-1.9,0.6-3.8,1.3-5.7,1.9c-1.2,0.4-1.7,1-1.7,2.3c0,6.3-0.2,12.5-0.3,18.7c-0.3,11-0.2,22-0.4,33
				c-0.3,11.6-0.3,23.3-0.6,34.9c0,1.6-0.3,3.3,1.5,4.4c0.6,0.4,0.5,1.3,0.6,2C123.8,206.7,123.7,208.3,123.7,210z M63.1,134.7
				c0,0,0.1,0,0.1,0c0-1.7,0-3.5,0-5.2c0-1.4-0.5-1.8-1.8-1.4c-3.6,0.9-7.3,1.7-10.9,2.6c-0.8,0.2-1.5,0.4-1.8,1.3
				c-0.7,2.3-1.6,4.4-1.6,6.9c-0.1,5.5-0.3,11.1-0.5,16.6c-0.1,3.8-0.4,7.6-0.6,11.4c-0.4,7.8-0.7,15.6-1.1,23.5
				c-0.1,1.2,0.3,1.9,1.5,2.2c4.5,1.3,8.9,2.7,13.4,4.2c1.3,0.4,1.7-0.1,1.7-1.3c0-3.5,0.2-7,0.4-10.6
				C62.4,168.2,62.7,151.4,63.1,134.7z M195.1,160.9C195,160.9,195,160.9,195.1,160.9c-0.1,11.8-0.1,23.6-0.1,35.4
				c0,9.8-0.2,19.5-0.3,29.3c0,0.8-0.2,1.8,0.3,2.3c1.3,1.4,1,3.1,1,4.7c0,1.4,0.2,2.9,0,4.3c-0.3,2.1,0.6,2.9,2.5,3.4
				c1.7,0.4,2.4,0.5,2.4-1.6c0-22.1-0.1-44.3,0.3-66.4c0.3-15.7,0.1-31.5,0.2-47.2c0.1-9.6,0.3-19.2,0.4-28.9c0-4.6,0-9.2,0-13.8
				c0-1.1-0.1-2.3-1.3-2.6c-1.8-0.4-4.9,2.4-5,4.2c-0.1,6.2-0.3,12.3-0.3,18.5C195,122,195.1,141.5,195.1,160.9z M45,134.7
				c-0.4-0.7,1.2-3.1-1.7-2.5c-4.8,1-9.5,2-14.3,3c-1.3,0.3-1.8,0.9-1.8,2.2c-0.1,4.2-0.3,8.5-0.5,12.7c-0.5,11.3-1,22.5-1.6,33.8
				c-0.1,1.5,0.5,2.1,1.9,2.6c4.5,1.3,9.1,2.8,13.5,4.3c1.5,0.5,1.9,0.3,2.1-1.3c0.3-3.4,0.2-6.9,0.4-10.3
				C43.7,164.3,44.4,149.6,45,134.7z M106.6,207.6c0,0.2,0.1,0.6,0,1.1c-0.4,2.1,0.6,3.1,2.6,3.5c1.7,0.3,3.3,1,4.9,1.6
				c1.5,0.5,2.1,0.2,2.2-1.6c0.2-10.9,0.5-21.8,0.8-32.7c0.2-7.9,0.3-15.8,0.6-23.7c0.4-13.4,0.8-26.7,1.1-40.1
				c0.1-3.3-0.7-3.9-3.7-2.9c-0.5,0.2-1,0.3-1.4,0.5c-4,1.3-3.9,1.3-4,5.5c-0.3,11.1-0.5,22.1-1,33.2c-0.2,4.5-0.2,8.9-0.4,13.4
				C107.7,179.4,107.2,193.4,106.6,207.6z M166.3,115.2c0.2,0,0.5,0,0.7,0c0-6.5,0-13.1,0-19.6c0-0.6,0.3-1.3-0.9-1.1
				c-3.1,0.5-5.5,2.9-5.6,6c-0.1,3.2-0.2,6.3-0.3,9.5c-0.1,11.7-0.1,23.4-0.4,35.1c-0.4,23.1-0.4,46.1-0.6,69.2c0,1.3,0.2,2,1.7,2
				c1.9,0,2.7,1.1,2.7,3.1c-0.1,2.8,0,5.6,0,8.4c0,0.8,0,1.8,1.1,1.8c1.3,0.1,0.8-1.1,0.9-1.8c0.1-6.2,0.2-12.4,0.3-18.5
				c0.3-12.2,0.2-24.4,0.4-36.7C166.5,153.5,166.3,134.3,166.3,115.2z M191.3,149.7c0-6,0.4-11.9,0.4-17.9
				c0.1-14.7,0.1-29.5,0.1-44.2c0-0.9,0.1-1.9-0.3-2.8c-0.2-0.4-0.3-0.8-0.9-0.8c-1.8,0-3.8,1.9-3.9,3.7c-0.1,4.8-0.3,9.6-0.3,14.4
				c-0.1,43.6,0,87.2-0.5,130.9c0,3.3,0,3.3,3.2,4.3c1.4,0.4,1.7,0.1,1.8-1.3c0.3-3.3-0.4-6.5-0.1-9.9c0.5-5.3,0.4-10.6,0.4-15.9
				C191.3,190.1,191.3,169.9,191.3,149.7z M102.8,123.9c0,0,0.1,0,0.1,0c0-0.9,0-1.7,0-2.6c0-3.7-0.7-4.2-4.2-3.3
				c-0.4,0.1-0.8,0.3-1.2,0.4c-1.1,0.3-1.6,1-1.6,2.2c-0.5,15.2-1.1,30.4-1.7,45.6c-0.2,6.8-0.2,13.7-0.6,20.5
				c-0.3,5.2-0.1,10.5-0.6,15.7c-0.4,4.7-0.2,4.7,4.3,6.2c0.4,0.1,0.8,0.2,1.2,0.4c1.7,0.8,2.3,0.4,2.4-1.6c0.2-9.3,0.6-18.7,0.8-28
				C102,160.8,102.4,142.3,102.8,123.9z M9.5,171.9c0,2.4,0,4.9,0,7.3c0,1.1,0.3,1.8,1.4,2.1c3.1,0.9,6.2,1.9,9.3,2.9
				c1.1,0.4,1.6,0.1,1.6-1.1c0.1-3.7,0.2-7.5,0.4-11.2c0.4-7.8,0.9-15.6,1.2-23.5c0.1-3.5,0.8-7-0.6-10.4c-0.4-1.1-0.9-1.4-2.1-1.2
				c-4.2,0.8-8.3,1.6-12.5,2.2c-1.7,0.2-2.1,1-2.1,2.5c-0.2,6.2-0.5,12.3-0.8,18.5c-0.1,1.3,0.1,2.1,1.7,2.1c1.9,0,2.7,1,2.6,2.9
				C9.5,167.3,9.5,169.6,9.5,171.9z M171.8,118c-0.2,7.6-0.3,15.2-0.3,22.9c-0.1,19.4-0.5,38.8-0.6,58.2c0,7,0,14.1-0.1,21.1
				c0,3.2-0.2,6.5-0.2,9.7c0,1.5,1.9,2.9,3.9,2.7c1.6-0.1,0.8-1.6,0.9-2.4c0.2-13.3,0.2-26.6,0.4-39.9c0.3-17.4,0.3-34.8,0.5-52.2
				c0.2-10.7-0.1-21.4,0.4-32.1c0.2-4.7,0-9.5,0.1-14.2c0-1.3-0.2-1.6-1.6-1.1c-2.5,0.9-2.9,3-3.1,5.1
				C171.5,103.2,172,110.6,171.8,118z M84.7,197.7C84.7,197.7,84.6,197.7,84.7,197.7c-0.1,0.6-0.1,1.1-0.1,1.7
				c0,6.3-0.9,4.5,4.9,6.6c1.8,0.6,2.3,0.1,2.3-1.7c0.5-14,1.1-28,1.6-42c0.4-11,0.6-22,1.1-33c0.1-2.8,0.2-5.6,0.3-8.4
				c0.1-1.4-0.4-1.7-1.8-1.4c-2.7,0.7-5.3,1.3-5.9,4.7c-0.2,1-0.3,2-0.4,3c-0.7,6.8-0.4,13.6-0.7,20.5
				C85.4,164.4,85.1,181.1,84.7,197.7z M177,193.7c-0.1,0-0.2,0-0.3,0c0,2.8,0,5.6,0,8.4c0,9.8-0.1,19.7-0.2,29.5
				c0,0.3,0,0.6,0.1,0.9c0.5,1.6,2,1.6,3.2,1.7c1.4,0.1,0.8-1.2,0.8-1.9c0.2-9.1,0.2-18.1,0.4-27.2c0.3-25,0.3-50,0.5-75
				c0.1-11.2-0.1-22.4,0.4-33.6c0.1-2.2,0.4-4.4-0.3-6.6c-0.4-1.3-1.1-1.4-2.2-0.9c-1.1,0.5-1.4,1.2-1.5,2.3
				c-0.1,5.5-0.3,10.9-0.3,16.4c-0.2,22.6-0.3,45.3-0.5,67.9C176.9,181.6,177,187.7,177,193.7z M182.6,118.4
				c-0.2,9.5-0.2,19.3-0.4,29.2c-0.4,24.6-0.4,49.3-0.5,73.9c0,3.6,0,7.2,0,10.8c0,0.5,0,1,0,1.5c0.1,1.7,1.6,1.8,2.7,1.9
				c1.4,0.2,0.8-1.2,0.9-1.9c0.1-0.5,0-1,0-1.5c0.1-38.2,0.1-76.3,0.2-114.5c0-9.8,0.2-19.7,0.2-29.5c0-0.6,0.3-1.6-0.8-1.6
				c-0.7,0-1.3,0.5-1.5,1.3c-0.6,2.4-0.9,4.9-0.9,7.4C182.7,102.9,182.6,110.5,182.6,118.4z M102,202.2c0,0-0.1,0-0.1,0
				c0,2.2,0,4.3,0,6.5c0,1.7,1.5,1.8,2.6,2c1.4,0.2,1-1.1,1.1-1.8c0.2-1.4,0.3-2.9,0.3-4.3c0.3-12.5,0.8-25,1.3-37.5
				c0.4-12.4,0.8-24.8,1.3-37.2c0.2-4.2,0-8.5,0.4-12.7c0.1-0.6,0.4-1.5-0.5-1.9c-0.8-0.4-3.1,1-3.5,1.9c-1.2,3.3-1.2,6.8-1.3,10.2
				c-0.1,11.5-0.5,23-0.9,34.5C102.4,175.2,102.2,188.7,102,202.2z M167.9,163.1c-0.6,9.2-0.6,18.4-0.8,27.6
				c-0.3,12.3-0.1,24.6-0.2,36.9c0,0.6,0,1.2,0,1.7c0.1,1.2,1.1,1.5,2,1.6c1,0,0.5-1,0.7-1.5c0.1-0.5,0.1-1.1,0.1-1.7
				c0.1-14.2,0.3-28.5,0.4-42.7c0.1-20.6,0.5-41.3,0.5-61.9c0-7.4-0.1-14.8,0.4-22.2c0.1-2,0.1-4-0.1-6c-0.1-0.8-0.3-1.8-1.6-1.6
				c-1,0.1-1.6,0.7-1.5,1.8c0,0.3,0,0.6,0,0.9C167.9,118.2,167.9,140.7,167.9,163.1z M261.4,150.5c-0.1,0-0.3,0-0.4,0.1
				c0,1,0,2.1,0,3.1c0.3,20.8,0.6,41.5,0.9,62.3c0.2,13.2,0.3,26.4,0.5,39.7c0,1.1-0.1,2.5,1.4,2.4c1.6,0,0.9-1.5,0.9-2.4
				c0.2-5.3,0.3-10.6,0.4-15.9c0.1-13.2,0-26.4,0.4-39.7c0.4-12.9-0.2-25.9,0.4-38.8c0-0.5,0-1-0.2-1.5
				C264.3,156.7,262.9,153.6,261.4,150.5z M267,157.6c0.2-0.1,0.5-0.1,0.7-0.2c0-9.4,0-18.8,0-28.2c0-12.9-0.3-25.9,0.1-38.8
				c0.2-6-2.6-10.9-4.4-16.2c-0.2,0.3-0.2,0.5-0.2,0.8c-0.1,9.9-0.3,19.8-0.4,29.7c-0.1,5.1,0,10.2-0.1,15.3
				c-0.1,7.1-0.1,14.2-0.7,21.3c-0.1,1.6-0.9,3.3-0.2,4.9C263.5,150.1,265.3,153.8,267,157.6z M272.5,169.2
				c0.5-12.5,0.5-25,0.8-37.4c0.2-8.7-0.3-17.4,0.2-26.1c0.4-6.3-2.5-11.3-4.5-16.8c-0.2,0.5-0.2,1-0.2,1.4
				c-0.1,10.6,0,21.3-0.3,31.9c-0.2,12.2-0.1,24.4-0.1,36.7c0,0.8,0,1.6,0.3,2.3C270,163.9,271.3,166.6,272.5,169.2z M278.1,180.3
				c0-7.6,0.2-14.8,0.4-22c0.3-13.4,0.4-26.9,0.9-40.3c0-1.2,0.2-2.5-0.2-3.6c-1.3-3.8-2.9-7.5-4.6-11.8
				c-0.1,11.4-0.1,22.1-0.4,32.9c-0.3,10,0.2,20-0.3,30C273.6,170.9,275.1,175.5,278.1,180.3z M276.2,181.9c0,27.6,0,54.9,0,82.3
				c0,0.4,0,0.9,0.1,1.3c0.4,0.9,1.3,1,2.2,1.2c0.5,0.2,0.9-0.1,0.9-0.6c0-1.5,0.6-3-0.5-4.4c-0.4-0.5-0.6-0.8-0.1-1.3
				c0.8-0.7,0.7-1.7,0.7-2.6c0-21.6-0.1-43.3,0-64.9C279.5,188.9,278.5,185.5,276.2,181.9z M210.6,233c0,0.7,0,1.4,0,2.2
				c0,2.6,0,5.2,0,7.8c0,0.6,0.1,1.3,0.9,1.2c0.7,0,0.5-0.7,0.6-1.2c0-0.3,0-0.6,0-0.9c-0.2-18.3,0.1-36.5-0.3-54.8
				c-0.3-15.5-0.1-31.1-0.2-46.6c0-0.7-0.2-1.6,0.4-2.1c1.1-1,0.9-2.2,0.9-3.4c-0.1-5.6-0.3-11.2-0.4-16.8c0-0.7-0.3-1.5,0.4-2
				c1-0.7,0.9-1.7,0.8-2.7c-0.1-6-0.5-11.9-0.2-17.9c0.4-6.9,0.2-13.8,0.2-20.7c0-0.6,0.5-1.6-0.7-1.7c-0.8,0-1,0.8-1.2,1.5
				c-0.3,1.3-0.5,2.5-0.5,3.8c-0.1,15.3-0.3,30.6-0.3,45.9C210.9,160.8,211.2,196.9,210.6,233z M282.9,190.4
				c0.1-0.1,0.3-0.1,0.4-0.2c0-0.2,0.1-0.4,0.1-0.6c0-20.2-0.1-40.4,0-60.6c0-4.3-1.4-7.9-3.2-12.3c-0.1,8.3-0.1,16.1-0.4,23.8
				c-0.4,11.9-0.4,23.8-0.6,35.8c0,1.6-0.2,3.3-0.2,4.9c0,0.4,0,0.9,0.2,1.3C280.3,185.2,281.6,187.8,282.9,190.4z M284.8,199.4
				c0,0.3-0.1,0.6-0.1,0.8c0,14.8,0.1,29.6,0.1,44.4c0,7.5,0,15.1,0,22.6c0,1.5,1.5,2.9,2.9,2.6c1.5-0.3,0.7-1.5,0.7-2.3
				c0-19.2-0.2-38.4,0.1-57.6C288.6,205.9,286.8,202.7,284.8,199.4z M121.4,110.9c-1,2.1-1.8,4.2-1.8,6.5c-0.1,9.5-0.3,19-0.5,28.4
				c-0.4,18.2-0.9,36.3-1.3,54.5c0,0.8-0.6,2,1.1,2c1.4,0,1.9-0.7,1.9-2c0-1.9,0.2-3.9,0.2-5.8c0.2-10.8,0.1-21.5,0.4-32.3
				c0.4-16.3,0.4-32.6,0.5-48.9C121.9,112.5,122.2,111.7,121.4,110.9z M288.1,200.2c0-1.1,0-1.6,0-2.2c0-19.4-0.1-38.8,0.1-58.2
				c0.1-4.6-2.3-8.1-3.9-12c0,0.8,0,1.6,0,2.4c0,19,0.1,38.1-0.1,57.1C284.2,192,285.2,196.1,288.1,200.2z M297.5,218.1
				c0.1-9.2,0.1-18.1,0.4-27.1c0.3-8.7-0.3-17.4,0.2-26.1c0.3-5.5-1.9-10-4.2-15.2c0,1.3,0,2.1,0,2.8c0,17.8,0.1,35.6-0.1,53.4
				C293.8,210.4,294.6,214.3,297.5,218.1z M194,82.8c-0.6,1.7-1.1,3.2-1.1,4.9c-0.2,13.4-0.2,26.7-0.3,40.1
				c-0.3,32.6-0.2,65.1-0.5,97.7c0,0.9-0.7,2.6,1,2.5c1.4-0.1,0.8-1.6,0.8-2.5c0.2-38.2-0.2-76.5,0.5-114.7c0.2-8.5,0-17,0-25.5
				C194.3,84.5,194.6,83.7,194,82.8z M292.8,209.3c0-1,0-1.6,0-2.2c0-18.2-0.2-36.4,0.1-54.5c0.1-5-1.6-9.2-3.6-13.7
				c-0.1,0.4-0.1,0.6-0.1,0.8c0,19.3,0.1,38.7-0.1,58C289,201.9,290.2,205.5,292.8,209.3z M280.5,190.6c0,0.5-0.1,0.7-0.1,1
				c0,22.2,0.1,44.4,0.1,66.6c0,0.6-0.1,1.4,0.3,1.6c1.6,1.2,1.2,3,1.3,4.6c0,0.9-0.1,1.7-0.1,2.6c0,0.8,0.2,1.3,1.1,1.3
				c0.9,0,0.7-0.7,0.8-1.2c0-0.6,0-1.1,0-1.7c0-20.9-0.1-41.8,0-62.7C283.8,198.3,283.2,194.3,280.5,190.6z M299.3,162.3
				c-0.3,8.4-0.3,16.8-0.5,25.2c-0.3,9.7,0.1,19.4-0.2,29.1c-0.1,4,1.7,6.9,3.7,10.3c0-0.7,0.1-1,0.1-1.3
				c0.1-17.3,0.2-34.6,0.5-51.9C302.9,169.4,300.8,166,299.3,162.3z M268.4,165.9c0,10.6,0.1,20.8,0,31c-0.2,21.5,0.4,43-0.4,64.4
				c-0.1,1.4,0.6,2.3,1.9,2.3c1.6,0,0.8-1.4,0.8-2.1c0-11.4,0-22.8-0.2-34.3c-0.2-17.2-0.1-34.3-0.2-51.5
				C270.2,172.5,271,169,268.4,165.9z M158.3,98c-0.5,0.6-0.4,1.1-0.4,1.6c-0.1,5.5-0.2,11.1-0.3,16.6c-0.3,18.8-0.3,37.6-0.5,56.5
				c-0.1,6.2-0.2,12.3-0.3,18.5c-0.3,11.4-0.1,22.8-0.2,34.3c0,0.7-0.2,1.7,0.8,1.7c1-0.1,0.6-1.1,0.7-1.8c0.2-3.5-0.1-7,0-10.5
				c0.3-8.2,0.3-16.4,0.4-24.6c0.1-17,0.3-33.9,0.5-50.9c0.1-6.3,0-12.5,0.1-18.8c0.1-6.5,0.2-12.9,0.3-19.4
				C159.4,100.1,159.4,98.9,158.3,98z M249.7,237.5c0-5.8,0-11.6,0-17.5c0-2.4-0.9-4.2-3.1-5.2c-1.1-0.5-1.9-0.6-1.9,1.1
				c0,13.1-0.1,26.1,0.4,39.2c0.1,2.2,2,2.1,3.3,2.3c1.6,0.2,1.2-1.3,1.2-2.2C249.7,249.3,249.7,243.4,249.7,237.5z M62.7,189.8
				c0,0-0.1,0-0.1,0c0,2.1,0,4.2,0,6.2c0,1.1,0.4,1.9,1.6,1.9c1.3,0,0.8-1.2,0.8-1.8c0.3-8.1,0.6-16.2,0.8-24.3
				c0.4-13.4,0.6-26.8,1-40.3c0-1-0.1-2-0.5-2.9c-0.2-0.5-0.2-1.5-1.1-1.3c-0.8,0.2-0.7,1-0.7,1.6c-0.1,3.2-0.3,6.3-0.4,9.5
				C63.5,155.5,63.1,172.7,62.7,189.8z M271.1,171.4c-0.3,3.6,0.1,6.8,0.2,10c0.2,26.7,0.4,53.5,0.6,80.2c0,1-0.6,2.7,0.8,2.7
				c1.4,0,0.7-1.7,0.7-2.7c-0.1-28,0.2-55.9-0.3-83.9C273,175.6,272.6,173.6,271.1,171.4z M290,209.2c-0.7,1-0.5,1.8-0.5,2.6
				c0,18.9,0.1,37.8,0.1,56.7c0,0.4,0,0.9,0,1.3c0.2,1.4,1.4,1.7,2.4,1.6c1.1,0,0.6-1.1,0.6-1.7c0-2-0.2-4-0.2-6
				c-0.2-16.3-0.4-32.6-0.5-48.9C292,212.6,291.3,211,290,209.2z M306.1,233.6c0-1.2,0-2.1,0-3c0-16.7,0-33.3,0.2-50
				c0-2.9-1.1-5.2-2.6-7.6c-0.3,3.7-0.3,7.3-0.3,10.9c-0.1,13.1,0,26.3-0.3,39.4C303,227.2,303.4,230.5,306.1,233.6z M307.2,180.8
				c0,6.6,0,13.2,0,19.8c0,10.6,0.1,21.1-0.2,31.7c-0.1,3.4,1.4,5.5,3.1,8.6c0-1.2,0-1.7,0-2.2c0-16.2-0.1-32.5,0-48.7
				C310.2,186.6,309.2,183.7,307.2,180.8z M315.4,197.3c-0.6,0.9-0.4,1.6-0.4,2.3c0,15.7,0.1,31.5,0,47.2c0,2.5,1.1,4.3,2.6,6.2
				c0.1-0.5,0.1-0.7,0.1-0.9c0.2-15.2,0.3-30.5,0.5-45.7C318.4,203.1,316.7,200.4,315.4,197.3z M231.9,233
				C231.9,233,231.9,233,231.9,233c0-5.6-0.1-11.2,0-16.8c0-1.8-0.6-2.3-2.3-1.9c-1.6,0.4-1.8,1.3-1.8,2.6
				c-0.1,10.3-0.2,20.7-0.3,31c0,0.5-0.1,1,0,1.5c0.6,1.8,2.4,1.8,3.7,1.9c1.2,0.1,0.7-1.3,0.7-2.1C232,243.9,231.9,238.5,231.9,233
				z M245.1,175.3c0,0-0.1,0-0.1,0c0,5.7,0,11.3,0,17c0,0.5-0.3,1.3,0.3,1.6c0.7,0.4,1.2-0.2,1.7-0.6c1.5-1.1,2.1-2.6,2.2-4.5
				c0.5-9.4,0.2-18.8,0.3-28.2c0-1.5-0.6-2.8-1.8-3.7c-0.6-0.4-1.2-0.9-2-0.5c-0.9,0.4-0.6,1.2-0.6,1.9
				C245.1,164,245.1,169.7,245.1,175.3z M241.4,80.2c0-2.9,0-5.7,0-8.6c0-5.2,0.8-4.8-4.9-4.2c-1.3,0.1-1.8,0.6-1.7,1.9
				c0.1,3.1,0.2,6.2,0,9.2c-0.4,4.8,0.8,9.2,2.9,13.4c0.6,1.1,1.1,1.7,2.4,1.5c1.4-0.2,1.4-1.2,1.4-2.3
				C241.4,87.5,241.4,83.9,241.4,80.2z M231.9,176.4C231.9,176.4,231.9,176.4,231.9,176.4c0-5.6,0-11.2-0.1-16.8
				c0-0.8,0.6-2.3-1.2-2.1c-1.3,0.1-2.9-0.2-2.8,2.2c0.1,11.2,0,22.4,0,33.6c0,1.5,0.4,2.2,2.1,2.2c1.7,0,2-0.7,2-2.2
				C231.9,187.6,231.9,182,231.9,176.4z M311.1,189.1c0,0.5,0,1,0,1.5c0,16.7,0.1,33.4,0.1,50c0,2.6,1.4,4.3,2.8,6.7
				c0-16.7-0.1-32.8,0.1-48.9C314,194.9,313,192,311.1,189.1z M324.8,264.2c0.2,0,0.5-0.1,0.7-0.1c0-13.9-0.1-27.7,0.1-41.6
				c0.1-3.7-1.4-6.5-3-9.5c0.3,3.2-0.2,6.3-0.2,9.5c0,11.6,0.1,23.3-0.1,34.9C322.3,260.2,323,262.3,324.8,264.2z M242.5,79.9
				c0,3.7,0,7.5,0,11.2c0,1.1,0.2,2.2,1.6,1.9c1.3-0.3,3.6,0.7,3.7-1.7c0.3-7.8,0.3-15.6,0.5-23.4c0-1.1-0.3-1.6-1.5-1.4
				c-0.6,0.1-1.3,0.2-1.9,0.1c-1.7-0.1-2.4,0.6-2.4,2.4C242.6,72.6,242.5,76.3,242.5,79.9z M238.7,234.1c0,4.8,0,9.6,0,14.5
				c0,1.5,0,3,0,4.5c0,1.5,1.3,1.7,2.3,1.8c1.3,0.1,0.8-1.1,0.8-1.7c-0.1-1.9,0.7-3.9-0.8-5.6c-0.3-0.3,0-0.7,0.3-0.9
				c0.7-0.6,0.6-1.4,0.6-2.2c0-9.3,0-18.7,0-28c0-1,0.3-2.2-1.5-2.3c-1.8-0.1-1.7,1.1-1.7,2.3C238.7,222.3,238.7,228.2,238.7,234.1z
				 M260.8,143.1c0.1,0,0.1,0,0.2,0c0.2-3.6,0.6-7.1,0.7-10.7c0.2-19.6,0.3-39.2,0.5-58.8c0-3.2-1.1-6-2.5-8.8
				C260.1,90.9,260.4,117,260.8,143.1z M26.5,131.7c0-3.8-1.2-4.7-4.6-4c-3.3,0.7-6.6,1.3-9.9,1.9c-3.7,0.6-4.7,1.5-5.4,5.1
				c-0.4,1.8,0.2,2.4,1.7,2.2c5.4-1,10.9-2,16.3-2.9C26.1,133.7,26.8,133,26.5,131.7z M63.6,121.8c0.1-3.4-0.5-3.9-3.7-3.1
				c-2.9,0.7-5.8,1.5-8.8,2.3c-3.7,0.9-4.9,2.5-4.9,6.3c0,1.6,0.4,2.2,2.1,1.8c3.9-1,7.8-1.8,11.7-2.8
				C63.5,125.5,63.5,125.4,63.6,121.8z M134.8,99.3c0-1.4,0.1-2.7,0-4.1c-0.1-1.3-0.6-2-2.1-1.3c-2.3,1.1-4.8,1.9-7.2,2.9
				c-0.6,0.2-1,0.7-1.4,1.3c-1.9,2.8-0.9,6-1.1,9c-0.1,1.1,0.8,0.8,1.4,0.6c2-0.6,3.9-1.3,5.9-2C134.8,104.1,134.8,104.1,134.8,99.3
				z M321.3,258.8c-0.2-15.2,0.2-30,0.4-44.7c0-2.8-0.6-5.2-2.4-7.8c0,0.8,0,1.2,0,1.7c-0.2,14.7-0.3,29.4-0.5,44.2
				C318.8,254.6,319.3,256.7,321.3,258.8z M45.5,126c0.1-2.7-0.8-3.5-3.4-2.8c-3.7,0.9-7.4,1.7-11.1,2.6c-0.8,0.2-1.7,0.2-2,1.3
				c-0.4,1.3-1,2.5-1.3,3.8c-0.6,2.1-0.2,2.5,1.9,2.1c4.1-0.8,8.1-1.6,12.2-2.5C45.3,129.7,45.3,129.7,45.5,126z M95.2,112.8
				c0-0.6,0-1.3,0-1.9c-0.1-2.3-0.6-2.6-2.8-2c-2.9,0.9-5.7,1.8-8.6,2.7c-0.7,0.2-1.5,0.4-1.9,1.3c-0.8,2-1.4,4-1.2,6.2
				c0.1,1.4,0.6,1.8,1.9,1.4c2.8-0.8,5.6-1.6,8.5-2.4C95,116.9,95,116.9,95.2,112.8z M79.7,117.1c0,0.1,0-0.3,0.1-0.8
				c0.2-2.6-0.6-3.3-3-2.6c-3.2,0.9-6.3,1.9-9.5,2.8c-0.6,0.2-1.3,0.3-1.5,1c-0.5,1.8-1.4,3.6-1.4,5.5c0,1.6,0.4,2.1,2,1.6
				c3.2-0.9,6.3-1.8,9.5-2.5C80.5,121.2,79.5,121,79.7,117.1z M109.3,105.9c0.1-2.2-0.5-2.7-2.7-1.9c-2.2,0.8-4.4,1.7-6.7,2.2
				c-2.3,0.6-3.3,2.2-3.7,4.2c-0.3,1.5-0.2,3-0.4,4.5c-0.1,1.3,0.3,1.7,1.6,1.3c2.2-0.7,4.5-1.4,6.8-2.1c4.5-1.3,4.5-1.3,4.8-5.9
				C109.1,107.5,109.2,106.7,109.3,105.9z M167,86.1c0-1.9,0.1-3.7,0-5.6c-0.1-1.1-0.5-1.8-1.9-1c-1.4,0.8-3,1.5-4.5,2.1
				c-1.1,0.5-1.5,1.2-2,2.3c-0.9,2.5-0.6,5-0.6,7.4c-0.1,4.2,0,4.2,3.8,2.6C168.4,91.2,167,93.1,167,86.1z M134.3,109.8
				c0,2.9,0,5.9,0,8.8c-0.1,9.1-0.1,18.1-0.3,27.2c-0.5,23.9-0.7,47.9-1,71.8c0,0.5,0,1,0.1,1.5c0.1,0.4,0.3,0.7,0.7,0.7
				c0.5,0,0.6-0.4,0.6-0.7c0-0.6,0-1.1,0-1.7c0-11.5,0.1-23,0.1-34.5C134.4,158.4,135.1,134.2,134.3,109.8z M110.1,108.4
				c0,0.6,0.1,1.3,0,1.9c-0.2,1.6,0.3,2.1,1.9,1.5c2.7-1,5.6-1.8,8.4-2.8c0.8-0.2,1.5-0.5,1.6-1.5c0.1-2.4,0.3-4.9,0.3-7.3
				c0-1.4-0.9-1.8-2.2-1.3c-1.9,0.8-3.8,1.6-5.8,2.2c-1.9,0.5-3,1.8-3.8,3.4C109.8,105.8,110.2,107.1,110.1,108.4z M156.8,90.3
				c0-1.6,0.1-3.3,0-4.9c-0.1-1.1-0.5-1.9-1.9-1.1c-1.6,0.9-3.4,1.6-5.1,2.3c-1.1,0.5-1.6,1.2-2,2.3c-0.7,2-0.5,4-0.5,5.9
				c0,4.7,0,4.7,4.4,3.1C156.8,95.9,156.8,95.9,156.8,90.3z M267,162.7c-0.4,0.4-0.2,1-0.2,1.4c-0.1,11.4-0.3,22.8-0.4,34.3
				c-0.1,19.3-0.5,38.7-0.5,58c0,0.9-0.6,2.5,0.7,2.5c1.3,0,0.7-1.6,0.7-2.5c0.1-30.5,0.1-60.9,0.2-91.4
				C267.4,164.2,267.6,163.4,267,162.7z M185.7,77.3C185.7,77.3,185.7,77.3,185.7,77.3c0-1.8,0.1-3.6,0-5.4
				c-0.1-2.6-0.4-2.7-2.7-1.6c-0.8,0.4-1.5,0.8-2.3,1.2c-1.3,0.5-1.9,1.4-2.3,2.8c-1.1,3.9-0.4,7.8-0.6,11.7c-0.1,1.2,0.5,1,1.4,0.7
				c6.5-2.2,6.6-2.2,6.6-9.1C185.7,77.6,185.7,77.4,185.7,77.3z M186.8,76.7c0,2,0,3.6,0,5.3c0,0.5-0.1,1.4,0.8,1.1
				c2.1-0.9,4.2-1.9,6.2-2.9c0.5-0.2,0.5-0.8,0.5-1.3c-0.1-3.7,0.3-7.4-0.3-11.1c-0.5-3.1-0.4-3.1-3.4-1.6c-1.9,1-3.3,2-3.7,4.5
				C186.8,72.8,187,74.9,186.8,76.7z M176.7,82.2c0-2.5,0.1-4.4,0-6.3c-0.1-1.4-0.6-2.2-2.2-1.2c-1.2,0.8-2.5,1.4-3.8,2
				c-1.1,0.5-1.6,1.3-1.9,2.6c-0.8,3.3-0.2,6.7-0.6,10.1c-0.2,1.8,0.3,2.1,1.8,1.3c0.3-0.2,0.6-0.3,1-0.4
				C175.6,89.2,178.1,86.7,176.7,82.2z M209.9,64.6C209.9,64.6,209.9,64.6,209.9,64.6c0-2.4,0-4.7,0-7.1c0-0.7,0-1.7-1-1.8
				c-1-0.1-4.7,2.9-4.9,4c-1.3,4.9-0.4,9.8-0.6,14.8c0,0.7,0.2,1,1,0.8c4.1-0.9,5.6-2.8,5.6-7C209.9,67.1,209.9,65.9,209.9,64.6z
				 M146,94.7c0-1.5,0.1-3,0-4.5c-0.1-1.1-0.7-1.7-1.9-1.1c-1.4,0.7-2.8,1.4-4.4,1.8c-3.1,0.8-3.8,3-3.8,5.8c0,0.5,0,1,0,1.5
				c0,5.4,0,5.5,5.2,3.6C147.1,99.5,145.9,101,146,94.7z M238.7,175.6c0,5.8,0,11.6,0,17.5c0,0.8-0.2,1.7,1,1.8
				c1.1,0,1.7-0.5,1.8-1.7c0-0.4,0-0.7,0-1.1c0-11.1,0-22.3-0.1-33.4c0-0.8,0.5-2-1.1-2c-1.5,0-1.7,0.9-1.7,2.2
				C238.7,164.4,238.7,170,238.7,175.6z M329.3,226.5c0,14.5,0,28.6,0,42.7c0,1.8,0.9,3,2.3,4.4c0-1.1,0-1.8,0-2.5
				c0-12.1-0.1-24.3,0-36.4C331.7,231.9,331.4,229.2,329.3,226.5z M202.2,68.8C202.2,68.8,202.2,68.8,202.2,68.8c0-2.2,0-4.5,0-6.7
				c0-0.7,0-1.7-1.1-1.7c-1.1,0-4.7,2.8-4.9,3.8c-1.1,4.7-0.5,9.4-0.6,14.1c0,0.6,0.2,1.1,0.9,0.8c1.8-0.9,3.8-1.6,5.3-2.7
				c1.2-0.9,0.4-2.6,0.5-3.9C202.2,71.3,202.2,70,202.2,68.8z M236.9,300.7C236.9,300.7,236.9,300.7,236.9,300.7c2-0.1,4,0,6-0.1
				c1.9-0.1,2.5-1.5,1.3-2.9c-1.8-2.2-3.7-4.2-5.6-6.3c-1.1-1.1-2.3-1.2-3.4,0c-1.9,2.1-3.8,4.3-5.5,6.6c-1.1,1.5-0.5,2.6,1.3,2.7
				C233,300.8,234.9,300.7,236.9,300.7z M236.5,337.3C236.5,337.3,236.5,337.3,236.5,337.3c1.9,0,3.7,0,5.6,0c0.9,0,1.8-0.1,2.2-1
				c0.5-0.9,0.1-1.7-0.5-2.4c-1.5-1.9-3-3.8-4.6-5.7c-1.2-1.3-2.7-1.6-4-0.2c-2,2.2-3.8,4.5-5.6,6.8c-1,1.3-0.4,2.4,1.2,2.5
				C232.7,337.4,234.6,337.3,236.5,337.3z M237.2,315.3c0.5,0,1.2-0.1,1.8-0.6c2-1.9,3.6-4.1,5.2-6.3c0.9-1.2,0.1-2.7-1.5-2.7
				c-3.9-0.1-7.9-0.2-11.8,0.3c-1.6,0.2-2.2,1.6-1.2,2.8c1.6,2.1,3.5,4,5.3,5.9C235.4,315.3,236.2,315.4,237.2,315.3z M250.5,326.5
				c-0.2,0-0.3,0-0.5,0c0-4,0-8,0-12.1c0-0.7,0-1.5-0.9-1.8c-0.8-0.3-1.4,0-1.9,0.6c-1.5,1.9-3.1,3.8-4.6,5.7
				c-0.9,1.1-1.1,2.5-0.3,3.6c1.8,2.6,3.9,5.2,5.8,7.7c0.4,0.5,1,0.6,1.6,0.4c0.6-0.3,0.8-0.8,0.8-1.4
				C250.5,328.3,250.5,327.4,250.5,326.5z M328,268.9c0.1-0.6,0.2-0.9,0.2-1.1c0.1-13.9,0.2-27.8,0.3-41.8c0-1.7-0.8-3-1.8-4.7
				c-0.1,0.7-0.1,0.9-0.1,1.2c-0.1,14.1-0.3,28.3-0.5,42.4C326.2,266.4,326.8,267.5,328,268.9z M237.8,234.1
				C237.8,234.1,237.8,234.1,237.8,234.1c-0.1-6.1-0.1-12.2-0.1-18.3c0-0.6,0.2-1.4-0.7-1.5c-0.6-0.1-1.3-0.2-1.5,0.4
				c-0.2,0.5-0.2,1.1-0.2,1.7c0,11.6,0,23.1,0,34.7c0,0.5,0,1,0.1,1.5c0.3,0.9,1.1,1,1.9,1.1c0.9,0.1,0.6-0.6,0.6-1.1
				C237.8,246.4,237.8,240.2,237.8,234.1z M294.4,217.3c0,0.7,0,1.1,0,1.5c0.3,14.2,0.6,28.5,0.7,42.7c0,3.6,2.4,6.8,1.5,9.5
				c0-14.8,0-30.6,0-46.4C296.7,222,296.2,219.7,294.4,217.3z M223.6,321.6C223.6,321.6,223.6,321.6,223.6,321.6c0,2.1,0,4.1,0,6.2
				c0,0.9,0.3,1.7,1.3,2c0.9,0.3,1.7-0.1,2.3-0.8c1.3-1.6,2.7-3.2,3.9-4.9c1.2-1.6,1.1-3.4-0.1-5c-1.3-1.6-2.6-3.2-4-4.8
				c-0.6-0.7-1.2-1.3-2.2-1c-1,0.4-1.1,1.2-1.1,2.1C223.6,317.6,223.6,319.6,223.6,321.6z M231.6,124.3c0-4.2,0-8.5,0-12.7
				c0-1-0.1-1.9-1.5-1.9c-1.1,0-1.8,0.2-1.8,1.5c0,8.7,0,17.4-0.1,26.1c0,1.3,0.7,1.6,1.8,1.4c1.3-0.2,1.6-1,1.6-2.2
				C231.6,132.5,231.6,128.4,231.6,124.3z M245.3,114.7c0,1.1,0,1.7,0,2.2c0,6.2-0.1,12.4-0.1,18.5c0,0.6-0.3,1.3,0.6,1.7
				c1.7,0.7,4.8-0.5,5-2.3c0.3-2.8,0.8-5.8-0.3-8.5C248.9,122.6,247.1,118.9,245.3,114.7z M337.5,281.3c0.1-0.6,0.1-1,0.1-1.3
				c0-11.5,0-23,0.5-34.4c0.1-2.5-0.8-4.5-2.4-6.8c0,13.4,0,26.4,0,39.4C335.7,279.4,336.3,280.3,337.5,281.3z M334.6,277.9
				c0-13.5,0-26.8,0-40c0-1.8-0.8-3.1-2-5c0,1.3,0,2,0,2.7c0,12.5,0.1,25,0,37.5C332.7,275,333.2,276.5,334.6,277.9z M311.6,247.9
				c0,10,0,19.7,0,29.3c0,1.4,0.8,2.1,2,2c1.2,0,0.7-1.2,0.7-1.9c0-7.2-0.1-14.4,0.1-21.5C314.5,252.9,313.8,250.4,311.6,247.9z
				 M274.2,177.8c-0.1,29,0.5,58.1,0.6,87.1C275.9,256.8,275.2,179.8,274.2,177.8z M238.6,123.4
				C238.7,123.4,238.7,123.4,238.6,123.4c0,4.3,0,8.6,0.1,12.9c0,0.7-0.1,1.6,1,1.5c0.9,0,1.7-0.4,1.7-1.5c0-0.4,0-0.7,0-1.1
				c0-8,0-16.1,0-24.1c0-1,0.3-2.3-1.5-2.2c-1.6,0.1-1.3,1.2-1.3,2.2C238.6,115.2,238.6,119.3,238.6,123.4z M223.9,288.7
				c-0.1,0-0.2,0-0.3,0c0,0.9,0,1.9,0,2.8c0,0.9,0.3,1.7,1.2,2.1c0.9,0.3,1.5-0.3,2-0.9c1.4-1.7,2.7-3.3,4-5c1-1.3,1.1-2.9,0.2-4.2
				c-1.4-2-3.5-3.4-5.4-4.8c-0.9-0.7-1.8-0.4-1.7,1C223.9,282.7,223.9,285.7,223.9,288.7z M224.8,193.6c0-11.8,0-23.2,0-34.8
				c-1.7,1.1-2.2,2.5-2.2,4.2c0,8.7,0,17.4,0,26.1C222.6,190.7,223.1,192.2,224.8,193.6z M345.7,290.3c0.3-1.5-0.5-3-0.2-4
				c0.8-2.6,0.7-5.2,0.8-7.8c0.1-4.7,0-9.3,0.4-14c0.3-3.7,0.3-7.4-2.7-10.5c0,11.3-0.1,22.5,0.3,33.7
				C344.3,288.8,344.5,289.7,345.7,290.3z M235.6,176.3c-0.1,0-0.1,0-0.2,0c0,5.7,0,11.4,0,17c0,0.8-0.1,1.6,1.1,1.6
				c1.3,0,1.3-0.8,1.3-1.7c-0.1-7.9-0.1-15.8-0.1-23.7c0-3.7,0-7.5,0-11.2c0-0.6,0.3-1.4-0.8-1.5c-0.9-0.1-1.3,0.5-1.3,1.3
				c0,0.6,0,1.1,0,1.7C235.6,165.3,235.6,170.8,235.6,176.3z M250.5,290.2c0.1-5.6,0.1-5.6-5.4-7c-0.6-0.1-1.1-0.3-1.7-0.4
				c-2.4-0.5-3.3,0.4-2.5,2.7c0.2,0.6,0.5,1.2,0.9,1.7c2.2,2.7,4.4,5.3,6.6,7.9c0.3,0.4,0.7,0.8,1.3,0.6c0.7-0.2,0.7-0.8,0.7-1.4
				C250.5,293,250.5,291.6,250.5,290.2z M308.5,242.7c-0.3,8.7-0.5,17-0.8,25.4c0,0.8-0.1,1.6,0.7,2.1c1,0.6,1,1.5,1,2.4
				c0,1.2,0,2.4,0,3.7c0,0.6-0.1,1.6,0.7,1.6c1,0,0.5-1,0.5-1.5c0.1-8.8-0.3-17.7,0.2-26.5C311,247.4,310.7,244.9,308.5,242.7z
				 M222.3,86c-0.2,0-0.3,0-0.5,0c0,1.8,0,3.6,0,5.4c0,1.1,0.2,2,1.2,2.6c0.3,0.2,0.8,0.5,1.2,0.5c0.7-0.1,0.5-0.8,0.5-1.2
				c0.3-7.4,0.6-14.9,0.9-22.3c0-0.7,0.5-1.9-0.4-2.1c-1.1-0.3-1.8,0.7-2.3,1.6c-0.4,0.7-0.5,1.5-0.5,2.3
				C222.3,77.1,222.3,81.6,222.3,86z M222.3,129.8c-0.2,0-0.3,0-0.5,0c0,2.2-0.1,4.4,0,6.7c0.1,1.5,1.1,2.6,2.5,2.5
				c1.3-0.1,0.7-1.5,0.7-2.3c-0.1-7.7-0.2-15.3-0.4-23c0-0.9,0.7-2.5-0.5-2.6c-1.2-0.1-1.5,1.5-1.7,2.6c-0.1,0.3-0.1,0.6-0.1,0.9
				C222.3,119.6,222.3,124.7,222.3,129.8z M301.3,230.1c0,0.7-0.1,1.1-0.1,1.4c0,13.8,0,27.6,0,41.4c0,0.3,0,0.6,0,0.9
				c0,0.5,0,1.1,0.7,1.2c0.9,0.1,0.7-0.7,0.7-1.3c0-0.3,0-0.6,0-0.9c0-12.9,0-25.9,0.1-38.8C302.8,232.6,302.4,231.4,301.3,230.1z
				 M232.6,177c0,4.8,0.5,10.4,0.2,16c0,0.7-0.5,1.8,0.7,1.9c1.2,0.1,0.9-1.1,0.9-1.8c0-11.3,0-22.5,0-33.8c0-0.8,0.4-2-1-1.9
				c-1.3,0.1-0.8,1.3-0.9,2.1C232.6,165,232.6,170.6,232.6,177z M305.6,237.5c-0.1,0.5-0.1,0.8-0.1,1.1c-0.1,11.8-0.2,23.7-0.3,35.5
				c0,0.4,0,0.9,0,1.3c0,0.5,0.1,1.1,0.8,1.1c0.8,0,0.5-0.7,0.6-1.1c0.3-2.3-0.2-4.5,0-6.8c0.6-8.6,0.6-17.3,1-26
				C307.6,240.6,306.8,239.1,305.6,237.5z M26.1,138.3c-0.5,1.4-1.5,2.4-1.6,3.9c-0.4,10-0.9,20.1-1.3,30.1c-0.2,3.7-0.4,7.3-0.6,11
				c0,0.8-0.4,1.8,0.7,1.9c1,0.1,0.8-1,0.9-1.6c0.2-2.9,0.2-5.7,0.3-8.6C25,162.7,25.6,150.5,26.1,138.3z M343.1,287.7
				c0.1-0.4,0.2-0.6,0.2-0.9c-0.1-11.4-0.3-22.8-0.4-34.2c0-1.3-0.6-2.3-1.5-3.5c0,12.2,0,24.1,0,36
				C341.4,286.3,342,287.1,343.1,287.7z M339.7,245.8c-1,1.4-0.9,3-0.9,4.4c-0.1,10.4-0.1,20.8-0.2,31.3c0,1.5,0.8,2.3,2.2,3.5
				C340.1,271.6,340.4,258.7,339.7,245.8z M244,175.6C244,175.6,244,175.6,244,175.6c0-5.6,0-11.2,0-16.8c0-0.4,0-0.7,0-1.1
				c0-0.5,0-1.1-0.7-1.2c-0.7-0.1-0.7,0.6-0.8,1.1c0,0.3,0,0.6,0,0.9c0,11.3,0,22.7,0,34c0,0.6-0.3,1.8,0.6,1.8
				c1.2,0,0.7-1.2,0.7-1.9C244,186.8,244,181.2,244,175.6z M232.6,123.6C232.6,123.6,232.6,123.6,232.6,123.6
				c0.1,4.2,0,8.5,0.1,12.7c0,0.8-0.4,2,1,1.9c1.1,0,0.9-1.1,0.9-1.8c0.1-8.4-0.1-16.8,0.3-25.1c0-0.7,0.4-1.9-1.1-1.9
				c-1.4,0-1.3,1-1.3,2C232.6,115.4,232.6,119.5,232.6,123.6z M235.6,123.7C235.6,123.7,235.6,123.7,235.6,123.7c0,4.3,0,8.6,0,12.9
				c0,0.6-0.2,1.4,0.9,1.4c0.9,0,1.3-0.4,1.2-1.3c-0.1-0.9,0-1.7,0-2.6c0.1-7.7-0.3-15.3,0.3-23c0.1-1.1-0.1-2.2-1.6-1.7
				c-0.9,0.3-0.7,1.3-0.7,2.1C235.6,115.6,235.6,119.7,235.6,123.7z M297.6,223.3c0,16.7,0,33.3,0,49.9c0.3-0.2,0.4-0.4,0.4-0.6
				c0.2-15.7,0.3-31.3,0.4-47C298.5,224.8,298.4,224,297.6,223.3z M242.6,108.7c-0.1,0.7-0.2,0.9-0.2,1.2c0,8.6,0.1,17.1,0.1,25.7
				c0,0.4,0,0.7,0.1,1.1c0.1,0.4,0.3,0.7,0.7,0.7c0.4,0,0.6-0.3,0.7-0.7c0.1-0.4,0.1-0.9,0.1-1.3c0.1-7,0.2-14.1,0.3-21.1
				C244.5,112.3,243.6,110.7,242.6,108.7z M228.3,75.8c0,5.7,0,11.3,0,17c0,0.9,0.2,1.6,1.3,1.6c1,0,1.9-0.3,1.9-1.5
				C231.6,87,232.2,81.1,228.3,75.8z M348.4,292.1c0.6-0.2,0.5-0.7,0.5-1.1c0.1-9.2,0.1-18.4,0.1-27.6c0-0.9-0.2-1.8-1-2.5
				C346.8,266.5,347.1,289.8,348.4,292.1z M250.9,79.4C250.9,79.4,251,79.4,250.9,79.4c0-3.2,0.1-6.3,0-9.5c0-0.6,0-1.3-0.2-1.9
				c-0.1-0.5-0.3-1.1-0.9-1c-0.5,0.1-0.5,0.7-0.5,1.1c-0.1,2.1-0.3,4.2-0.3,6.2c-0.1,5.2,0.1,10.5-0.3,15.7c-0.1,0.7-0.7,2,0.5,2.1
				c1,0.1,1.4-1.1,1.6-2c0.1-0.6,0.1-1.1,0.1-1.7C250.9,85.4,250.9,82.4,250.9,79.4z M315.4,254.1c0,8.5,0,16.5,0,24.5
				c0,0.7,0.1,1.6,1,1.6c1,0,0.5-1,0.6-1.6c0.4-6.6,0.2-13.2,0.4-19.8C317.4,257.1,317,255.7,315.4,254.1z M210.9,64
				c0,1.9,0,3.9,0,5.8c0,0.6-0.4,1.7,0.7,1.6c0.9,0,1.7-0.5,2-1.4c0.2-0.5,0.1-1.1,0.1-1.7c-0.1-4.5-0.2-8.9-0.3-13.4
				c0-0.6,0.5-1.7-0.6-1.7c-0.8,0-1.1,0.8-1.3,1.7C210.8,58,211,61,210.9,64z M233.8,252.3c0.4-0.7,0.3-1.4,0.3-2.1
				c0-10.6,0.1-21.2,0.1-31.8c0-1,0.1-2,0.1-3c0-0.4,0-1-0.5-1c-0.7-0.1-0.7,0.5-0.8,1c0,0.3,0,0.6,0,0.9c0,11.4,0,22.8,0.1,34.2
				C233,251.1,232.7,251.9,233.8,252.3z M299.5,226.9c0.3,15.4-0.5,30.6-0.3,45.8c0,0.5-0.2,1.4,0.6,1.4c1,0,0.5-1,0.5-1.5
				c0-14.5-0.1-29-0.1-43.5C300.1,228.4,300.3,227.6,299.5,226.9z M226.2,139c1.3-1.1,1-2,1-2.7c0-6.5,0-12.9,0.1-19.4
				c0-1.8,0-3.6,0-5.4c0-0.7-0.2-1.4-1.1-1.3c-0.8,0.1-0.7,0.7-0.7,1.3c0.1,6.8,0.2,13.5,0.3,20.3C225.8,134,226,136.3,226.2,139z
				 M350,264.6c0,1,0,1.7,0,2.4c0,7.7-0.1,15.4-0.1,23c0,1-0.8,2.9,0.6,2.9c1.3,0,0.9-2,0.9-3.1c0.1-7.4,0.1-14.8,0.1-22.2
				C351.4,266.5,351.1,265.5,350,264.6z M233.3,81.6c0.1,0,0.3,0,0.4-0.1c0-3.6,0-7.2,0-10.7c0-3.1,0-3.1-3.1-2.9
				c-2.3,0.1-2.7,0.6-1.8,2.8C230.2,74.3,231.8,77.9,233.3,81.6z M250.6,121.6c0.1,0,0.3,0,0.4,0c0-3.1,0-6.3,0-9.4
				c0-0.7,0-1.5-0.1-2.1c-0.4-1.8-2.2-2.4-4.4-1.7c-2.2,0.7-0.8,2-0.4,2.9C247.5,114.7,249.1,118.2,250.6,121.6z M7.5,172.5
				C7.5,172.5,7.5,172.5,7.5,172.5c0-2.2,0-4.5,0-6.7c0-0.7-0.3-1.2-1.1-1.2c-0.8,0-1.1,0.5-1.2,1.2c-0.1,1.4-0.3,2.9-0.3,4.3
				c-0.1,2.7-0.1,5.3-0.2,8c0,1.3,0.9,1.9,2,1.9c1.3,0,0.8-1.2,0.8-1.8C7.6,176.3,7.5,174.4,7.5,172.5z M227.2,158.1
				c-0.3,0-0.7-0.1-1-0.1c0,12.1,0,24.3,0,36.4c0.2,0,0.4,0,0.5,0C226.8,182.3,226.8,170.2,227.2,158.1z M224.5,248.8
				c0-10.2,0-20.3,0-30.7C223.4,220.4,223.1,246.8,224.5,248.8z M226.7,216.1c-0.2,0-0.4,0-0.7,0c0,11.2,0,22.3,0,33.5
				C226.6,238.3,226.9,227.2,226.7,216.1z M226.5,71.2c-0.3,7.6-0.6,14.6-0.8,21.6c0,0.6-0.7,1.6,0.5,1.7c1.1,0.1,1.1-0.9,1.1-1.7
				c0.1-6.2,0.2-12.3,0.3-18.5C227.6,73.3,227.3,72.5,226.5,71.2z M117.4,203.9c0,3.2,0,6.3,0,9.5c0,1.6,1.2,1.9,2.3,2
				c1.4,0.1,0.9-1.2,0.9-1.9c0.1-1.8,0-3.6,0.1-5.3C120.9,205.8,120.5,204,117.4,203.9z M352.2,268.9c0,6.3,0,12.6,0,18.9
				c0,1.7,0,3.3,0,5c0,0.6,0.1,1.3,0.8,1.3c0.9,0,0.6-0.8,0.6-1.3c0-1.8-0.3-3.5-0.2-5.4c0.4-5.3,0.1-10.6,0.1-15.9
				C353.6,270.5,353.6,269.6,352.2,268.9z M354.2,271.3c0.8,8.3-0.3,16.1,1.8,23.7c0.5-0.7,0.2-1.4,0.2-2.1c0.1-5.4,0-10.8,0.2-16.1
				C356.5,274.7,355.8,273.2,354.2,271.3z M293.4,215.5c-0.5,16.5,0.4,33.1,0.1,49.6c0.2,0,0.4,0,0.7,0
				C293.9,248.5,293.6,232,293.4,215.5z M243.2,245.7c0.3,0,0.5,0,0.8,0c0-10,0-20.1,0-30.1c0-0.5,0.1-1.1-0.6-1.2
				c-0.7,0-0.7,0.6-0.7,1.1c0,0.5,0,1,0,1.5c0.1,9,0.2,17.9,0.3,26.9C242.9,244.5,242.6,245.2,243.2,245.7z M46.3,135.5
				c-0.1,0-0.3,0-0.4,0c-0.8,18.5-1.6,36.9-2.4,55.4c0.1,0,0.2,0,0.4,0C44.8,172.5,45.5,154,46.3,135.5z M304.4,234.9
				c-0.2,0-0.4,0-0.6-0.1c0,13.5,0,27.1,0,40.6C304.7,261.9,304.3,248.4,304.4,234.9z M161.6,223.6
				C161.6,223.6,161.6,223.6,161.6,223.6c0-1.3,0-2.6,0-3.9c0-0.8-0.4-1.2-1.2-1.2c-0.7,0-1.1,0.3-1.2,1c-0.1,2.4-0.3,4.9-0.3,7.3
				c0,1.2,0.9,1.4,1.8,1.5c1.2,0.1,0.9-0.8,1-1.5C161.7,225.7,161.6,224.7,161.6,223.6z M325.1,268.6c-0.4,4.6-0.9,9-1.3,13.3
				c-0.1,0.8,0,1.5,1,1.6c1.1,0.1,0.8-0.8,0.9-1.3c0.2-3.7,0.4-7.4,0.6-11.2C326.3,270,325.9,269.4,325.1,268.6z M319.4,260.4
				c-0.4,4.5-0.6,8.7-0.6,12.9c0,0.7,0,1.4,0.9,1.4c0.9,0,0.7-0.8,0.7-1.3c0.4-3.5,0.3-7,0.3-10.5
				C320.8,262,320.4,261.2,319.4,260.4z M420.9,359.5c0,0,0-0.1,0-0.1c1.1,0,2.1,0,3.2,0c0.8,0,1.5-0.1,1.5-1.1
				c0-0.8-0.5-1.4-1.2-1.5c-2.1-0.3-4.1-0.3-6.2-0.1c-1,0.1-1.3,0.9-1.3,1.9c0,1.2,0.9,1,1.7,1C419.3,359.5,420.1,359.5,420.9,359.5
				z M327.2,271.8c-0.2,3.7-0.4,7.1-0.5,10.6c0,0.6-0.1,1.2,0.2,1.7c0.3,0.4,0.6,0.6,1.1,0.6c0.3,0,0.6-0.2,0.6-0.5
				c-0.3-1.4,1.4-3.1-0.7-4.2c-0.4-0.2-0.7-0.8-0.2-1c1.7-0.6,1.2-2,1.3-3.2C329.1,274.2,328.7,273,327.2,271.8z M359.3,280
				c0,2.6,0,5.3,0,7.9c0,2.3-0.2,4.6-0.3,6.9c0,0.8-0.3,2.1,1,1.9c1-0.1,0.7-1.6,0.5-2c-1-1.5-0.1-2.9,0-4.4
				c0.2-2.8,0.2-5.6,0.3-8.4C360.8,281.1,360.4,280.5,359.3,280z M357.4,295.6c0.1,0,0.2,0,0.4,0.1c0.1-0.2,0.2-0.4,0.2-0.6
				c0.3-5.2,0.5-10.3,0.8-15.5c0.1-1.2-0.1-2.4-1.3-3.2C357.4,282.9,357.4,289.3,357.4,295.6z M364.4,286.4c-1,3.9-0.4,7.6-0.7,11.3
				c-0.1,0.6,0.4,0.9,0.9,0.9c0.7,0,0.7-0.6,0.7-1.1c0.1-2.9,0.2-5.7,0.4-8.6C365.7,288.1,365.4,287.3,364.4,286.4z M428.9,280.3
				c0,15.9,0.6,31.9,0.6,47.8C429.4,312.2,429.9,296.2,428.9,280.3z M362.5,297.3c0.2-3.8,0.4-7.6,0.6-11.4c0.1-1.2-0.2-2.2-1.3-3.1
				C361.4,287.8,361.8,292.6,362.5,297.3z M193.9,234.6C193.9,234.6,193.9,234.6,193.9,234.6c0-1.1,0-2.1,0-3.2
				c0-0.5-0.3-0.8-0.8-0.8c-0.5,0-0.9,0.3-0.9,0.7c0,2.1-0.1,4.1,0,6.2c0,0.7,0.5,1,1.2,1c0.8,0,0.6-0.7,0.6-1.1
				C193.9,236.4,193.9,235.5,193.9,234.6z M410.6,293.4c-0.2-4.9,0.5-14.3,0-23.7C410.6,279.1,410.6,288.6,410.6,293.4z"/>
		</g>
	</g>
</g>
<g id="ship">
	<g id="XMLID_191_">
		<path id="XMLID_192_" class="st1" d="M309.2,337.4c0.4,0,0.7,0,1.1,0c0.2,0.3,0.1,0.6,0.1,0.9c0,1.7,0,3.4,0,5.1
			c0,0.7,0.2,1,0.9,1.2c2.1,0.6,4.1,1.2,6.2,1.8c0.2,0.1,0.6,0.1,0.6,0.4c0.1,0.5,0.4,0.4,0.7,0.4c5.1-1.1,10.2-2.3,15.4-3.4
			c1.7-0.4,3.3-0.6,4.9-1.2c0.9-0.3,1.7-0.5,2.6-0.5c1,0,1,0,1,1c0,3.8,0,7.7,0,11.5c0,0.9,0,0.9,0.9,0.9c7.2,0,14.4,0,21.5-0.1
			c1.8,0,1.7-0.3,1.8,1.7c0,0.5,0.2,0.6,0.7,0.7c0.9,0,1.7,0.1,2.6,0.1c1.7,0,1.5,0.1,1.5-1.5c0-0.1,0-0.1,0-0.2
			c-0.1-0.6,0.2-0.8,0.8-0.8c3.1,0,6.2-0.1,9.3-0.1c0.9,0,0.9,0,0.9-0.9c0-3.6,0-7.1,0-10.7c0-0.5,0.1-0.8,0.7-0.7c0.5,0,1,0,1.5,0
			c0.2,0,0.4,0,0.5,0.1c0.2,0.5,0.7,0.5,1.1,0.6c8,2.6,16,5.2,23.9,7.8c1.4,0.5,2.8,1.1,4.3,1.2c0.2,0,0.3,0.2,0.4,0.4
			c0.2,0.7,0.1,1.3,0.1,2c0,0.5,0.2,0.8,0.7,0.7c0.4,0,0.7,0,1.1,0c0.7,0,1.3,0,2,0c0.7,0,0.8,0.2,0.5,0.8c-0.2,0.4-0.4,0.9-0.7,1.3
			c-0.5,0.8-0.5,1.6-0.5,2.4c0,0.4,0.2,0.6,0.6,0.6c0.5,0,0.9,0,1.4,0c0.9,0,0.9,0,0.9,0.9c0,0.5,0,1.1,0,1.6c0,0.7,0.1,0.8,0.8,0.8
			c1.7,0.1,3.4,0.1,5.1,0.2c0.3,0,0.6-0.1,0.7,0.3c0.1,0.4,0.1,0.7-0.2,1.1c-0.1,0.1-0.2,0.2-0.3,0.4c-0.9,0.9-1.8,1.8-2.7,2.7
			c-0.6,0.6-1.2,1.3-1.4,2.2c-0.1,0.5-0.4,0.7-0.9,0.7c-1.2,0-2.3-0.1-3.5-0.1c-10.2-0.1-18,0.8-28.2,0.7c-9.7-0.1-21.4,0.1-31.1,0
			c-10.2-0.1-20.9-0.5-31-0.6c-10.8-0.1-21.5-0.3-32.4-0.7c-0.6,0-1-0.2-1.4-0.7c-0.6-0.8-0.9-1.6-1.3-2.5c0-1.2,0-2.3,0-3.5
			c0.3-1.2,0.3-1.2,1.5-1.3c0.4,0,0.6-0.2,0.6-0.6c0-0.7,0-1.4,0-2.1c0-0.9,0.2-1.6,0.9-2.3c1.2-1.3,2.3-2.6,3.4-3.9
			c0.3-0.4,0.5-0.7,0.5-1.2c0-1.3,0-2.6,0-4c0-0.4,0-0.7,0.5-0.7c0.3,0,0.3-0.3,0.3-0.5c0-0.5,0-1,0-1.5c0-0.8,0.1-0.8,0.8-0.9
			c0.4,0,0.7,0,1.1,0c0.3,0,0.5-0.1,0.6-0.5c0.1-0.5,0.2-0.9-0.1-1.3c-0.2-0.4-0.3-0.8-0.5-1.1c-0.2-0.7,0.3-1.5,1-1.5
			c1.4,0,2.9,0,4.3,0c0.5,0,0.7-0.2,0.7-0.7C309.2,339.4,309.2,338.4,309.2,337.4z M318.8,352.6
			C318.8,352.6,318.8,352.6,318.8,352.6c0,1,0,2.1,0,3.1c0,0.5,0.2,0.7,0.7,0.7c0.2,0,0.5-0.1,0.7,0.3c0.3,0.6,1.2,0.6,1.6,0
			c0.2-0.3,0.4-0.3,0.7-0.3c0.3,0,0.3,0.3,0.3,0.5c0,0.5,0.3,0.6,0.7,0.6c2.9,0,5.8,0,8.7,0c0.4,0,0.7-0.1,0.6-0.5
			c0-0.4,0.2-0.4,0.5-0.4c0.3,0,0.4,0.2,0.4,0.5c0,0.5,0.2,0.6,0.6,0.6c1.6,0,3.1,0,4.7,0c0.5,0,0.7-0.2,0.7-0.7c0-1.7,0-3.5,0-5.2
			c0-0.5-0.2-0.7-0.7-0.8c-1.4-0.1-2.8-0.3-4.2-0.4c-2.8-0.3-5.5-0.5-8.3-0.8c-2.4-0.2-4.9-0.5-7.3-0.7c-0.4,0-0.6,0.1-0.5,0.5
			C318.8,350.5,318.8,351.6,318.8,352.6z M411.8,352.7c-0.2-0.1-0.2-0.2-0.2-0.2c-8.5-2.8-17-5.6-25.4-8.4c-0.5-0.2-0.7-0.1-0.7,0.5
			c0,2.5,0,4.9,0,7.4c0,0.6,0.2,0.8,0.8,0.8c8.3,0,16.5,0,24.8,0C411.2,352.7,411.4,352.7,411.8,352.7z M318.7,347.6
			c0.3,0.3,0.5,0.3,0.7,0.3c3.2,0.3,6.3,0.6,9.5,0.9c3.4,0.3,6.7,0.6,10.1,0.9c0.6,0.1,0.7-0.1,0.7-0.6c0-1.8,0-3.7,0-5.5
			c0-0.7,0-0.7-0.7-0.6c-5.6,1.3-11.2,2.5-16.7,3.8C321.2,347,320,347.3,318.7,347.6z M414.4,356.3
			C414.4,356.3,414.4,356.3,414.4,356.3c0-0.5,0-1.1,0-1.6c0-0.4-0.2-0.6-0.6-0.6c-0.6,0-1.3,0.1-1.9,0.1
			c-5.2,0.1-10.4,0.1-15.6,0.2c-3.3,0-6.7,0-10,0.1c-0.4,0-0.8,0-0.8,0.6c0,0.8,0,1.7,0,2.5c0,0.3,0.1,0.5,0.5,0.5
			c1.3-0.1,2.7-0.1,4-0.1c0.3,0,0.5-0.2,0.5-0.5c0-0.1,0-0.3,0-0.4c0-1,0-1,1-1c3.5,0,7,0,10.5,0c2.3,0,4.6,0,6.9,0
			c0.6,0,0.9,0.1,0.9,0.8c0,0.4,0.1,0.7,0.1,1.1c0,0.6,0.2,0.8,0.8,0.8c1.1,0,2.3,0,3.4,0c0.4,0,0.5-0.2,0.5-0.5
			C414.4,357.5,414.4,356.9,414.4,356.3z M417.1,356.2C417.1,356.2,417.1,356.2,417.1,356.2c-0.5,0-1,0-1.4,0
			c-0.3,0-0.5,0.1-0.5,0.4c0,0.5,0,1,0,1.5c0,0.3,0.2,0.5,0.5,0.5c0.6,0,1.1,0,1.7,0c0.3,0,0.4-0.1,0.5-0.3c0.3-0.5,0.6-1.1,0.9-1.6
			c0.2-0.3,0-0.4-0.3-0.4C418,356.2,417.6,356.2,417.1,356.2z"/>
	</g>
</g>
</svg>
