<?xml version="1.0" encoding="utf-8"?>
<!-- Generator: Adobe Illustrator 19.0.0, SVG Export Plug-In . SVG Version: 6.00 Build 0)  -->
<svg version="1.0" id="Layer_1" xmlns="http://www.w3.org/2000/svg" xmlns:xlink="http://www.w3.org/1999/xlink" x="0px" y="0px"
	 viewBox="0 0 960 560" style="enable-background:new 0 0 960 560;" xml:space="preserve">
<style type="text/css">
	.st0{fill:#e8e8e8;}
</style>
<path id="XMLID_329_" class="st0" d="M749.5-0.1c-0.5,0.9-1.3,1.6-2.1,2.3C562.5,187.1,377.6,372,192.8,556.9c-1,1-2.1,1.9-2.9,3.1
	c-1.3,0-2.6,0-3.8,0c0-0.7,0.5-1.2,0.9-1.6c0.6-0.6,1.2-1.2,1.9-1.9C373.3,372,557.9,187.5,742.4,2.9c1-1,2-1.8,2.7-3
	C746.6-0.1,748.1-0.1,749.5-0.1z"/>
<path id="XMLID_328_" class="st0" d="M636.7-0.1c-0.5,0.9-1.3,1.6-2.1,2.3C449.7,187.1,264.8,372,80,556.9c-1,1-2.1,1.9-2.9,3.1
	c-1.3,0-2.6,0-3.8,0c0-0.7,0.5-1.2,0.9-1.6c0.6-0.6,1.2-1.2,1.9-1.9C260.5,372,445.1,187.5,629.6,2.9c1-1,2-1.8,2.7-3
	C633.8-0.1,635.3-0.1,636.7-0.1z"/>
<path id="XMLID_327_" class="st0" d="M298.8,560.1c0.1-0.8,0.6-1.3,1.1-1.8c0.6-0.6,1.2-1.2,1.9-1.9
	C486.2,372,670.6,187.5,855.1,3.1c1-1,2.1-1.9,2.9-3.2c1.4,0,2.9,0,4.3,0c-0.5,0.8-1.2,1.5-1.9,2.2
	C693.8,168.7,527.3,335.2,360.7,501.8c-18.6,18.6-37.1,37.1-55.7,55.6c-0.8,0.8-1.6,1.8-2.4,2.6
	C301.3,560.1,300.1,560.1,298.8,560.1z"/>
<path id="XMLID_326_" class="st0" d="M101,560.1c0.6-1,1.4-1.7,2.2-2.5C288.1,372.7,473,187.8,657.9,2.9c1-1,2-1.8,2.8-3
	c1.3,0,2.6,0,3.8,0c0,0.7-0.5,1.2-0.9,1.6c-0.6,0.6-1.2,1.2-1.9,1.9C477.2,188,292.6,372.5,108.1,557.1c-1,1-2,1.8-2.7,3
	C103.9,560.1,102.5,560.1,101,560.1z"/>
<path id="XMLID_325_" class="st0" d="M213.8,560.1c0.6-1,1.4-1.7,2.2-2.5C400.9,372.7,585.8,187.8,770.7,2.9c1-1,2-1.8,2.8-3
	c1.3,0,2.6,0,3.8,0c0,0.7-0.5,1.2-0.9,1.6c-0.6,0.6-1.2,1.2-1.9,1.9C590,188,405.4,372.5,220.9,557.1c-1,1-2,1.8-2.7,3
	C216.7,560.1,215.3,560.1,213.8,560.1z"/>
<path id="XMLID_324_" class="st0" d="M327.1,560.1c0-0.5,0.2-0.9,0.6-1.3c0.5-0.5,1-1,1.5-1.5c158-158,315.9-316,473.9-473.9
	c27-27,54-54,80.9-80.9c0.8-0.8,1.7-1.5,2.2-2.5c1.3,0,2.6,0,3.8,0c0.1,0.6-0.3,1-0.7,1.4c-0.6,0.6-1.1,1.1-1.7,1.7
	c-184.7,184.7-369.3,369.3-554,554c-1,1-2,1.8-2.8,3C329.7,560.1,328.4,560.1,327.1,560.1z"/>
<path id="XMLID_323_" class="st0" d="M143.7,560.1c0-0.6,0.3-1,0.7-1.4c0.6-0.6,1.1-1.1,1.7-1.7C330.9,372.2,515.6,187.5,700.4,2.7
	c0.9-0.9,1.9-1.7,2.6-2.8c1.3,0,2.6,0,3.8,0c0.1,0.5-0.2,0.9-0.6,1.3c-0.6,0.6-1.1,1.1-1.7,1.7C519.7,187.7,334.9,372.5,150.2,557.3
	c-0.9,0.9-1.9,1.7-2.6,2.8C146.3,560.1,145,560.1,143.7,560.1z"/>
<path id="XMLID_322_" class="st0" d="M256.5,560.1c0-0.5,0.2-0.9,0.6-1.3c0.6-0.6,1.1-1.1,1.7-1.7
	C443.6,372.3,628.4,187.5,813.2,2.7c0.9-0.9,1.9-1.7,2.6-2.8c1.3,0,2.6,0,3.8,0c0.1,0.5-0.2,0.9-0.6,1.3c-0.6,0.6-1.2,1.3-1.9,1.9
	C632.4,187.8,447.7,372.5,263,557.3c-0.9,0.9-1.9,1.7-2.6,2.8C259.1,560.1,257.8,560.1,256.5,560.1z"/>
<path id="XMLID_321_" class="st0" d="M579.1-0.1c0.1,0.5-0.2,0.9-0.6,1.3c-0.6,0.6-1.2,1.3-1.9,1.9
	C391.9,187.8,207.2,372.5,22.5,557.3c-0.9,0.9-1.9,1.7-2.6,2.8c-1.3,0-2.6,0-3.8,0c0-0.5,0.2-0.9,0.6-1.3c0.6-0.6,1.1-1.1,1.7-1.7
	C203.1,372.3,387.9,187.5,572.7,2.7c0.9-0.9,1.9-1.7,2.6-2.8C576.5-0.1,577.8-0.1,579.1-0.1z"/>
<path id="XMLID_320_" class="st0" d="M383.3,560.1c0-0.5,0.2-0.9,0.6-1.3c0.6-0.6,1.1-1.1,1.7-1.7
	C570.3,372.3,755.1,187.5,939.9,2.7c0.9-0.9,1.9-1.7,2.6-2.8c1.3,0,2.6,0,3.8,0c0.1,0.5-0.2,0.9-0.6,1.3c-0.6,0.6-1.1,1.1-1.7,1.7
	C759.3,187.7,574.5,372.5,389.7,557.3c-0.9,0.9-1.9,1.7-2.6,2.8C385.8,560.1,384.5,560.1,383.3,560.1z"/>
<path id="XMLID_319_" class="st0" d="M847.9-0.1c-0.4,1.2-1.4,1.9-2.3,2.7c-35.7,35.8-71.5,71.4-107.2,107.3
	C625.9,222.8,513.1,335.4,400.4,448c-36.7,36.6-73.3,73.3-110,109.9c-0.7,0.7-1.5,1.5-2.2,2.2c-1.3,0-2.6,0-3.8,0
	c0.7-1.2,1.8-2.1,2.7-3c143.2-143.2,286.4-286.4,429.6-429.6c41.6-41.6,83.1-83.1,124.7-124.7c0.9-0.9,1.8-1.9,2.6-2.8
	C845.3-0.1,846.6-0.1,847.9-0.1z"/>
<path id="XMLID_318_" class="st0" d="M-0.3,533.2c0.8-0.7,1.6-1.4,2.3-2.1C178.3,354.8,354.6,178.5,530.9,2.2
	c0.7-0.7,1.4-1.5,2.1-2.3c1.3,0,2.6,0,3.8,0c0,0.6-0.4,1-0.8,1.4c-0.6,0.6-1.1,1.1-1.7,1.7C357.2,180.2,180.1,357.4,2.9,534.6
	c-0.9,0.9-1.7,2.2-3.1,2.5C-0.3,535.8-0.3,534.5-0.3,533.2z"/>
<path id="XMLID_317_" class="st0" d="M960.2,28.7c-0.9,1.3-2,2.3-3.1,3.3C782.2,207,607.3,381.9,432.4,556.8
	c-1.1,1.1-2.2,2.1-3.1,3.3c-1.3,0-2.6,0-3.8,0c0.1-0.7,0.5-1.2,0.9-1.6c0.5-0.5,1-1,1.5-1.5C604.3,380.6,780.7,204.2,957.1,27.8
	c0.9-0.9,1.7-2.2,3.1-2.5C960.2,26.5,960.2,27.6,960.2,28.7z"/>
<path id="XMLID_316_" class="st0" d="M-0.3,504.9c1.2-0.7,2-1.8,3-2.7C158.9,346,315,189.9,471.1,33.8c10.5-10.5,21-21,31.6-31.6
	c0.7-0.7,1.5-1.4,2.1-2.3c1.4,0,2.9,0,4.3,0c-0.5,0.9-1.2,1.5-1.9,2.2C338.9,170.3,170.7,338.5,2.5,506.6c-0.8,0.8-1.5,1.9-2.8,2.1
	C-0.3,507.4-0.3,506.2-0.3,504.9z"/>
<path id="XMLID_315_" class="st0" d="M960.2,57c-1,1.1-2,2.2-3.1,3.3C791.5,225.9,626,391.5,460.4,557.1c-1,1-2,1.8-2.7,3
	c-1.4,0-2.9,0-4.3,0c0.5-0.8,1.2-1.5,1.9-2.2C622.6,390.5,790,223.2,957.4,55.8c0.8-0.8,1.5-1.9,2.8-2.1
	C960.2,54.8,960.2,55.9,960.2,57z"/>
<path id="XMLID_314_" class="st0" d="M228.2,560.1c0.4-1.1,1.3-1.8,2.1-2.6c21.6-21.6,43.2-43.2,64.8-64.8
	C458.4,329.5,621.6,166.2,784.8,3c0.9-0.9,2.1-1.7,2.6-3.1c1.4,0,2.9,0,4.3,0c-0.7,1.2-1.8,2.1-2.7,3
	C617.9,174,446.8,345.1,275.7,516.2c-13.8,13.8-27.6,27.6-41.4,41.4c-0.8,0.8-1.5,1.6-2.3,2.4C230.8,560.1,229.5,560.1,228.2,560.1z
	"/>
<path id="XMLID_313_" class="st0" d="M115.4,560.1c0.4-1.1,1.3-1.8,2.1-2.6c22.8-22.9,45.7-45.7,68.5-68.6C348.1,327,510,165,672,3
	c0.9-0.9,2.1-1.7,2.6-3.1c1.4,0,2.9,0,4.3,0c-0.7,1.2-1.8,2.1-2.7,3C504.8,174.4,333.4,345.8,161.9,517.2
	c-13.5,13.5-26.9,26.9-40.4,40.4c-0.8,0.8-1.5,1.6-2.3,2.5C118,560.1,116.7,560.1,115.4,560.1z"/>
<path id="XMLID_312_" class="st0" d="M354.9,560.1c0.4-1.2,1.5-1.9,2.3-2.7c45.5-45.5,91.1-91.1,136.6-136.6
	C633.1,281.5,772.3,142.3,911.5,3c0.9-0.9,2.1-1.7,2.6-3.1c1.4,0,2.9,0,4.3,0c-0.7,1.2-1.8,2.1-2.7,3
	C744.2,174.5,572.6,346,401.1,517.6c-13.3,13.3-26.7,26.7-40,40c-0.8,0.8-1.5,1.6-2.3,2.4C357.5,560.1,356.2,560.1,354.9,560.1z"/>
<path id="XMLID_311_" class="st0" d="M199.9,560.1c0.6-1.3,1.7-2.1,2.7-3c109-109.1,218.1-218.1,327.1-327.2
	C605.5,154.1,681.3,78.3,757.1,2.5c0.8-0.8,1.7-1.7,2.5-2.6c1.3,0,2.6,0,3.8,0c-0.5,1.2-1.6,2-2.5,2.9
	C693.3,70.5,625.6,138.1,558,205.7C440.7,323.1,323.4,440.4,206.1,557.7c-0.8,0.8-1.5,1.6-2.3,2.4
	C202.5,560.1,201.2,560.1,199.9,560.1z"/>
<path id="XMLID_310_" class="st0" d="M368.9,560.1c0.6-1.2,1.7-2.1,2.7-3C489,439.6,606.5,322.1,724,204.6
	C791.3,137.3,858.7,69.9,926.1,2.5c0.8-0.8,1.6-1.7,2.5-2.6c1.3,0,2.6,0,3.8,0c-0.4,1.2-1.5,1.9-2.3,2.7
	c-65.6,65.6-131.2,131.2-196.8,196.8C613.8,318.9,494.3,438.4,374.9,557.9c-0.7,0.7-1.4,1.5-2.2,2.2
	C371.4,560.1,370.1,560.1,368.9,560.1z"/>
<path id="XMLID_309_" class="st0" d="M242.1,560.1c0.6-1.2,1.7-2.1,2.7-3c117.3-117.3,234.6-234.6,351.9-351.9
	C664.3,137.6,731.8,70.1,799.3,2.5c0.8-0.8,1.6-1.7,2.5-2.6c1.3,0,2.6,0,3.8,0c-0.4,1.2-1.5,1.9-2.3,2.7
	C738,68,672.6,133.4,607.2,198.8C487.5,318.5,367.8,438.2,248.1,557.9c-0.7,0.7-1.4,1.5-2.2,2.2
	C244.7,560.1,243.4,560.1,242.1,560.1z"/>
<path id="XMLID_308_" class="st0" d="M834-0.1c-0.4,0.9-1.2,1.5-1.8,2.2c-61,61-122.1,122.1-183.1,183.1
	C596,238.3,543,291.3,489.9,344.4c-71,71-142.1,142.1-213.1,213.1c-0.8,0.8-1.6,1.7-2.5,2.6c-1.3,0-2.6,0-3.8,0
	c0.5-1.2,1.6-2,2.5-2.9C376,454.1,479.2,351,582.3,247.9C664.1,166,746,84.2,827.8,2.3c0.8-0.8,1.6-1.6,2.3-2.4
	C831.4-0.1,832.7-0.1,834-0.1z"/>
<path id="XMLID_307_" class="st0" d="M904.5-0.1c-0.6,1.2-1.7,2.1-2.7,3C765.3,139.5,628.8,276,492.2,412.6
	c-48.4,48.4-96.7,96.7-145.1,145.1c-0.8,0.8-1.5,1.6-2.3,2.4c-1.3,0-2.6,0-3.8,0c0.5-1.2,1.5-1.9,2.3-2.7
	c44.6-44.6,89.1-89.1,133.7-133.7c92.6-92.6,185.2-185.2,277.8-277.8c47.8-47.8,95.6-95.6,143.4-143.4c0.8-0.8,1.7-1.7,2.5-2.6
	C902-0.1,903.3-0.1,904.5-0.1z"/>
<path id="XMLID_306_" class="st0" d="M171.6,560.1c0.6-1.1,1.7-1.9,2.6-2.8c147.8-147.8,295.6-295.6,443.4-443.4
	c37.1-37.1,74.2-74.2,111.3-111.3c0.8-0.8,1.6-1.7,2.5-2.6c1.3,0,2.6,0,3.8,0c-0.4,1.2-1.4,1.9-2.3,2.7
	c-39.9,39.9-79.7,79.8-119.6,119.6C467.9,267.5,322.7,412.8,177.4,558c-0.7,0.7-1.3,1.4-2,2C174.1,560.1,172.9,560.1,171.6,560.1z"
	/>
<path id="XMLID_305_" class="st0" d="M312.7,560.1c0.6-1.2,1.6-2,2.5-2.9C437.1,435.3,559,313.4,680.9,191.5
	c52-52,104.1-104.1,156.1-156.1c11.1-11.1,22.2-22.2,33.3-33.2c0.7-0.7,1.4-1.5,2.1-2.3c1.3,0,2.6,0,3.8,0c-0.5,1.2-1.6,2-2.5,2.9
	c-69.7,69.7-139.3,139.4-209,209.1C553.9,322.7,443.1,433.5,332.3,544.3c-5.3,5.3-10.5,10.5-15.7,15.8
	C315.3,560.1,314,560.1,312.7,560.1z"/>
<path id="XMLID_304_" class="st0" d="M721.2-0.1c-0.6,1.2-1.7,2.1-2.7,3c-136.6,136.7-273.3,273.3-409.9,410
	c-48.2,48.2-96.5,96.5-144.7,144.7c-0.8,0.8-1.5,1.6-2.3,2.4c-1.3,0-2.6,0-3.8,0c0.5-1.2,1.6-2,2.5-2.9
	c104.5-104.5,209-209.1,313.6-313.6C554.1,163.2,634.6,82.8,715,2.3c0.8-0.8,1.6-1.6,2.3-2.4C718.6-0.1,719.9-0.1,721.2-0.1z"/>
<path id="XMLID_303_" class="st0" d="M129.3,560.1c0.6-1.2,1.7-2.1,2.7-3c115.8-115.8,231.6-231.6,347.3-347.3
	C548.4,140.6,617.5,71.6,686.5,2.5c0.8-0.8,1.6-1.7,2.5-2.6c1.3,0,2.6,0,3.8,0c-0.4,1.2-1.5,1.9-2.3,2.7
	c-65.9,65.9-131.8,131.8-197.7,197.7C373.7,319.5,254.5,438.7,135.3,557.9c-0.7,0.7-1.4,1.5-2.2,2.2
	C131.9,560.1,130.6,560.1,129.3,560.1z"/>
<path id="XMLID_302_" class="st0" d="M87.1,560.1c0.6-1.3,1.7-2.1,2.7-3c107-107,214-214,321-321C488.6,158.2,566.5,80.3,644.3,2.5
	c0.8-0.8,1.7-1.7,2.5-2.6c1.3,0,2.6,0,3.8,0c-0.5,1.1-1.5,1.9-2.3,2.7C596.9,54,545.5,105.5,494,156.9
	C360.4,290.5,226.9,424.1,93.3,557.7c-0.8,0.8-1.5,1.6-2.3,2.4C89.7,560.1,88.4,560.1,87.1,560.1z"/>
<path id="XMLID_301_" class="st0" d="M58.8,560.1c0.7-1.2,1.8-2.1,2.7-3C206,412.6,350.4,268.2,494.9,123.7
	c40.3-40.3,80.7-80.7,121-121c0.9-0.9,1.7-1.9,2.6-2.8c1.3,0,2.6,0,3.8,0c-0.4,1.2-1.4,1.9-2.3,2.7C579.6,43.1,539.1,83.5,498.7,124
	C354,268.7,209.3,413.4,64.6,558c-0.7,0.7-1.3,1.4-2,2C61.3,560.1,60.1,560.1,58.8,560.1z"/>
<path id="XMLID_300_" class="st0" d="M608.4-0.1c-0.6,1.2-1.7,2.1-2.7,3C468.5,140.2,331.3,277.4,194,414.6
	c-47.7,47.7-95.4,95.4-143,143c-0.8,0.8-1.5,1.6-2.3,2.4c-1.3,0-2.6,0-3.8,0c0.5-1.2,1.6-2,2.5-2.9
	c104.5-104.5,208.9-208.9,313.4-313.4c80.5-80.5,161-161,241.5-241.5c0.8-0.8,1.6-1.6,2.3-2.4C605.8-0.1,607.1-0.1,608.4-0.1z"/>
<path id="XMLID_299_" class="st0" d="M30,560.1c0.5-1.2,1.6-2,2.5-2.9C137,452.7,241.5,348.1,346,243.6
	C426.5,163.2,506.9,82.8,587.3,2.3c0.8-0.8,1.6-1.6,2.3-2.4c1.3,0,2.6,0,3.8,0c-0.6,1.2-1.6,2-2.5,2.9
	c-82.6,82.6-165.3,165.3-247.9,247.9c-102.3,102.3-204.6,204.6-307,307c-0.8,0.8-1.5,1.6-2.3,2.4C32.5,560.1,31.3,560.1,30,560.1z"
	/>
<path id="XMLID_298_" class="st0" d="M1.7,560.1c0.6-1.2,1.7-2.1,2.7-3c118.1-118.1,236.2-236.2,354.3-354.3
	C425.4,136,492.1,69.3,558.9,2.5c0.8-0.8,1.6-1.7,2.5-2.6c1.3,0,2.6,0,3.8,0c-0.4,1.2-1.5,1.9-2.3,2.7
	C514.6,51,466.3,99.3,418,147.6C281.2,284.3,144.4,421.1,7.7,557.9c-0.7,0.7-1.4,1.5-2.2,2.2C4.2,560.1,2.9,560.1,1.7,560.1z"/>
<path id="XMLID_297_" class="st0" d="M960.2,0.9c-0.8,0.7-1.5,1.4-2.3,2.1C773.1,187.9,588.2,372.8,403.3,557.7
	c-0.8,0.8-1.5,1.6-2.3,2.4c-1.3,0-2.6,0-3.8,0c0.5-1.2,1.6-2,2.5-2.9c103-103.1,206.1-206.1,309.2-309.2
	C790.7,166.1,872.6,84.2,954.5,2.3c0.8-0.8,1.6-1.6,2.3-2.4c1,0,1.9,0,2.9,0C960.7-0.1,960,0.6,960.2,0.9z"/>
<path id="XMLID_296_" class="st0" d="M-0.3,547.1c1.3-0.5,2-1.5,2.9-2.4c54.8-54.8,109.6-109.6,164.4-164.4
	C292.9,254.5,418.6,128.8,544.3,3c0.9-0.9,2.1-1.7,2.6-3.1c1.4,0,2.9,0,4.3,0c-0.7,1.2-1.8,2.1-2.7,3
	C376.4,175,204.4,347.1,32.3,519.2c-10,10-19.9,19.9-29.9,29.9c-0.8,0.8-1.4,1.8-2.7,1.9C-0.3,549.7-0.3,548.4-0.3,547.1z"/>
<path id="XMLID_295_" class="st0" d="M960.2,14.8c-1,1-1.9,1.9-2.9,2.9C777.2,197.8,597.1,377.9,417,558c-0.7,0.7-1.3,1.4-2,2
	c-1.3,0-2.6,0-3.8,0c0.7-1.2,1.8-2.1,2.7-3c144.5-144.5,288.9-289,433.4-433.4c36.7-36.7,73.3-73.3,110-110c0.9-0.9,1.6-2.1,3-2.2
	C960.2,12.6,960.2,13.7,960.2,14.8z"/>
<path id="XMLID_294_" class="st0" d="M-0.3,462.6c0.9-0.5,1.5-1.2,2.1-1.9C154.8,307.9,307.7,155,460.6,2.1c0.7-0.7,1.4-1.3,1.9-2.1
	c1.3,0,2.6,0,3.8,0c0,0.5-0.2,0.9-0.6,1.3c-0.6,0.6-1.1,1.1-1.7,1.7C310.3,156.7,156.5,310.4,2.7,464.2c-0.9,0.9-1.5,2.1-3,2.3
	C-0.3,465.2-0.3,463.9-0.3,462.6z"/>
<path id="XMLID_293_" class="st0" d="M-0.3,518.8c1.2-0.3,1.8-1.3,2.6-2c8.8-8.8,17.5-17.5,26.3-26.3
	c162.7-162.7,325.3-325.3,488-488c0.8-0.8,1.7-1.7,2.5-2.6c1.3,0,2.6,0,3.8,0c-0.5,1.1-1.5,1.9-2.3,2.7
	c-38.9,38.9-77.8,77.8-116.7,116.7C270.2,253,136.6,386.7,2.9,520.3c-0.9,0.9-1.6,2.3-3.2,2.3C-0.3,521.4-0.3,520.1-0.3,518.8z"/>
<path id="XMLID_292_" class="st0" d="M960.2,99.3c-0.7,0.8-1.5,1.7-2.2,2.5C827.5,232.2,697.1,362.7,566.6,493.1
	c-21.6,21.6-43.1,43.1-64.7,64.7c-0.7,0.7-1.6,1.4-2.1,2.3c-1.3,0-2.6,0-3.8,0c0-0.6,0.4-1,0.7-1.4c0.5-0.5,1-1,1.5-1.5
	c153-153,305.9-305.9,458.9-458.9c0.9-0.9,1.6-2.1,3-2.3C960.2,97,960.2,98.2,960.2,99.3z"/>
<path id="XMLID_291_" class="st0" d="M960.2,43.1c-0.7,0.7-1.4,1.3-2.1,2C787.2,216,616.3,386.9,445.4,557.8
	c-0.7,0.7-1.4,1.5-2.2,2.3c-1.3,0-2.6,0-3.8,0c0.6-1.3,1.7-2.1,2.7-3c108.5-108.5,217-217.1,325.6-325.6
	C830.9,168.2,894.1,105,957.3,41.8c0.9-0.9,1.7-1.9,2.9-2.5C960.2,40.6,960.2,41.8,960.2,43.1z"/>
<path id="XMLID_290_" class="st0" d="M-0.3,490.5c0.7-0.1,1.2-0.5,1.6-1c0.6-0.6,1.1-1.1,1.7-1.7C164.8,326.1,326.5,164.4,488.2,2.7
	c0.9-0.9,1.7-1.9,2.6-2.8c1.3,0,2.6,0,3.8,0c-0.3,1.1-1.2,1.7-1.9,2.4c-8.2,8.3-16.5,16.5-24.8,24.8
	c-155,155-310.1,310.1-465.1,465.1c-1,1-1.8,2.1-3.1,2.6C-0.3,493.4-0.3,491.9-0.3,490.5z"/>
<path id="XMLID_289_" class="st0" d="M960.2,71c-0.8,1.2-1.9,2.2-2.9,3.2c-44.1,44.1-88.2,88.2-132.4,132.4
	c-47.5,47.5-94.9,94.9-142.4,142.4c-69.5,69.5-138.9,138.9-208.4,208.4c-0.9,0.9-1.7,1.9-2.6,2.8c-1.3,0-2.6,0-3.8,0
	c0.4-1.1,1.3-1.8,2.1-2.6c18.4-18.4,36.8-36.8,55.1-55.1c144-144,288.1-288.1,432.2-432.1c1-1,1.8-2.1,3.1-2.6
	C960.2,68.7,960.2,69.8,960.2,71z"/>
<path id="XMLID_288_" class="st0" d="M960.2,127.6c-1.1,1.2-2.2,2.4-3.3,3.5c-142,142-284,284-426,426c-1,1-2,1.8-2.7,3
	c-1.4,0-2.9,0-4.3,0c0.6-0.7,1.2-1.5,1.9-2.2c143.9-143.9,287.7-287.7,431.6-431.6c0.8-0.8,1.5-1.9,2.8-2.1
	C960.2,125.4,960.2,126.5,960.2,127.6z"/>
<path id="XMLID_287_" class="st0" d="M-0.3,476.6c1.1-0.3,1.7-1.2,2.4-1.9c5.9-5.9,11.9-11.9,17.8-17.8
	c151.5-151.5,303-303,454.5-454.5c0.8-0.8,1.6-1.6,2.3-2.4c1.3,0,2.6,0,3.8,0C480.1,1.2,479,2,478,3
	C339.6,141.4,201.1,279.9,62.6,418.3c-20,20-40,40-60.1,60.1c-0.8,0.8-1.4,2-2.8,2C-0.3,479.1-0.3,477.8-0.3,476.6z"/>
<path id="XMLID_286_" class="st0" d="M960.2,85.4c-12.1,12.1-24.2,24.2-36.3,36.3c-0.9,0.9-1.8,1.8-2.7,2.7
	C817.7,227.8,714.3,331.3,610.9,434.7c-41.1,41.1-82.1,82.1-123.2,123.2c-0.7,0.7-1.4,1.5-2.2,2.2c-1.3,0-2.6,0-3.8,0
	c0.6-1.2,1.7-2.1,2.7-3c117.1-117.1,234.2-234.2,351.4-351.4c40.5-40.5,81.1-81.1,121.6-121.6c0.9-0.9,1.7-1.9,2.9-2.5
	C960.2,82.8,960.2,84.1,960.2,85.4z"/>
<path id="XMLID_285_" class="st0" d="M-0.3,420.4c0.8-0.8,1.7-1.5,2.5-2.3C140.8,279.6,279.4,141,418,2.4c0.8-0.8,1.5-1.6,2.3-2.5
	c1.3,0,2.6,0,3.8,0c0,0.6-0.4,1-0.8,1.4c-0.6,0.6-1.1,1.1-1.7,1.7C282,142.6,142.5,282.2,2.9,421.8c-0.9,0.9-1.7,2.2-3.1,2.5
	C-0.3,423-0.3,421.7-0.3,420.4z"/>
<path id="XMLID_284_" class="st0" d="M960.2,141.5c-0.8,1.3-2,2.3-3.1,3.4C819.7,282.4,682.2,419.8,544.8,557.3
	c-0.9,0.9-1.8,1.9-2.6,2.8c-1.3,0-2.6,0-3.8,0c0.4-1.2,1.5-1.9,2.3-2.7c40.8-40.8,81.6-81.5,122.3-122.4
	c97.9-98.3,196.1-196.2,294.2-294.3c0.9-0.9,1.7-2.2,3.2-2.5C960.2,139.3,960.2,140.4,960.2,141.5z"/>
<path id="XMLID_283_" class="st0" d="M-0.3,448.2c0.8-0.2,1.4-0.8,1.9-1.3c0.6-0.6,1.2-1.2,1.9-1.9C151,297.6,298.4,150.2,445.9,2.7
	c0.9-0.9,1.8-1.8,2.6-2.8c1.3,0,2.6,0,3.8,0c-0.2,0.6-0.6,1-0.9,1.4c-0.6,0.6-1.1,1.1-1.7,1.7c-149,149-298,298-446.9,446.9
	c-1,1-1.8,2.1-3.1,2.7C-0.3,451.1-0.3,449.7-0.3,448.2z"/>
<path id="XMLID_282_" class="st0" d="M960.2,113.7c-0.7,0.7-1.4,1.3-2.1,2C818.8,255,679.4,394.4,540.1,533.7
	c-8,8-16.1,16-24.1,24.1c-0.7,0.7-1.4,1.5-2.1,2.3c-1.3,0-2.6,0-3.8,0c0.6-1.3,1.7-2.1,2.7-3c111-111,222-222.1,333-333.1
	c37.3-37.3,74.5-74.5,111.8-111.8c0.8-0.8,1.6-1.8,2.7-2.3C960.2,111.1,960.2,112.4,960.2,113.7z"/>
<path id="XMLID_281_" class="st0" d="M-0.3,392.1c0.8-0.5,1.5-1.2,2.2-1.9C131.3,260.8,260.6,131.5,390,2.1c0.7-0.7,1.4-1.3,1.9-2.2
	c1.4,0,2.9,0,4.3,0c-0.5,0.9-1.2,1.5-1.9,2.2C263.7,132.7,133.2,263.3,2.6,393.8c-0.8,0.8-1.5,2-2.8,2.1
	C-0.3,394.6-0.3,393.4-0.3,392.1z"/>
<path id="XMLID_280_" class="st0" d="M960.2,169.8c-0.9,1-1.8,2-2.8,3C829.3,301,701.2,429.1,573,557.3c-0.9,0.9-1.9,1.7-2.6,2.8
	c-1.3,0-2.6,0-3.8,0c0-0.6,0.3-1,0.7-1.4c0.6-0.6,1.1-1.1,1.7-1.7c129.4-129.4,258.8-258.8,388.2-388.2c0.9-0.9,1.6-2.1,3-2.3
	C960.2,167.6,960.2,168.7,960.2,169.8z"/>
<path id="XMLID_279_" class="st0" d="M-0.3,434.3c1.2-0.4,1.9-1.4,2.8-2.3c26.5-26.5,52.9-52.9,79.4-79.4
	C198.4,236.1,315,119.6,431.5,3c0.9-0.9,2.1-1.7,2.6-3.1c1.4,0,2.9,0,4.3,0c-0.4,0.9-1.2,1.5-1.9,2.2
	C291.9,146.8,147.1,291.6,2.4,436.3c-0.8,0.8-1.4,1.8-2.7,1.9C-0.3,436.9-0.3,435.6-0.3,434.3z"/>
<path id="XMLID_278_" class="st0" d="M-0.3,406c1.2-0.3,1.9-1.4,2.8-2.2c23.1-23.1,46.3-46.3,69.4-69.4
	C182.5,223.8,293.2,113.1,403.8,2.5c0.8-0.8,1.7-1.7,2.5-2.6c1.3,0,2.6,0,3.8,0c-0.5,1.1-1.5,1.9-2.3,2.7
	c-54.9,54.9-109.7,109.7-164.6,164.6C163.1,247.3,83,327.4,2.9,407.5c-0.9,0.9-1.6,2.3-3.2,2.3C-0.3,408.6-0.3,407.3-0.3,406z"/>
<path id="XMLID_277_" class="st0" d="M960.2,155.9c-0.9,0.8-1.7,1.7-2.6,2.5c-133,133-266,266-399.1,399.1c-0.8,0.8-1.7,1.7-2.5,2.6
	c-1.3,0-2.6,0-3.8,0c0.6-1.2,1.6-2,2.5-2.9c75.3-75.3,150.7-150.7,226-226c30.2-30.2,60.4-60.4,90.6-90.6
	c28.8-28.8,57.6-57.6,86.4-86.3c0.8-0.8,1.5-1.7,2.5-2.2C960.2,153.4,960.2,154.6,960.2,155.9z"/>
<path id="XMLID_276_" class="st0" d="M-0.3,349.8c0.7-0.6,1.5-1.2,2.1-1.9C117.2,232.7,232.5,117.4,347.7,2.1
	c0.7-0.7,1.4-1.3,1.9-2.1c1.3,0,2.6,0,3.8,0c0,0.5-0.2,0.9-0.6,1.3c-0.5,0.5-1,1-1.5,1.5C235.1,119,118.8,235.3,2.5,351.6
	c-0.8,0.8-1.5,2-2.8,2.1C-0.3,352.4-0.3,351.1-0.3,349.8z"/>
<path id="XMLID_275_" class="st0" d="M960.2,212.1c-0.8,1.2-1.9,2.2-2.9,3.2C843.4,329.2,729.5,443,615.6,556.9c-1,1-2.1,2-2.9,3.2
	c-1.3,0-2.6,0-3.8,0c0.2-1.3,1.3-2,2.1-2.8c20.9-20.9,41.7-41.7,62.6-62.6c94.5-94.5,189-189,283.5-283.5c0.9-0.9,1.7-2.2,3.2-2.5
	C960.2,209.8,960.2,211,960.2,212.1z"/>
<path id="XMLID_274_" class="st0" d="M-0.3,377.7c0.8-0.1,1.3-0.6,1.8-1.1c0.6-0.6,1.2-1.2,1.9-1.9
	C127.3,250.8,251.3,126.8,375.2,2.9c1-1,1.9-2,2.8-3c1.3,0,2.6,0,3.8,0c-0.3,1.1-1.2,1.7-1.9,2.4c-9,9.1-18.1,18.1-27.1,27.2
	C236.1,146.1,119.5,262.7,2.8,379.4c-1,1-1.8,2.1-3.1,2.6C-0.3,380.6-0.3,379.1-0.3,377.7z"/>
<path id="XMLID_273_" class="st0" d="M960.2,184.2c-0.8,0.7-1.5,1.4-2.3,2.1C834.2,310.1,710.4,433.9,586.7,557.6
	c-0.8,0.8-1.5,1.6-2.3,2.4c-1.3,0-2.6,0-3.8,0c0.5-1.2,1.6-2,2.5-2.9c103-103.1,206.1-206.1,309.1-309.2
	c21.8-21.8,43.5-43.6,65.3-65.3c0.8-0.8,1.6-1.8,2.7-2.3C960.2,181.7,960.2,183,960.2,184.2z"/>
<path id="XMLID_272_" class="st0" d="M-0.3,363.8c1.3-0.4,2-1.5,2.9-2.4c41.6-41.6,83.1-83.1,124.7-124.7
	C205.5,158.5,283.6,80.4,361.7,2.3c0.8-0.8,1.6-1.6,2.3-2.4c1.3,0,2.6,0,3.8,0c-0.4,0.9-1.2,1.5-1.8,2.2
	C244.8,123.3,123.6,244.5,2.4,365.7c-0.8,0.8-1.4,1.8-2.7,1.9C-0.3,366.3-0.3,365-0.3,363.8z"/>
<path id="XMLID_271_" class="st0" d="M960.2,198.2c-1,1-1.9,1.9-2.9,2.9c-119,119-238,238-357,357c-0.7,0.7-1.4,1.4-2,2.1
	c-1.3,0-2.6,0-3.8,0c0.5-0.9,1.2-1.5,1.9-2.2c120.4-120.4,240.8-240.8,361.2-361.2c0.8-0.8,1.4-1.8,2.7-1.9
	C960.2,195.9,960.2,197,960.2,198.2z"/>
<path id="XMLID_270_" class="st0" d="M960.2,240.4c-1.1,1.2-2.2,2.4-3.3,3.5C852.5,348.3,748.1,452.7,643.8,557.1c-1,1-2,1.8-2.7,3
	c-1.4,0-2.9,0-4.3,0c0.6-0.7,1.2-1.5,1.9-2.2c106.3-106.3,212.5-212.5,318.8-318.8c0.8-0.8,1.5-1.9,2.8-2.1
	C960.2,238.2,960.2,239.3,960.2,240.4z"/>
<path id="XMLID_269_" class="st0" d="M-0.3,307.6c0.8-0.8,1.7-1.5,2.5-2.3c101-101,202-202,302.9-302.9c0.8-0.8,1.5-1.6,2.3-2.5
	c1.3,0,2.6,0,3.8,0c0,0.6-0.4,1-0.8,1.4c-0.6,0.6-1.1,1.1-1.7,1.7C206.8,105,104.9,207,2.9,309c-0.9,0.9-1.7,2.2-3.2,2.5
	C-0.3,310.2-0.3,308.9-0.3,307.6z"/>
<path id="XMLID_268_" class="st0" d="M-0.3,335.4c1.3-0.3,2-1.4,2.8-2.2c28.8-28.8,57.6-57.6,86.4-86.4
	C170.3,165.5,251.7,84.1,333.1,2.7c0.9-0.9,1.8-1.9,2.6-2.8c1.3,0,2.6,0,3.8,0c-0.4,1.1-1.4,1.8-2.1,2.5
	c-20.2,20.3-40.5,40.5-60.7,60.8C185.4,154.5,94.1,245.8,2.8,337.1c-1,1-1.8,2.1-3.1,2.7C-0.3,338.3-0.3,336.9-0.3,335.4z"/>
<path id="XMLID_267_" class="st0" d="M960.2,226.5c-0.7,0.7-1.4,1.3-2.1,2C848.3,338.3,738.6,448,628.8,557.8
	c-0.7,0.7-1.4,1.5-2.2,2.3c-1.3,0-2.6,0-3.8,0c0.6-1.3,1.7-2.1,2.7-3c109.2-109.2,218.4-218.4,327.6-327.6c1.7-1.7,3.4-3.4,5.1-5.1
	c0.6-0.6,1.2-1.3,2-1.7C960.2,223.9,960.2,225.2,960.2,226.5z"/>
<path id="XMLID_266_" class="st0" d="M-0.3,321.5c1.3-0.5,2-1.5,2.9-2.4c54.8-54.8,109.6-109.6,164.4-164.4
	C217.7,104.1,268.3,53.5,318.9,2.8c0.9-0.9,2-1.6,2.4-2.9c1.4,0,2.9,0,4.3,0c-0.4,0.9-1.2,1.5-1.9,2.2
	C216.7,109.2,109.5,216.3,2.4,323.5c-0.8,0.8-1.4,1.8-2.7,1.9C-0.3,324.1-0.3,322.8-0.3,321.5z"/>
<path id="XMLID_265_" class="st0" d="M651.1,560.1c0.4-1.1,1.3-1.8,2.1-2.6c21.2-21.2,42.4-42.4,63.6-63.6
	c80.2-80.2,160.3-160.3,240.5-240.4c0.9-0.9,1.7-2,2.9-2.5c0,1.1,0,2.2,0,3.4c-0.8,1.3-2,2.3-3.1,3.4
	c-99.9,99.9-199.7,199.7-299.6,299.6c-0.9,0.9-1.8,1.9-2.6,2.8C653.7,560.1,652.4,560.1,651.1,560.1z"/>
<path id="XMLID_264_" class="st0" d="M960.2,297c-0.8,1.2-1.9,2.2-2.9,3.2c-85.6,85.6-171.1,171.1-256.7,256.7c-1,1-2.1,2-2.9,3.2
	c-1.3,0-2.6,0-3.8,0c0.2-1.3,1.3-2,2.1-2.8c20.9-20.9,41.7-41.7,62.6-62.6C824.8,428.4,891,362.2,957.2,296c0.9-0.9,1.6-2,3-2.3
	C960.2,294.8,960.2,295.9,960.2,297z"/>
<path id="XMLID_263_" class="st0" d="M-0.3,293.2c1.2-0.3,1.9-1.4,2.8-2.2c19.4-19.3,38.7-38.7,58-58
	C137.4,156.1,214.2,79.3,291,2.5c0.8-0.8,1.7-1.7,2.5-2.6c1.3,0,2.6,0,3.8,0c-0.5,1.1-1.5,1.9-2.3,2.7
	C255.6,42,216.2,81.4,176.8,120.9c-58,58-116,116-174,174c-0.9,0.9-1.5,2.1-3,2.2C-0.3,295.8-0.3,294.5-0.3,293.2z"/>
<path id="XMLID_262_" class="st0" d="M960.2,269.2c-0.8,0.8-1.6,1.5-2.4,2.3C862.4,366.9,767,462.3,671.6,557.6
	c-0.8,0.8-1.5,1.6-2.3,2.4c-1.3,0-2.6,0-3.8,0c0.3-0.9,1.1-1.5,1.8-2.2C764.2,461,861.1,364.1,958,267.2c0.7-0.7,1.3-1.4,2.2-1.8
	C960.2,266.6,960.2,267.9,960.2,269.2z"/>
<path id="XMLID_261_" class="st0" d="M-0.3,251c0.7-0.6,1.5-1.2,2.1-1.9c82.3-82.3,164.7-164.7,247-247c0.7-0.7,1.4-1.3,1.9-2.1
	c1.3,0,2.6,0,3.8,0c0,0.5-0.2,0.9-0.6,1.3c-0.5,0.5-1,1-1.5,1.5c-83.3,83.3-166.6,166.6-250,250c-0.8,0.8-1.5,2-2.8,2.1
	C-0.3,253.5-0.3,252.2-0.3,251z"/>
<path id="XMLID_260_" class="st0" d="M-0.3,278.8c0.7-0.1,1.2-0.5,1.6-1c0.6-0.6,1.1-1.1,1.7-1.7C94.2,185,185.3,93.9,276.5,2.7
	c0.9-0.9,1.8-1.9,2.6-2.8c1.3,0,2.6,0,3.8,0c-0.4,1.2-1.4,1.9-2.3,2.7C246.1,37.2,211.6,71.7,177,106.3
	C118.9,164.4,60.8,222.5,2.6,280.7c-0.9,0.9-1.7,2-2.9,2.5C-0.3,281.7-0.3,280.2-0.3,278.8z"/>
<path id="XMLID_259_" class="st0" d="M960.2,283.1c-1.1,1.1-2.2,2.1-3.2,3.2C866.4,376.9,775.9,467.5,685.3,558
	c-0.7,0.7-1.4,1.4-2,2.1c-1.3,0-2.6,0-3.8,0c0.5-0.9,1.2-1.5,1.9-2.2c92.1-92.1,184.2-184.2,276.3-276.2c0.8-0.8,1.4-1.8,2.7-1.9
	C960.2,280.9,960.2,282,960.2,283.1z"/>
<path id="XMLID_258_" class="st0" d="M-0.3,264.9c1.3-0.4,2-1.5,2.9-2.4c42.4-42.4,84.9-84.8,127.3-127.3
	c44.3-44.3,88.6-88.6,132.9-132.9c0.8-0.8,1.6-1.6,2.3-2.4c1.3,0,2.6,0,3.8,0c-0.4,0.9-1.2,1.5-1.8,2.2
	C178.9,90.4,90.7,178.6,2.4,266.9c-0.8,0.8-1.4,1.8-2.7,1.9C-0.3,267.4-0.3,266.2-0.3,264.9z"/>
<path id="XMLID_257_" class="st0" d="M960.2,325.4c-1,1.1-2,2.2-3.1,3.3C881,404.8,804.8,480.9,728.7,557.1c-1,1-2,1.8-2.7,3
	c-1.4,0-2.9,0-4.3,0c0.6-0.7,1.2-1.5,1.9-2.2C801.5,480,879.4,402,957.4,324.1c0.8-0.8,1.5-1.9,2.8-2.1
	C960.2,323.1,960.2,324.2,960.2,325.4z"/>
<path id="XMLID_256_" class="st0" d="M960.2,311.4c-0.7,0.7-1.4,1.3-2.1,2c-81.5,81.5-162.9,162.9-244.4,244.4
	c-0.7,0.7-1.4,1.5-2.2,2.3c-1.3,0-2.6,0-3.8,0c0.4-0.9,1.1-1.5,1.8-2.2c82.8-82.8,165.6-165.6,248.4-248.5c0.7-0.7,1.3-1.4,2.2-1.8
	C960.2,308.9,960.2,310.2,960.2,311.4z"/>
<path id="XMLID_255_" class="st0" d="M-0.3,236.6c1.3-0.3,2-1.4,2.8-2.2C23,213.9,43.5,193.5,63.9,173
	C120.7,116.2,177.6,59.4,234.4,2.5c0.8-0.8,1.7-1.7,2.5-2.6c1.3,0,2.6,0,3.8,0c-0.4,1.2-1.5,1.9-2.3,2.7
	C185.8,55.2,133.2,107.8,80.7,160.4c-26.1,26.1-52.1,52.1-78.2,78.2c-0.8,0.8-1.6,1.8-2.7,2.3C-0.3,239.4-0.3,238-0.3,236.6z"/>
<path id="XMLID_254_" class="st0" d="M-0.3,208.7c0.8-0.8,1.7-1.5,2.5-2.3c68-68,136-136,204.1-204.1c0.8-0.8,1.5-1.6,2.3-2.5
	c1.3,0,2.6,0,3.8,0c0,0.6-0.4,1-0.8,1.4c-0.5,0.5-1,1-1.5,1.5C141,72,71.8,141.1,2.7,210.3c-0.9,0.9-1.6,2-3,2.3
	C-0.3,211.3-0.3,210-0.3,208.7z"/>
<path id="XMLID_253_" class="st0" d="M-0.3,222.6c1.3-0.5,2-1.5,2.9-2.4C60.1,162.8,117.5,105.4,174.9,48
	c15.2-15.2,30.3-30.3,45.5-45.5c0.8-0.8,1.7-1.5,2.1-2.6c1.4,0,2.9,0,4.3,0c-0.4,0.9-1.2,1.5-1.9,2.2
	C150.7,76.3,76.6,150.4,2.4,224.6c-0.8,0.8-1.4,1.8-2.7,1.9C-0.3,225.2-0.3,223.9-0.3,222.6z"/>
<path id="XMLID_252_" class="st0" d="M960.2,339.3c-0.8,1.2-1.9,2.2-2.9,3.2c-71.6,71.6-143.2,143.2-214.8,214.8
	c-0.9,0.9-1.8,1.9-2.6,2.8c-1.3,0-2.6,0-3.8,0c0.4-1.2,1.4-1.9,2.3-2.7c31.9-32,63.9-63.9,95.8-95.8
	c41.1-41.1,82.2-82.2,123.3-123.3c0.8-0.8,1.6-1.8,2.7-2.3C960.2,337,960.2,338.2,960.2,339.3z"/>
<path id="XMLID_251_" class="st0" d="M960.2,367.6c-0.9,1-1.8,2-2.8,3c-62.1,62.1-124.2,124.2-186.3,186.3c-1,1-2.1,1.9-2.9,3.2
	c-1.3,0-2.6,0-3.8,0c0-0.5,0.3-0.9,0.6-1.3c0.5-0.5,1-1,1.5-1.5c63.6-63.6,127.3-127.3,190.9-190.9c0.8-0.8,1.5-1.9,2.8-2.1
	C960.2,365.4,960.2,366.5,960.2,367.6z"/>
<path id="XMLID_250_" class="st0" d="M960.2,353.7c-0.9,0.9-1.8,1.8-2.7,2.7c-67.1,67.1-134.2,134.2-201.3,201.3
	c-0.8,0.8-1.6,1.6-2.3,2.4c-1.3,0-2.6,0-3.8,0c0.4-0.9,1.2-1.5,1.8-2.2c68.7-68.7,137.5-137.5,206.2-206.2c0.7-0.7,1.3-1.4,2.2-1.9
	C960.2,351.1,960.2,352.4,960.2,353.7z"/>
<path id="XMLID_249_" class="st0" d="M-0.3,180.4c0.9-0.5,1.6-1.3,2.3-2.1C60.8,119.6,119.5,61,178.2,2.3c0.7-0.7,1.5-1.4,2.1-2.3
	c1.4,0,2.9,0,4.3,0c-0.5,0.8-1.2,1.5-1.9,2.2c-60,60-120.1,120.1-180.1,180.1c-0.8,0.8-1.5,1.9-2.8,2.1
	C-0.3,183-0.3,181.7-0.3,180.4z"/>
<path id="XMLID_248_" class="st0" d="M-0.3,194.3c1.3-0.4,2.1-1.5,2.9-2.4c45.7-45.7,91.5-91.5,137.2-137.2
	c17.5-17.5,34.9-34.9,52.4-52.4c0.8-0.8,1.6-1.6,2.3-2.4c1.3,0,2.6,0,3.8,0c-0.3,0.9-1,1.4-1.7,2C132,66.8,67.1,131.7,2.2,196.5
	c-0.7,0.7-1.3,1.7-2.5,1.7C-0.3,196.9-0.3,195.6-0.3,194.3z"/>
<path id="XMLID_247_" class="st0" d="M960.2,382c-0.8,0.7-1.5,1.4-2.3,2.1C900.1,442,842.3,499.8,784.4,557.6
	c-0.8,0.8-1.5,1.6-2.3,2.4c-1.3,0-2.6,0-3.8,0c0.3-0.9,1.1-1.5,1.8-2.2C839.4,498.6,898.7,439.3,958,380c0.7-0.7,1.3-1.4,2.2-1.8
	C960.2,379.4,960.2,380.7,960.2,382z"/>
<path id="XMLID_246_" class="st0" d="M960.2,409.8c-0.9,1-1.8,2-2.7,3c-48.1,48.1-96.2,96.2-144.2,144.3c-1,1-1.9,2-2.8,3
	c-1.3,0-2.6,0-3.8,0c0.2-1.3,1.3-2,2.1-2.8c20.9-20.9,41.7-41.8,62.6-62.6c28.7-28.7,57.4-57.4,86-86c0.8-0.8,1.5-1.9,2.8-2.1
	C960.2,407.6,960.2,408.7,960.2,409.8z"/>
<path id="XMLID_245_" class="st0" d="M-0.3,166c0.8-0.1,1.3-0.6,1.8-1.1c0.6-0.6,1.1-1.1,1.7-1.7c53.5-53.5,107-107,160.4-160.5
	c0.9-0.9,1.8-1.9,2.6-2.8c1.3,0,2.6,0,3.8,0c-0.2,0.9-1,1.4-1.6,2C113,57.5,57.5,113,2,168.5c-0.7,0.7-1.3,1.4-2.2,1.8
	C-0.3,168.9-0.3,167.4-0.3,166z"/>
<path id="XMLID_244_" class="st0" d="M960.2,395.9c-12.4,12.4-24.9,24.9-37.3,37.3c-41.6,41.6-83.2,83.2-124.8,124.8
	c-0.7,0.7-1.3,1.4-2,2c-1.3,0-2.6,0-3.8,0c0.5-0.9,1.2-1.5,1.9-2.2c54.5-54.5,109-109,163.5-163.4c0.8-0.8,1.4-1.8,2.7-1.9
	C960.2,393.7,960.2,394.8,960.2,395.9z"/>
<path id="XMLID_243_" class="st0" d="M-0.3,138.2c0.8-0.8,1.7-1.5,2.5-2.3C46.7,91.5,91.1,47,135.6,2.6c0.8-0.8,1.8-1.6,2.4-2.7
	c1.3,0,2.6,0,3.8,0c-0.1,1.2-1.1,1.7-1.8,2.5c-9.9,10-19.9,19.9-29.8,29.8C74.3,68.1,38.4,104,2.6,139.9c-0.8,0.8-1.5,1.9-2.8,2.1
	C-0.3,140.7-0.3,139.4-0.3,138.2z"/>
<path id="XMLID_242_" class="st0" d="M-0.3,152.1c1-0.3,1.6-1.1,2.3-1.7C51.7,100.7,101.4,51,151,1.3c0.5-0.5,0.9-0.9,1.3-1.4
	c1.3,0,2.6,0,3.8,0c-0.4,0.9-1.2,1.5-1.8,2.2c-50.7,50.7-101.3,101.3-152,152c-0.8,0.8-1.4,1.8-2.7,1.9
	C-0.3,154.6-0.3,153.4-0.3,152.1z"/>
<path id="XMLID_241_" class="st0" d="M960.2,438.2c-1,1-1.9,2.1-2.9,3.1C918.6,480,880,518.6,841.3,557.3c-0.9,0.9-1.9,1.7-2.6,2.8
	c-1.4,0-2.9,0-4.3,0c0.6-0.7,1.2-1.5,1.9-2.2c40.3-40.4,80.7-80.7,121-121c0.8-0.8,1.5-1.9,2.8-2.1
	C960.2,435.9,960.2,437,960.2,438.2z"/>
<path id="XMLID_240_" class="st0" d="M960.2,424.2c-0.7,0.7-1.4,1.3-2.1,2c-43.9,43.9-87.7,87.7-131.6,131.6
	c-0.7,0.7-1.4,1.5-2.2,2.3c-1.3,0-2.6,0-3.8,0c0.4-0.9,1.1-1.5,1.8-2.2c45.2-45.2,90.4-90.4,135.7-135.7c0.7-0.7,1.3-1.4,2.2-1.8
	C960.2,421.7,960.2,423,960.2,424.2z"/>
<path id="XMLID_239_" class="st0" d="M-0.3,123.8c1.2-0.3,1.9-1.4,2.8-2.2C28,96.1,53.4,70.7,78.8,45.3
	C93.1,31,107.4,16.7,121.8,2.4c0.8-0.8,1.5-1.6,2.3-2.4c1.3,0,2.6,0,3.8,0c-0.3,0.9-1,1.4-1.7,2C84.8,43.4,43.4,84.8,2,126.3
	c-0.7,0.7-1.3,1.4-2.2,1.8C-0.3,126.6-0.3,125.2-0.3,123.8z"/>
<path id="XMLID_238_" class="st0" d="M-0.3,109.8c1.1-0.7,1.9-1.7,2.8-2.6C35.7,74.2,68.8,41.1,101.9,8c1.7-1.7,3.5-3.3,5.2-5
	c1-0.9,2.1-1.7,2.6-3.1c1.4,0,2.9,0,4.3,0c-0.5,0.8-1.2,1.5-1.9,2.2c-36.5,36.5-73,73-109.5,109.5c-0.8,0.8-1.5,2-2.8,2.1
	C-0.3,112.4-0.3,111.1-0.3,109.8z"/>
<path id="XMLID_237_" class="st0" d="M960.2,452.1c-0.7,1.2-1.8,2.1-2.7,3c-34.1,34.1-68.2,68.2-102.3,102.4
	c-0.8,0.8-1.6,1.7-2.5,2.6c-1.3,0-2.6,0-3.8,0c0.3-0.9,1-1.4,1.6-2.1c35.9-35.9,71.8-71.8,107.7-107.7c0.6-0.6,1.2-1.3,2.1-1.6
	C960.2,449.8,960.2,451,960.2,452.1z"/>
<path id="XMLID_236_" class="st0" d="M-0.3,95.4c1.3-0.3,2-1.3,2.8-2.2c18.7-18.6,37.3-37.3,56-56C70.2,25.7,81.8,14,93.5,2.4
	c0.8-0.8,1.5-1.6,2.3-2.5c1.3,0,2.6,0,3.8,0c-0.4,1.1-1.3,1.8-2.1,2.6C67.1,32.9,36.7,63.2,6.4,93.6C4.7,95.3,3,97,1.3,98.7
	c-0.5,0.5-0.9,0.9-1.6,1.1C-0.3,98.3-0.3,96.9-0.3,95.4z"/>
<path id="XMLID_235_" class="st0" d="M960.2,466.5c-0.8,0.8-1.6,1.6-2.4,2.3c-29.6,29.6-59.2,59.2-88.9,88.9
	c-0.8,0.8-1.6,1.6-2.3,2.4c-1.3,0-2.6,0-3.8,0c0.4-0.9,1.2-1.5,1.8-2.2c31.1-31.1,62.3-62.3,93.4-93.4c0.7-0.7,1.3-1.4,2.2-1.8
	C960.2,463.9,960.2,465.2,960.2,466.5z"/>
<path id="XMLID_234_" class="st0" d="M960.2,480.4c-0.9,0.9-1.7,1.9-2.6,2.8c-24.7,24.7-49.4,49.4-74,74c-0.9,0.9-1.9,1.7-2.6,2.8
	c-1.3,0-2.6,0-3.8,0c0.2-1.3,1.3-2,2.1-2.8c24.4-24.4,48.8-48.8,73.2-73.2c1.9-1.9,3.7-3.7,5.6-5.6c0.6-0.6,1.2-1.3,2.1-1.4
	C960.2,478.2,960.2,479.3,960.2,480.4z"/>
<path id="XMLID_233_" class="st0" d="M-0.3,81.5c0.8-0.2,1.4-0.8,1.9-1.4C28.2,53.6,54.8,27,81.3,0.5c0.2-0.2,0.3-0.4,0.5-0.5
	c1.3,0,2.6,0,3.8,0c-0.4,0.9-1.2,1.5-1.8,2.2C56.7,29.2,29.5,56.4,2.4,83.5c-0.8,0.8-1.4,1.8-2.7,1.9C-0.3,84.1-0.3,82.8-0.3,81.5z"
	/>
<path id="XMLID_232_" class="st0" d="M-0.3,67.6c0.8-0.7,1.6-1.3,2.3-2.1C23.2,44.4,44.2,23.3,65.3,2.2c0.7-0.7,1.4-1.5,2.1-2.3
	c1.3,0,2.6,0,3.8,0c0,1-0.8,1.5-1.4,2.1c-22.6,22.7-45.3,45.3-68,68c-0.6,0.6-1.2,1.3-2.1,1.4C-0.3,70.2-0.3,68.9-0.3,67.6z"/>
<path id="XMLID_231_" class="st0" d="M960.2,494.8c-0.6,0.6-1.3,1.2-1.9,1.8c-20.5,20.5-40.9,40.9-61.4,61.4c-0.7,0.7-1.3,1.4-2,2.1
	c-1.3,0-2.6,0-3.8,0c0.3-0.9,1.1-1.5,1.8-2.2c21.7-21.7,43.4-43.4,65.1-65.1c0.7-0.7,1.3-1.4,2.2-1.8
	C960.2,492.2,960.2,493.5,960.2,494.8z"/>
<path id="XMLID_230_" class="st0" d="M-0.3,53.2c0.9-0.2,1.5-0.9,2.1-1.5C18.7,34.9,35.5,18,52.4,1.2c0.4-0.4,0.7-0.8,1.1-1.2
	c1.3,0,2.6,0,3.8,0c-0.3,0.9-1,1.4-1.6,2C37.8,19.9,19.9,37.8,2,55.7c-0.7,0.7-1.3,1.4-2.2,1.8C-0.3,56.1-0.3,54.6-0.3,53.2z"/>
<path id="XMLID_229_" class="st0" d="M960.2,508.7c-17.1,17.1-34.2,34.2-51.4,51.4c-1.3,0-2.6,0-3.8,0c0.5-0.9,1.2-1.5,1.9-2.2
	c16.9-16.9,33.8-33.8,50.7-50.7c0.8-0.8,1.4-1.8,2.7-1.9C960.2,506.5,960.2,507.6,960.2,508.7z"/>
<path id="XMLID_228_" class="st0" d="M960.2,522.6c-0.8,0.9-1.6,1.8-2.4,2.7c-10.8,10.8-21.5,21.5-32.3,32.3
	c-0.8,0.8-1.5,1.6-2.3,2.5c-1.3,0-2.6,0-3.8,0c0.1-1,0.8-1.5,1.4-2.1c12.4-12.4,24.8-24.8,37.2-37.2c0.6-0.6,1.2-1.3,2.1-1.5
	C960.2,520.4,960.2,521.5,960.2,522.6z"/>
<path id="XMLID_227_" class="st0" d="M-0.3,39.3c1-0.3,1.6-1.1,2.2-1.7C13.8,25.8,25.6,14,37.4,2.2c0.7-0.7,1.5-1.3,1.7-2.2
	c1.4,0,2.9,0,4.3,0c-0.4,0.9-1.2,1.5-1.9,2.2c-13,13.1-26.1,26.1-39.2,39.1C1.6,42,1,43-0.3,43.1C-0.3,41.8-0.3,40.6-0.3,39.3z"/>
<path id="XMLID_226_" class="st0" d="M-0.3,25.4c0.6-0.5,1.2-1,1.8-1.6C8.9,16.4,16.4,9,23.8,1.5c0.5-0.5,0.9-1.1,1.4-1.6
	c1.3,0,2.6,0,3.8,0c-0.1,1-0.8,1.5-1.4,2.1C19,10.6,10.4,19.2,1.9,27.8c-0.6,0.6-1.2,1.3-2.1,1.5C-0.3,27.9-0.3,26.6-0.3,25.4z"/>
<path id="XMLID_225_" class="st0" d="M960.2,537c-7.7,7.7-15.4,15.4-23,23c-1.3,0-2.6,0-3.8,0c0.3-0.8,1-1.4,1.7-2
	c7.7-7.7,15.5-15.5,23.2-23.2c0.6-0.6,1.2-1.3,2-1.7C960.2,534.5,960.2,535.8,960.2,537z"/>
<path id="XMLID_224_" class="st0" d="M-0.3,11c0.6-0.2,1.1-0.6,1.6-1c3.3-3.3,6.6-6.7,9.9-10c1.3,0,2.6,0,3.8,0
	c-0.3,0.8-0.9,1.3-1.5,1.9C9.8,5.6,5.9,9.5,2.1,13.3c-0.7,0.7-1.2,1.6-2.3,1.5C-0.3,13.5-0.3,12.2-0.3,11z"/>
<path id="XMLID_223_" class="st0" d="M947.3,560.1c2.2-2.8,5-5.1,7.4-7.7c1.2-1.2,2.4-2.4,3.5-3.5c0.6-0.6,1.1-1.2,2-1.2
	c0,1.1,0,2.2,0,3.4c-1.3,1.3-2.5,2.6-3.8,4c-1.6,1.7-3.5,3.2-4.9,5.2C950.1,560.1,948.7,560.1,947.3,560.1z"/>
</svg>
